<svg width="465" height="506" viewBox="0 0 465 506" fill="none" xmlns="http://www.w3.org/2000/svg">
<g filter="url(#filter0_d_15_5)">
<rect x="32" y="77" width="368" height="393" fill="white"/>
</g>
<g filter="url(#filter1_d_15_5)">
<rect x="65" y="28" width="368" height="393" fill="white"/>
</g>
<path d="M415 311.914H83V312.08H415V311.914Z" fill="#EBEBEB"/>
<path d="M381.734 322.597H359.742V322.763H381.734V322.597Z" fill="#EBEBEB"/>
<path d="M302.93 324.403H297.16V324.569H302.93V324.403Z" fill="#EBEBEB"/>
<path d="M359.078 316.435H346.336V316.601H359.078V316.435Z" fill="#EBEBEB"/>
<path d="M146.512 317.551H117.833V317.717H146.512V317.551Z" fill="#EBEBEB"/>
<path d="M156.631 317.551H152.428V317.717H156.631V317.551Z" fill="#EBEBEB"/>
<path d="M232.5 320.353H170.296V320.519H232.5V320.353Z" fill="#EBEBEB"/>
<path d="M240.368 282.299H112.156C111.152 282.297 110.189 281.897 109.48 281.186C108.77 280.476 108.371 279.512 108.371 278.508V98.2782C108.38 97.2796 108.783 96.3247 109.491 95.6211C110.2 94.9174 111.158 94.5217 112.156 94.52H240.368C241.374 94.52 242.338 94.9195 243.049 95.6305C243.76 96.3415 244.159 97.3059 244.159 98.3114V278.508C244.159 279.513 243.76 280.478 243.049 281.189C242.338 281.9 241.374 282.299 240.368 282.299ZM112.156 94.6528C111.196 94.6546 110.275 95.0373 109.597 95.717C108.918 96.3967 108.537 97.3179 108.537 98.2782V278.508C108.537 279.468 108.918 280.389 109.597 281.069C110.275 281.749 111.196 282.131 112.156 282.133H240.368C241.329 282.131 242.25 281.749 242.93 281.069C243.609 280.39 243.992 279.469 243.993 278.508V98.2782C243.992 97.3173 243.609 96.3961 242.93 95.7166C242.25 95.0371 241.329 94.6546 240.368 94.6528H112.156Z" fill="#EBEBEB"/>
<path d="M383.998 282.299H255.779C254.774 282.297 253.811 281.897 253.1 281.187C252.39 280.476 251.99 279.513 251.988 278.508V98.2782C251.998 97.279 252.402 96.3241 253.112 95.6206C253.822 94.9171 254.78 94.5217 255.779 94.52H383.998C384.995 94.5235 385.951 94.9199 386.659 95.6234C387.366 96.3269 387.767 97.2808 387.776 98.2782V278.508C387.776 279.511 387.378 280.473 386.67 281.184C385.962 281.895 385.001 282.296 383.998 282.299ZM255.779 94.6528C254.818 94.6546 253.897 95.0371 253.218 95.7166C252.538 96.3961 252.156 97.3173 252.154 98.2782V278.508C252.156 279.469 252.538 280.39 253.218 281.069C253.897 281.749 254.818 282.131 255.779 282.133H383.998C384.959 282.131 385.88 281.749 386.559 281.069C387.239 280.39 387.622 279.469 387.623 278.508V98.2782C387.622 97.3173 387.239 96.3961 386.559 95.7166C385.88 95.0371 384.959 94.6546 383.998 94.6528H255.779Z" fill="#EBEBEB"/>
<path d="M357.411 115.416H325.055V155.249H357.411V115.416Z" fill="#F5F5F5"/>
<path d="M355.512 117.315H326.96V153.337H355.512V117.315Z" fill="#EBEBEB"/>
<path d="M352.046 144.247V153.337H330.42V144.247C330.415 141.889 331.242 139.605 332.755 137.796C334.268 135.988 336.371 134.771 338.693 134.36C337.18 133.768 335.921 132.666 335.134 131.245C334.347 129.823 334.081 128.172 334.382 126.575C334.683 124.978 335.532 123.537 336.783 122.5C338.034 121.463 339.608 120.895 341.233 120.895C342.858 120.895 344.432 121.463 345.683 122.5C346.934 123.537 347.783 124.978 348.084 126.575C348.385 128.172 348.119 129.823 347.332 131.245C346.545 132.666 345.286 133.768 343.773 134.36C346.095 134.771 348.197 135.988 349.711 137.796C351.224 139.605 352.051 141.889 352.046 144.247Z" fill="#E0E0E0"/>
<path d="M167.003 124.692H140.064V142.78H167.003V124.692Z" fill="#E0E0E0"/>
<path d="M153.537 118.962L131.917 124.692L153.537 130.422L175.157 124.692L153.537 118.962Z" fill="#EBEBEB"/>
<path d="M164.672 138.55V127.594C164.671 127.49 164.637 127.388 164.573 127.306C164.51 127.223 164.421 127.163 164.32 127.136L153.643 124.234C153.521 124.201 153.392 124.218 153.283 124.28C153.173 124.342 153.093 124.445 153.059 124.566C153.042 124.626 153.037 124.689 153.044 124.751C153.052 124.813 153.071 124.873 153.102 124.928C153.133 124.982 153.175 125.03 153.224 125.068C153.274 125.106 153.33 125.134 153.391 125.15L163.722 127.959V138.537C163.446 138.647 163.216 138.85 163.073 139.112C162.93 139.373 162.883 139.676 162.939 139.969C162.995 140.261 163.151 140.525 163.381 140.715C163.611 140.905 163.899 141.008 164.197 141.008C164.495 141.008 164.784 140.905 165.013 140.715C165.243 140.525 165.4 140.261 165.456 139.969C165.512 139.676 165.464 139.373 165.321 139.112C165.178 138.85 164.949 138.647 164.672 138.537V138.55Z" fill="#F5F5F5"/>
<path d="M222.832 100.689L218.376 126.704H241.862L222.832 100.689Z" fill="#E0E0E0"/>
<path d="M258.734 126.704H226.723L222.832 100.689H254.843L258.734 126.704Z" fill="#F5F5F5"/>
<path d="M255.554 105.456H223.542L222.832 100.689H254.843L255.554 105.456Z" fill="#EBEBEB"/>
<path d="M233.257 110.363H230.494L230.083 107.574H232.838L233.257 110.363Z" fill="#E0E0E0"/>
<path d="M237.46 110.363H234.697L234.286 107.574H237.041L237.46 110.363Z" fill="#E0E0E0"/>
<path d="M241.663 110.363H238.901L238.489 107.574H241.244L241.663 110.363Z" fill="#E0E0E0"/>
<path d="M245.866 110.363H243.104L242.692 107.574H245.448L245.866 110.363Z" fill="#E0E0E0"/>
<path d="M250.069 110.363H247.307L246.895 107.574H249.651L250.069 110.363Z" fill="#E0E0E0"/>
<path d="M254.272 110.363H251.51L251.098 107.574H253.854L254.272 110.363Z" fill="#E0E0E0"/>
<path d="M229.644 114.34H226.889L226.47 111.558H229.233L229.644 114.34Z" fill="#E0E0E0"/>
<path d="M233.854 114.34H231.092L230.674 111.558H233.436L233.854 114.34Z" fill="#E0E0E0"/>
<path d="M238.051 114.34H235.295L234.877 111.558H237.639L238.051 114.34Z" fill="#E0E0E0"/>
<path d="M242.254 114.34H239.498L239.08 111.558H241.842L242.254 114.34Z" fill="#E0E0E0"/>
<path d="M246.457 114.34H243.701L243.283 111.558H246.045L246.457 114.34Z" fill="#E0E0E0"/>
<path d="M250.66 114.34H247.904L247.486 111.558H250.248L250.66 114.34Z" fill="#E0E0E0"/>
<path d="M254.863 114.34H252.108L251.689 111.558H254.451L254.863 114.34Z" fill="#E0E0E0"/>
<path d="M230.242 118.324H227.486L227.068 115.536H229.824L230.242 118.324Z" fill="#E0E0E0"/>
<path d="M234.445 118.324H231.689L231.271 115.536H234.027L234.445 118.324Z" fill="#E0E0E0"/>
<path d="M238.648 118.324H235.893L235.474 115.536H238.23L238.648 118.324Z" fill="#E0E0E0"/>
<path d="M242.851 118.324H240.096L239.677 115.536H242.433L242.851 118.324Z" fill="#E0E0E0"/>
<path d="M247.054 118.324H244.299L243.881 115.536H246.636L247.054 118.324Z" fill="#E0E0E0"/>
<path d="M251.258 118.324H248.502L248.084 115.536H250.839L251.258 118.324Z" fill="#E0E0E0"/>
<path d="M255.461 118.324H252.705L252.287 115.536H255.042L255.461 118.324Z" fill="#E0E0E0"/>
<path d="M230.84 122.302H228.084L227.666 119.52H230.421L230.84 122.302Z" fill="#E0E0E0"/>
<path d="M235.043 122.302H232.28L231.869 119.52H234.624L235.043 122.302Z" fill="#E0E0E0"/>
<path d="M239.246 122.302H236.484L236.072 119.52H238.827L239.246 122.302Z" fill="#E0E0E0"/>
<path d="M243.449 122.302H240.687L240.275 119.52H243.031L243.449 122.302Z" fill="#E0E0E0"/>
<path d="M247.652 122.302H244.89L244.478 119.52H247.234L247.652 122.302Z" fill="#E0E0E0"/>
<path d="M251.855 122.302H249.093L248.675 119.52H251.437L251.855 122.302Z" fill="#E0E0E0"/>
<path d="M380.764 209.219H356.548C355.745 209.219 355.094 209.87 355.094 210.674V245.275C355.094 246.078 355.745 246.729 356.548 246.729H380.764C381.567 246.729 382.218 246.078 382.218 245.275V210.674C382.218 209.87 381.567 209.219 380.764 209.219Z" fill="#E0E0E0"/>
<path d="M376.92 205.528H352.704C351.9 205.528 351.249 206.179 351.249 206.982V241.583C351.249 242.386 351.9 243.037 352.704 243.037H376.92C377.723 243.037 378.374 242.386 378.374 241.583V206.982C378.374 206.179 377.723 205.528 376.92 205.528Z" fill="#F5F5F5"/>
<path d="M373.646 211.43H355.977C355.861 211.431 355.746 211.409 355.638 211.365C355.531 211.321 355.433 211.256 355.351 211.174C355.268 211.092 355.203 210.994 355.159 210.886C355.115 210.779 355.093 210.664 355.094 210.547C355.094 210.313 355.187 210.089 355.353 209.923C355.518 209.757 355.743 209.664 355.977 209.664H373.646C373.88 209.664 374.105 209.757 374.271 209.923C374.436 210.089 374.529 210.313 374.529 210.547C374.53 210.664 374.508 210.779 374.464 210.886C374.42 210.994 374.355 211.092 374.273 211.174C374.19 211.256 374.093 211.321 373.985 211.365C373.878 211.409 373.762 211.431 373.646 211.43Z" fill="#EBEBEB"/>
<path d="M373.646 216.032H355.977C355.743 216.032 355.518 215.939 355.353 215.773C355.187 215.608 355.094 215.383 355.094 215.149C355.093 215.032 355.115 214.917 355.159 214.809C355.203 214.701 355.268 214.603 355.35 214.52C355.432 214.437 355.53 214.372 355.638 214.327C355.745 214.282 355.861 214.259 355.977 214.259H373.646C373.763 214.259 373.878 214.282 373.986 214.327C374.093 214.372 374.191 214.437 374.273 214.52C374.355 214.603 374.42 214.701 374.464 214.809C374.508 214.917 374.53 215.032 374.529 215.149C374.529 215.383 374.436 215.608 374.271 215.773C374.105 215.939 373.88 216.032 373.646 216.032Z" fill="#EBEBEB"/>
<path d="M373.646 220.587H355.977C355.861 220.588 355.746 220.566 355.638 220.522C355.531 220.478 355.433 220.413 355.351 220.33C355.268 220.248 355.203 220.15 355.159 220.043C355.115 219.935 355.093 219.82 355.094 219.704C355.094 219.47 355.187 219.245 355.353 219.079C355.518 218.914 355.743 218.821 355.977 218.821H373.646C373.88 218.821 374.105 218.914 374.271 219.079C374.436 219.245 374.529 219.47 374.529 219.704C374.53 219.82 374.508 219.935 374.464 220.043C374.42 220.15 374.355 220.248 374.273 220.33C374.19 220.413 374.093 220.478 373.985 220.522C373.878 220.566 373.762 220.588 373.646 220.587Z" fill="#EBEBEB"/>
<path d="M373.646 225.169H355.977C355.861 225.169 355.746 225.146 355.639 225.101C355.532 225.057 355.435 224.992 355.353 224.91C355.271 224.828 355.206 224.731 355.161 224.623C355.117 224.516 355.094 224.401 355.094 224.286C355.093 224.169 355.115 224.053 355.159 223.946C355.203 223.838 355.268 223.739 355.35 223.657C355.432 223.574 355.53 223.508 355.638 223.464C355.745 223.419 355.861 223.396 355.977 223.396H373.646C373.763 223.396 373.878 223.419 373.986 223.464C374.093 223.508 374.191 223.574 374.273 223.657C374.355 223.739 374.42 223.838 374.464 223.946C374.508 224.053 374.53 224.169 374.529 224.286C374.529 224.401 374.506 224.516 374.462 224.623C374.418 224.731 374.353 224.828 374.271 224.91C374.189 224.992 374.091 225.057 373.984 225.101C373.877 225.146 373.762 225.169 373.646 225.169Z" fill="#EBEBEB"/>
<path d="M373.646 229.744H355.977C355.861 229.744 355.746 229.722 355.638 229.678C355.531 229.634 355.433 229.569 355.351 229.487C355.268 229.405 355.203 229.307 355.159 229.199C355.115 229.092 355.093 228.977 355.094 228.86C355.093 228.744 355.115 228.629 355.159 228.521C355.203 228.414 355.268 228.316 355.351 228.234C355.433 228.152 355.531 228.087 355.638 228.043C355.746 227.999 355.861 227.976 355.977 227.977H373.646C373.762 227.976 373.878 227.999 373.985 228.043C374.093 228.087 374.19 228.152 374.273 228.234C374.355 228.316 374.42 228.414 374.464 228.521C374.508 228.629 374.53 228.744 374.529 228.86C374.53 228.977 374.508 229.092 374.464 229.199C374.42 229.307 374.355 229.405 374.273 229.487C374.19 229.569 374.093 229.634 373.985 229.678C373.878 229.722 373.762 229.744 373.646 229.744Z" fill="#EBEBEB"/>
<path d="M373.646 234.325H355.977C355.861 234.325 355.745 234.302 355.638 234.257C355.53 234.213 355.432 234.147 355.35 234.064C355.268 233.981 355.203 233.883 355.159 233.775C355.115 233.668 355.093 233.552 355.094 233.435C355.094 233.201 355.187 232.977 355.353 232.811C355.518 232.645 355.743 232.552 355.977 232.552H373.646C373.88 232.552 374.105 232.645 374.271 232.811C374.436 232.977 374.529 233.201 374.529 233.435C374.53 233.552 374.508 233.668 374.464 233.775C374.42 233.883 374.355 233.981 374.273 234.064C374.191 234.147 374.093 234.213 373.986 234.257C373.878 234.302 373.763 234.325 373.646 234.325Z" fill="#EBEBEB"/>
<path d="M369.662 238.9H355.977C355.743 238.9 355.518 238.807 355.353 238.641C355.187 238.476 355.094 238.251 355.094 238.017C355.093 237.901 355.115 237.786 355.159 237.678C355.203 237.57 355.268 237.473 355.351 237.391C355.433 237.308 355.531 237.243 355.638 237.199C355.746 237.155 355.861 237.133 355.977 237.134H369.662C369.778 237.133 369.894 237.155 370.001 237.199C370.109 237.243 370.206 237.308 370.289 237.391C370.371 237.473 370.436 237.57 370.48 237.678C370.524 237.786 370.546 237.901 370.545 238.017C370.545 238.251 370.452 238.476 370.287 238.641C370.121 238.807 369.896 238.9 369.662 238.9Z" fill="#EBEBEB"/>
<path d="M340.931 156.989V158.649" stroke="#EBEBEB" stroke-width="2" stroke-linecap="round" stroke-linejoin="round"/>
<path d="M340.931 161.883V186.139" stroke="#EBEBEB" stroke-width="2" stroke-linecap="round" stroke-linejoin="round" stroke-dasharray="4.87 4.87"/>
<path d="M340.931 187.759V189.419H339.271" stroke="#EBEBEB" stroke-width="2" stroke-linecap="round" stroke-linejoin="round"/>
<path d="M335.964 189.419H278.116" stroke="#EBEBEB" stroke-width="2" stroke-linecap="round" stroke-linejoin="round" stroke-dasharray="4.98 4.98"/>
<path d="M276.463 189.419H274.803V191.079" stroke="#EBEBEB" stroke-width="2" stroke-linecap="round" stroke-linejoin="round"/>
<path d="M274.803 194.605V199.897" stroke="#EBEBEB" stroke-width="2" stroke-linecap="round" stroke-linejoin="round" stroke-dasharray="5.31 5.31"/>
<path d="M274.803 201.663V203.323H273.143" stroke="#EBEBEB" stroke-width="2" stroke-linecap="round" stroke-linejoin="round"/>
<path d="M269.471 203.323H263.953" stroke="#EBEBEB" stroke-width="2" stroke-linecap="round" stroke-linejoin="round" stroke-dasharray="5.54 5.54"/>
<path d="M262.114 203.323H260.454" stroke="#EBEBEB" stroke-width="2" stroke-linecap="round" stroke-linejoin="round"/>
<path d="M367.272 250.215V262.572H274.803V223.396H261.676" stroke="#EBEBEB" stroke-width="2" stroke-linecap="round" stroke-linejoin="round" stroke-dasharray="5 5"/>
<path d="M261.676 114.34H279.524V183.596H246.895" stroke="#EBEBEB" stroke-width="2" stroke-linecap="round" stroke-linejoin="round" stroke-dasharray="5 5"/>
<path d="M170.9 135.349H187.334V204.133H212.128" stroke="#EBEBEB" stroke-width="2" stroke-linecap="round" stroke-linejoin="round" stroke-dasharray="5 5"/>
<path d="M134.294 266.934L126.93 262.286L119.381 266.934V242.114H134.294V266.934Z" fill="#E0E0E0"/>
<path d="M135.046 248.068C139.582 243.532 139.582 236.179 135.046 231.644C130.511 227.109 123.158 227.109 118.622 231.644C114.087 236.179 114.087 243.532 118.622 248.068C123.158 252.603 130.511 252.603 135.046 248.068Z" fill="#F5F5F5"/>
<path d="M133.807 246.828C137.657 242.977 137.657 236.734 133.807 232.883C129.956 229.033 123.713 229.033 119.862 232.883C116.011 236.734 116.011 242.977 119.862 246.828C123.713 250.679 129.956 250.679 133.807 246.828Z" fill="#EBEBEB"/>
<path d="M142.415 240.182H193.642V223.396H212.128" stroke="#EBEBEB" stroke-width="2" stroke-linecap="round" stroke-linejoin="round" stroke-dasharray="5 5"/>
<path d="M249 341.9C320.103 341.9 377.743 338.535 377.743 334.383C377.743 330.232 320.103 326.867 249 326.867C177.897 326.867 120.257 330.232 120.257 334.383C120.257 338.535 177.897 341.9 249 341.9Z" fill="#F5F5F5"/>
<path d="M265.235 137.534C264.027 137.534 262.846 137.892 261.841 138.563C260.836 139.235 260.053 140.189 259.591 141.305C259.129 142.421 259.008 143.649 259.243 144.834C259.479 146.019 260.061 147.108 260.915 147.962C261.77 148.817 262.858 149.398 264.043 149.634C265.228 149.87 266.456 149.749 267.573 149.287C268.689 148.824 269.643 148.041 270.314 147.037C270.985 146.032 271.344 144.851 271.344 143.643C271.344 142.023 270.7 140.469 269.554 139.323C268.409 138.178 266.855 137.534 265.235 137.534ZM265.235 143.052C264.884 143.052 264.541 142.948 264.25 142.753C263.958 142.558 263.731 142.281 263.597 141.957C263.463 141.633 263.428 141.277 263.496 140.933C263.564 140.589 263.733 140.273 263.981 140.025C264.229 139.777 264.545 139.608 264.889 139.54C265.233 139.472 265.589 139.507 265.913 139.641C266.237 139.775 266.514 140.002 266.709 140.294C266.904 140.585 267.008 140.928 267.008 141.279C267.008 141.512 266.962 141.742 266.873 141.957C266.784 142.172 266.653 142.368 266.488 142.532C266.324 142.697 266.128 142.828 265.913 142.917C265.698 143.006 265.468 143.052 265.235 143.052Z" fill="#3F6FD8"/>
<path opacity="0.6" d="M265.235 137.534C264.027 137.534 262.846 137.892 261.841 138.563C260.836 139.235 260.053 140.189 259.591 141.305C259.129 142.421 259.008 143.649 259.243 144.834C259.479 146.019 260.061 147.108 260.915 147.962C261.77 148.817 262.858 149.398 264.043 149.634C265.228 149.87 266.456 149.749 267.573 149.287C268.689 148.824 269.643 148.041 270.314 147.037C270.985 146.032 271.344 144.851 271.344 143.643C271.344 142.023 270.7 140.469 269.554 139.323C268.409 138.178 266.855 137.534 265.235 137.534ZM265.235 143.052C264.884 143.052 264.541 142.948 264.25 142.753C263.958 142.558 263.731 142.281 263.597 141.957C263.463 141.633 263.428 141.277 263.496 140.933C263.564 140.589 263.733 140.273 263.981 140.025C264.229 139.777 264.545 139.608 264.889 139.54C265.233 139.472 265.589 139.507 265.913 139.641C266.237 139.775 266.514 140.002 266.709 140.294C266.904 140.585 267.008 140.928 267.008 141.279C267.008 141.512 266.962 141.742 266.873 141.957C266.784 142.172 266.653 142.368 266.488 142.532C266.324 142.697 266.128 142.828 265.913 142.917C265.698 143.006 265.468 143.052 265.235 143.052Z" fill="white"/>
<path d="M325.679 145.555H204.784C202.038 145.555 199.811 147.782 199.811 150.528V330.685C199.811 333.432 202.038 335.658 204.784 335.658H325.679C328.425 335.658 330.652 333.432 330.652 330.685V150.528C330.652 147.782 328.425 145.555 325.679 145.555Z" fill="#3F6FD8"/>
<path opacity="0.8" d="M323.727 156.604H206.736V326.615H323.727V156.604Z" fill="white"/>
<path d="M296.35 143.935H234.12C233.412 143.935 232.838 144.509 232.838 145.216V153.198C232.838 153.905 233.412 154.479 234.12 154.479H296.35C297.058 154.479 297.631 153.905 297.631 153.198V145.216C297.631 144.509 297.058 143.935 296.35 143.935Z" fill="#3F6FD8"/>
<path opacity="0.4" d="M296.35 143.935H234.12C233.412 143.935 232.838 144.509 232.838 145.216V153.198C232.838 153.905 233.412 154.479 234.12 154.479H296.35C297.058 154.479 297.631 153.905 297.631 153.198V145.216C297.631 144.509 297.058 143.935 296.35 143.935Z" fill="white"/>
<path d="M289.185 164.273H270.434C270.052 164.28 269.676 164.182 269.346 163.99C269.016 163.798 268.744 163.519 268.561 163.184C268.24 162.583 267.761 162.081 267.177 161.73C266.592 161.38 265.923 161.195 265.241 161.195C264.56 161.195 263.891 161.38 263.306 161.73C262.721 162.081 262.243 162.583 261.921 163.184C261.738 163.519 261.467 163.797 261.137 163.989C260.807 164.181 260.431 164.279 260.049 164.273H241.278C240.749 164.273 240.243 164.063 239.869 163.69C239.496 163.316 239.286 162.81 239.286 162.281V151.093C239.286 150.564 239.496 150.058 239.869 149.684C240.243 149.311 240.749 149.101 241.278 149.101H289.185C289.714 149.101 290.22 149.311 290.594 149.684C290.967 150.058 291.177 150.564 291.177 151.093V162.248C291.182 162.512 291.133 162.775 291.035 163.021C290.937 163.266 290.791 163.49 290.606 163.678C290.42 163.867 290.199 164.016 289.955 164.118C289.711 164.221 289.45 164.273 289.185 164.273ZM265.235 159.858C266.159 159.856 267.067 160.107 267.859 160.583C268.651 161.059 269.298 161.743 269.73 162.56C269.802 162.681 269.906 162.781 270.029 162.849C270.153 162.916 270.293 162.95 270.434 162.945H289.185C289.361 162.945 289.53 162.875 289.655 162.751C289.779 162.626 289.849 162.457 289.849 162.281V151.093C289.849 150.917 289.779 150.748 289.655 150.623C289.53 150.499 289.361 150.429 289.185 150.429H241.278C241.102 150.429 240.933 150.499 240.808 150.623C240.684 150.748 240.614 150.917 240.614 151.093V162.248C240.614 162.424 240.684 162.593 240.808 162.718C240.933 162.842 241.102 162.912 241.278 162.912H260.042C260.182 162.916 260.321 162.882 260.444 162.815C260.566 162.747 260.668 162.648 260.74 162.527C261.176 161.716 261.826 161.04 262.617 160.57C263.409 160.099 264.314 159.853 265.235 159.858Z" fill="#263238"/>
<g opacity="0.2">
<path d="M289.185 164.273H270.434C270.052 164.28 269.676 164.182 269.346 163.99C269.016 163.798 268.744 163.519 268.561 163.184C268.24 162.583 267.761 162.081 267.177 161.73C266.592 161.38 265.923 161.195 265.241 161.195C264.56 161.195 263.891 161.38 263.306 161.73C262.721 162.081 262.243 162.583 261.921 163.184C261.738 163.519 261.467 163.797 261.137 163.989C260.807 164.181 260.431 164.279 260.049 164.273H241.278C240.749 164.273 240.243 164.063 239.869 163.69C239.496 163.316 239.286 162.81 239.286 162.281V151.093C239.286 150.564 239.496 150.058 239.869 149.684C240.243 149.311 240.749 149.101 241.278 149.101H289.185C289.714 149.101 290.22 149.311 290.594 149.684C290.967 150.058 291.177 150.564 291.177 151.093V162.248C291.182 162.512 291.133 162.775 291.035 163.021C290.937 163.266 290.791 163.49 290.606 163.678C290.42 163.867 290.199 164.016 289.955 164.118C289.711 164.221 289.45 164.273 289.185 164.273ZM265.235 159.858C266.159 159.856 267.067 160.107 267.859 160.583C268.651 161.059 269.298 161.743 269.73 162.56C269.802 162.681 269.906 162.781 270.029 162.849C270.153 162.916 270.293 162.95 270.434 162.945H289.185C289.361 162.945 289.53 162.875 289.655 162.751C289.779 162.626 289.849 162.457 289.849 162.281V151.093C289.849 150.917 289.779 150.748 289.655 150.623C289.53 150.499 289.361 150.429 289.185 150.429H241.278C241.102 150.429 240.933 150.499 240.808 150.623C240.684 150.748 240.614 150.917 240.614 151.093V162.248C240.614 162.424 240.684 162.593 240.808 162.718C240.933 162.842 241.102 162.912 241.278 162.912H260.042C260.182 162.916 260.321 162.882 260.444 162.815C260.566 162.747 260.668 162.648 260.74 162.527C261.176 161.716 261.826 161.04 262.617 160.57C263.409 160.099 264.314 159.853 265.235 159.858Z" fill="white"/>
</g>
<path d="M286.343 147.155H244.146C243.721 147.155 243.376 147.5 243.376 147.926V150.914C243.376 151.339 243.721 151.684 244.146 151.684H286.343C286.769 151.684 287.114 151.339 287.114 150.914V147.926C287.114 147.5 286.769 147.155 286.343 147.155Z" fill="#3F6FD8"/>
<path opacity="0.6" d="M286.323 147.155H244.126C243.701 147.155 243.356 147.5 243.356 147.926V150.914C243.356 151.339 243.701 151.684 244.126 151.684H286.323C286.749 151.684 287.094 151.339 287.094 150.914V147.926C287.094 147.5 286.749 147.155 286.323 147.155Z" fill="white"/>
<path opacity="0.3" d="M276.098 249.458H264.279V261.277H276.098V249.458Z" fill="black"/>
<path opacity="0.3" d="M274.717 266.031H265.66C265.293 266.031 264.942 265.886 264.683 265.627C264.424 265.368 264.279 265.016 264.279 264.65C264.28 264.285 264.427 263.935 264.686 263.678C264.944 263.42 265.295 263.276 265.66 263.276H274.717C275.082 263.276 275.432 263.42 275.691 263.678C275.95 263.935 276.096 264.285 276.098 264.65C276.098 265.016 275.952 265.368 275.693 265.627C275.434 265.886 275.083 266.031 274.717 266.031Z" fill="black"/>
<path opacity="0.3" d="M312.751 249.458H282.353C281.656 249.458 281.091 250.023 281.091 250.719V250.726C281.091 251.423 281.656 251.988 282.353 251.988H312.751C313.447 251.988 314.012 251.423 314.012 250.726V250.719C314.012 250.023 313.447 249.458 312.751 249.458Z" fill="black"/>
<path opacity="0.3" d="M306.111 256.098H282.353C281.656 256.098 281.091 256.663 281.091 257.359V257.366C281.091 258.063 281.656 258.628 282.353 258.628H306.111C306.807 258.628 307.372 258.063 307.372 257.366V257.359C307.372 256.663 306.807 256.098 306.111 256.098Z" fill="black"/>
<path opacity="0.3" d="M312.751 262.738H282.353C281.656 262.738 281.091 263.303 281.091 263.999V264.006C281.091 264.703 281.656 265.268 282.353 265.268H312.751C313.447 265.268 314.012 264.703 314.012 264.006V263.999C314.012 263.303 313.447 262.738 312.751 262.738Z" fill="black"/>
<path opacity="0.3" d="M295.487 269.378H282.353C281.656 269.378 281.091 269.943 281.091 270.639V270.646C281.091 271.343 281.656 271.908 282.353 271.908H295.487C296.183 271.908 296.748 271.343 296.748 270.646V270.639C296.748 269.943 296.183 269.378 295.487 269.378Z" fill="black"/>
<path opacity="0.3" d="M300.168 174.114H229.97C229.363 174.112 228.781 173.87 228.352 173.441C227.923 173.012 227.681 172.43 227.679 171.823C227.679 171.215 227.92 170.633 228.35 170.203C228.78 169.773 229.362 169.532 229.97 169.532H300.168C300.775 169.532 301.358 169.773 301.788 170.203C302.217 170.633 302.459 171.215 302.459 171.823C302.457 172.43 302.215 173.012 301.786 173.441C301.357 173.87 300.775 174.112 300.168 174.114Z" fill="black"/>
<path opacity="0.3" d="M311.874 187.673H265.54C265.205 187.671 264.884 187.536 264.648 187.299C264.411 187.061 264.279 186.74 264.279 186.404C264.279 186.07 264.412 185.749 264.648 185.512C264.885 185.276 265.206 185.143 265.54 185.143H311.874C312.209 185.143 312.53 185.276 312.766 185.512C313.003 185.749 313.136 186.07 313.136 186.404C313.136 186.74 313.003 187.061 312.767 187.299C312.53 187.536 312.209 187.671 311.874 187.673Z" fill="black"/>
<path opacity="0.3" d="M305.234 194.313H265.54C265.205 194.311 264.884 194.176 264.648 193.939C264.411 193.701 264.279 193.38 264.279 193.044C264.279 192.71 264.412 192.389 264.648 192.152C264.885 191.916 265.206 191.783 265.54 191.783H305.234C305.569 191.783 305.89 191.916 306.126 192.152C306.363 192.389 306.496 192.71 306.496 193.044C306.496 193.38 306.363 193.701 306.127 193.939C305.89 194.176 305.569 194.311 305.234 194.313Z" fill="black"/>
<path opacity="0.3" d="M311.874 200.953H265.54C265.205 200.951 264.884 200.816 264.648 200.579C264.411 200.341 264.279 200.02 264.279 199.684C264.279 199.35 264.412 199.029 264.648 198.792C264.885 198.556 265.206 198.423 265.54 198.423H311.874C312.209 198.423 312.53 198.556 312.766 198.792C313.003 199.029 313.136 199.35 313.136 199.684C313.136 200.02 313.003 200.341 312.767 200.579C312.53 200.816 312.209 200.951 311.874 200.953Z" fill="black"/>
<path opacity="0.3" d="M298.594 207.593H265.54C265.205 207.591 264.884 207.456 264.648 207.219C264.411 206.981 264.279 206.66 264.279 206.324C264.279 205.99 264.412 205.669 264.648 205.432C264.885 205.196 265.206 205.063 265.54 205.063H298.594C298.929 205.063 299.25 205.196 299.486 205.432C299.723 205.669 299.856 205.99 299.856 206.324C299.856 206.66 299.723 206.981 299.487 207.219C299.25 207.456 298.929 207.591 298.594 207.593Z" fill="black"/>
<path opacity="0.3" d="M267.592 215.507L268.322 216.982L269.956 217.221L268.774 218.369L269.053 219.996L267.592 219.226L266.138 219.996L266.417 218.369L265.235 217.221L266.862 216.982L267.592 215.507Z" fill="black"/>
<path opacity="0.3" d="M275.839 215.507L276.569 216.982L278.196 217.221L277.014 218.369L277.293 219.996L275.839 219.226L274.378 219.996L274.657 218.369L273.475 217.221L275.108 216.982L275.839 215.507Z" fill="black"/>
<path opacity="0.3" d="M284.079 215.507L284.81 216.982L286.443 217.221L285.261 218.369L285.54 219.996L284.079 219.226L282.618 219.996L282.897 218.369L281.722 217.221L283.349 216.982L284.079 215.507Z" fill="black"/>
<path opacity="0.3" d="M292.326 215.507L293.05 216.982L294.683 217.221L293.501 218.369L293.78 219.996L292.326 219.226L290.865 219.996L291.144 218.369L289.962 217.221L291.596 216.982L292.326 215.507Z" fill="black"/>
<path opacity="0.3" d="M300.566 215.507L301.297 216.982L302.923 217.221L301.748 218.369L302.027 219.996L300.566 219.226L299.105 219.996L299.384 218.369L298.209 217.221L299.836 216.982L300.566 215.507Z" fill="black"/>
<path opacity="0.3" d="M267.592 223.967L268.322 225.441L269.956 225.68L268.774 226.829L269.053 228.455L267.592 227.685L266.138 228.455L266.417 226.829L265.235 225.68L266.862 225.441L267.592 223.967Z" fill="black"/>
<path opacity="0.3" d="M275.839 223.967L276.569 225.441L278.196 225.68L277.014 226.829L277.293 228.455L275.839 227.685L274.378 228.455L274.657 226.829L273.475 225.68L275.108 225.441L275.839 223.967Z" fill="black"/>
<path opacity="0.3" d="M284.079 223.967L284.81 225.441L286.443 225.68L285.261 226.829L285.54 228.455L284.079 227.685L282.618 228.455L282.897 226.829L281.722 225.68L283.349 225.441L284.079 223.967Z" fill="black"/>
<path opacity="0.1" d="M292.326 223.967L293.05 225.441L294.683 225.68L293.501 226.829L293.78 228.455L292.326 227.685L290.865 228.455L291.144 226.829L289.962 225.68L291.596 225.441L292.326 223.967Z" fill="black"/>
<path opacity="0.1" d="M300.566 223.967L301.297 225.441L302.923 225.68L301.748 226.829L302.027 228.455L300.566 227.685L299.105 228.455L299.384 226.829L298.209 225.68L299.836 225.441L300.566 223.967Z" fill="black"/>
<path opacity="0.3" d="M267.592 232.426L268.322 233.9L269.956 234.139L268.774 235.288L269.053 236.915L267.592 236.145L266.138 236.915L266.417 235.288L265.235 234.139L266.862 233.9L267.592 232.426Z" fill="black"/>
<path opacity="0.3" d="M275.839 232.426L276.569 233.9L278.196 234.139L277.014 235.288L277.293 236.915L275.839 236.145L274.378 236.915L274.657 235.288L273.475 234.139L275.108 233.9L275.839 232.426Z" fill="black"/>
<path opacity="0.3" d="M284.079 232.426L284.81 233.9L286.443 234.139L285.261 235.288L285.54 236.915L284.079 236.145L282.618 236.915L282.897 235.288L281.722 234.139L283.349 233.9L284.079 232.426Z" fill="black"/>
<path opacity="0.3" d="M292.326 232.426L293.05 233.9L294.683 234.139L293.501 235.288L293.78 236.915L292.326 236.145L290.865 236.915L291.144 235.288L289.962 234.139L291.596 233.9L292.326 232.426Z" fill="black"/>
<path opacity="0.1" d="M300.566 232.426L301.297 233.9L302.923 234.139L301.748 235.288L302.027 236.915L300.566 236.145L299.105 236.915L299.384 235.288L298.209 234.139L299.836 233.9L300.566 232.426Z" fill="black"/>
<path opacity="0.3" d="M276.098 282.658H264.279V294.477H276.098V282.658Z" fill="black"/>
<path opacity="0.3" d="M274.717 299.231H265.66C265.293 299.231 264.942 299.086 264.683 298.827C264.424 298.568 264.279 298.216 264.279 297.85C264.28 297.485 264.427 297.135 264.686 296.878C264.944 296.62 265.295 296.476 265.66 296.476H274.717C275.082 296.476 275.432 296.62 275.691 296.878C275.95 297.135 276.096 297.485 276.098 297.85C276.098 298.216 275.952 298.568 275.693 298.827C275.434 299.086 275.083 299.231 274.717 299.231Z" fill="black"/>
<path opacity="0.3" d="M312.751 282.658H282.353C281.656 282.658 281.091 283.223 281.091 283.919V283.926C281.091 284.623 281.656 285.188 282.353 285.188H312.751C313.447 285.188 314.012 284.623 314.012 283.926V283.919C314.012 283.223 313.447 282.658 312.751 282.658Z" fill="black"/>
<path opacity="0.3" d="M306.111 289.298H282.353C281.656 289.298 281.091 289.863 281.091 290.559V290.566C281.091 291.263 281.656 291.828 282.353 291.828H306.111C306.807 291.828 307.372 291.263 307.372 290.566V290.559C307.372 289.863 306.807 289.298 306.111 289.298Z" fill="black"/>
<path opacity="0.3" d="M312.751 295.938H282.353C281.656 295.938 281.091 296.503 281.091 297.199V297.206C281.091 297.903 281.656 298.468 282.353 298.468H312.751C313.447 298.468 314.012 297.903 314.012 297.206V297.199C314.012 296.503 313.447 295.938 312.751 295.938Z" fill="black"/>
<path opacity="0.3" d="M295.487 302.578H282.353C281.656 302.578 281.091 303.143 281.091 303.839V303.846C281.091 304.543 281.656 305.108 282.353 305.108H295.487C296.183 305.108 296.748 304.543 296.748 303.846V303.839C296.748 303.143 296.183 302.578 295.487 302.578Z" fill="black"/>
<path d="M256.736 185.143H214.12V241.729H256.736V185.143Z" fill="white"/>
<path d="M254.744 187.135H216.112V239.737H254.744V187.135Z" fill="#3F6FD8"/>
<path opacity="0.3" d="M256.736 248.322H214.12V304.829H256.736V248.322Z" fill="black"/>
<path opacity="0.3" d="M249.571 257.08H220.508C220.173 257.079 219.852 256.944 219.615 256.707C219.379 256.469 219.246 256.147 219.246 255.812C219.246 255.478 219.379 255.157 219.616 254.92C219.852 254.684 220.173 254.551 220.508 254.551H249.571C249.737 254.55 249.902 254.582 250.056 254.645C250.21 254.708 250.35 254.801 250.467 254.918C250.585 255.035 250.679 255.174 250.743 255.328C250.806 255.481 250.839 255.646 250.839 255.812C250.839 255.979 250.806 256.144 250.743 256.298C250.679 256.451 250.586 256.591 250.468 256.709C250.35 256.827 250.21 256.92 250.056 256.984C249.902 257.048 249.738 257.08 249.571 257.08Z" fill="white"/>
<path opacity="0.3" d="M249.578 261.616H220.508C219.811 261.616 219.246 262.18 219.246 262.877V262.884C219.246 263.581 219.811 264.145 220.508 264.145H249.578C250.274 264.145 250.839 263.581 250.839 262.884V262.877C250.839 262.18 250.274 261.616 249.578 261.616Z" fill="white"/>
<path opacity="0.3" d="M236.291 271.217H220.508C220.173 271.215 219.852 271.081 219.615 270.843C219.379 270.606 219.246 270.284 219.246 269.949C219.246 269.614 219.379 269.293 219.616 269.057C219.852 268.82 220.173 268.687 220.508 268.687H236.291C236.457 268.686 236.622 268.718 236.776 268.781C236.93 268.844 237.07 268.937 237.187 269.054C237.305 269.172 237.399 269.311 237.463 269.464C237.526 269.618 237.559 269.783 237.559 269.949C237.559 270.285 237.426 270.608 237.188 270.846C236.95 271.083 236.627 271.217 236.291 271.217Z" fill="white"/>
<path opacity="0.3" d="M249.571 278.282H220.508C220.173 278.282 219.852 278.149 219.616 277.912C219.379 277.676 219.246 277.355 219.246 277.02C219.246 276.685 219.379 276.364 219.615 276.126C219.852 275.888 220.173 275.754 220.508 275.752H249.571C249.907 275.752 250.23 275.886 250.468 276.124C250.706 276.361 250.839 276.684 250.839 277.02C250.839 277.187 250.806 277.351 250.743 277.505C250.679 277.658 250.585 277.798 250.467 277.915C250.35 278.032 250.21 278.125 250.056 278.188C249.902 278.251 249.737 278.283 249.571 278.282Z" fill="white"/>
<path opacity="0.3" d="M249.571 285.347H220.508C220.173 285.347 219.852 285.214 219.616 284.977C219.379 284.741 219.246 284.42 219.246 284.085C219.246 283.751 219.379 283.43 219.616 283.193C219.852 282.957 220.173 282.824 220.508 282.824H249.571C249.737 282.823 249.902 282.855 250.056 282.918C250.21 282.981 250.35 283.074 250.467 283.191C250.585 283.308 250.679 283.448 250.743 283.601C250.806 283.755 250.839 283.919 250.839 284.085C250.839 284.252 250.806 284.416 250.743 284.57C250.679 284.723 250.585 284.863 250.467 284.98C250.35 285.097 250.21 285.19 250.056 285.253C249.902 285.316 249.737 285.348 249.571 285.347Z" fill="white"/>
<path opacity="0.3" d="M229.651 292.392H220.508C220.173 292.392 219.852 292.259 219.616 292.022C219.379 291.786 219.246 291.465 219.246 291.13C219.245 290.964 219.277 290.799 219.34 290.646C219.403 290.492 219.496 290.352 219.613 290.234C219.731 290.116 219.87 290.023 220.023 289.959C220.177 289.895 220.342 289.862 220.508 289.862H229.651C229.818 289.861 229.983 289.893 230.137 289.957C230.292 290.02 230.432 290.114 230.55 290.232C230.668 290.35 230.761 290.49 230.825 290.644C230.888 290.798 230.92 290.964 230.919 291.13C230.919 291.297 230.886 291.461 230.823 291.615C230.759 291.768 230.665 291.908 230.547 292.025C230.43 292.142 230.29 292.235 230.136 292.298C229.982 292.361 229.817 292.393 229.651 292.392Z" fill="white"/>
<path opacity="0.3" d="M242.931 299.484H220.508C220.173 299.484 219.852 299.351 219.616 299.114C219.379 298.877 219.246 298.557 219.246 298.222C219.246 297.887 219.379 297.566 219.616 297.33C219.852 297.093 220.173 296.96 220.508 296.96H242.931C243.097 296.959 243.262 296.991 243.416 297.054C243.57 297.117 243.71 297.21 243.827 297.327C243.945 297.445 244.039 297.584 244.103 297.738C244.166 297.891 244.199 298.056 244.199 298.222C244.199 298.388 244.166 298.553 244.103 298.706C244.039 298.86 243.945 298.999 243.827 299.116C243.71 299.234 243.57 299.326 243.416 299.389C243.262 299.452 243.097 299.484 242.931 299.484Z" fill="white"/>
<defs>
<filter id="filter0_d_15_5" x="0" y="49" width="432" height="457" filterUnits="userSpaceOnUse" color-interpolation-filters="sRGB">
<feFlood flood-opacity="0" result="BackgroundImageFix"/>
<feColorMatrix in="SourceAlpha" type="matrix" values="0 0 0 0 0 0 0 0 0 0 0 0 0 0 0 0 0 0 127 0" result="hardAlpha"/>
<feOffset dy="4"/>
<feGaussianBlur stdDeviation="16"/>
<feComposite in2="hardAlpha" operator="out"/>
<feColorMatrix type="matrix" values="0 0 0 0 0 0 0 0 0 0 0 0 0 0 0 0 0 0 0.1 0"/>
<feBlend mode="normal" in2="BackgroundImageFix" result="effect1_dropShadow_15_5"/>
<feBlend mode="normal" in="SourceGraphic" in2="effect1_dropShadow_15_5" result="shape"/>
</filter>
<filter id="filter1_d_15_5" x="33" y="0" width="432" height="457" filterUnits="userSpaceOnUse" color-interpolation-filters="sRGB">
<feFlood flood-opacity="0" result="BackgroundImageFix"/>
<feColorMatrix in="SourceAlpha" type="matrix" values="0 0 0 0 0 0 0 0 0 0 0 0 0 0 0 0 0 0 127 0" result="hardAlpha"/>
<feOffset dy="4"/>
<feGaussianBlur stdDeviation="16"/>
<feComposite in2="hardAlpha" operator="out"/>
<feColorMatrix type="matrix" values="0 0 0 0 0 0 0 0 0 0 0 0 0 0 0 0 0 0 0.1 0"/>
<feBlend mode="normal" in2="BackgroundImageFix" result="effect1_dropShadow_15_5"/>
<feBlend mode="normal" in="SourceGraphic" in2="effect1_dropShadow_15_5" result="shape"/>
</filter>
</defs>
</svg>
