<svg width="20" height="17" viewBox="0 0 20 17" fill="none" xmlns="http://www.w3.org/2000/svg">
<path d="M3.49977 8.45217C3.50084 6.6778 4.09179 4.95414 5.17962 3.55236C6.26746 2.15058 7.79046 1.15023 9.50901 0.708686C11.2276 0.267145 13.0441 0.409473 14.673 1.11328C16.3018 1.81708 17.6504 3.04242 18.5066 4.59652C19.3629 6.15062 19.6782 7.94529 19.4029 9.69817C19.1276 11.4511 18.2774 13.0627 16.986 14.2795C15.6946 15.4963 14.0353 16.2493 12.2692 16.42C10.503 16.5906 8.73025 16.1692 7.22977 15.2222L8.69977 13.7522C9.85953 14.3641 11.1878 14.5793 12.4815 14.3647C13.7751 14.1502 14.9628 13.5177 15.863 12.5641C16.7631 11.6105 17.326 10.3883 17.4656 9.08448C17.6053 7.78062 17.3139 6.46692 16.6361 5.34436C15.9584 4.22179 14.9315 3.35218 13.7126 2.86855C12.4938 2.38492 11.15 2.31392 9.88697 2.66639C8.62392 3.01887 7.51112 3.77542 6.71882 4.82031C5.92651 5.86519 5.49832 7.14087 5.49977 8.45217L8.50977 8.44217L4.50977 12.4422L0.509766 8.44217H3.50977L3.49977 8.45217ZM10.4998 4.45217H11.5098L11.4998 8.81217L14.7198 10.9122L14.1198 11.8422L10.4998 9.45218V4.45217Z" fill="#BABFC4"/>
</svg>
