<svg width="465" height="433" viewBox="0 0 465 433" fill="none" xmlns="http://www.w3.org/2000/svg">
<g filter="url(#filter0_d_15_4)">
<rect x="32" y="69" width="368" height="328" fill="white"/>
</g>
<g filter="url(#filter1_d_15_4)">
<rect x="65" y="28" width="368" height="328" fill="white"/>
</g>
<g clip-path="url(#clip0_15_4)">
<path d="M125.266 269.443C125.266 270.967 119.874 272.191 113.226 272.191C106.577 272.191 101.191 270.967 101.191 269.443C101.191 267.919 106.582 266.69 113.226 266.69C119.869 266.69 125.266 267.919 125.266 269.443Z" fill="#EBEBEB"/>
<path d="M113.226 272.46C107.269 272.46 100.936 271.409 100.936 269.458C100.936 267.507 107.269 266.451 113.226 266.451C119.182 266.451 125.52 267.502 125.52 269.458C125.52 271.414 119.187 272.46 113.226 272.46ZM113.226 266.959C106.282 266.959 101.445 268.274 101.445 269.458C101.445 270.642 106.282 271.952 113.226 271.952C120.17 271.952 125.011 270.637 125.011 269.458C125.011 268.28 120.17 266.959 113.226 266.959Z" fill="#EBEBEB"/>
<path d="M184.132 130.286H140.981V262.189H184.132V130.286Z" fill="#EBEBEB"/>
<path d="M218.104 130.286H184V261.767H218.104V130.286Z" fill="#F5F5F5"/>
<path d="M179.901 151.399H143.298V161.681H179.901V151.399Z" fill="#E0E0E0"/>
<path d="M146.373 152.689H144.321V160.558H146.373V152.689Z" fill="#F5F5F5"/>
<path d="M148.134 154.996C148.494 154.996 148.786 154.704 148.786 154.345C148.786 153.986 148.494 153.695 148.134 153.695C147.774 153.695 147.482 153.986 147.482 154.345C147.482 154.704 147.774 154.996 148.134 154.996Z" fill="#FAFAFA"/>
<path d="M148.134 157.774C148.494 157.774 148.786 157.483 148.786 157.124C148.786 156.765 148.494 156.474 148.134 156.474C147.774 156.474 147.482 156.765 147.482 157.124C147.482 157.483 147.774 157.774 148.134 157.774Z" fill="#FAFAFA"/>
<path d="M153.403 153.695H151.387V159.74H153.403V153.695Z" fill="#F5F5F5"/>
<path d="M156.315 153.695H154.299V159.74H156.315V153.695Z" fill="#F5F5F5"/>
<path d="M159.222 153.695H157.206V159.74H159.222V153.695Z" fill="#F5F5F5"/>
<path d="M162.134 153.695H160.118V159.74H162.134V153.695Z" fill="#F5F5F5"/>
<path d="M165.041 153.695H163.025V159.74H165.041V153.695Z" fill="#F5F5F5"/>
<path d="M167.953 153.695H165.937V159.74H167.953V153.695Z" fill="#F5F5F5"/>
<path d="M170.86 153.695H168.844V159.74H170.86V153.695Z" fill="#F5F5F5"/>
<path d="M173.772 153.695H171.756V159.74H173.772V153.695Z" fill="#F5F5F5"/>
<path d="M176.679 153.695H174.663V159.74H176.679V153.695Z" fill="#F5F5F5"/>
<path d="M179.591 153.695H177.575V159.74H179.591V153.695Z" fill="#F5F5F5"/>
<path d="M179.901 167.868H143.298V178.15H179.901V167.868Z" fill="#E0E0E0"/>
<path d="M146.373 169.164H144.321V177.033H146.373V169.164Z" fill="#F5F5F5"/>
<path d="M148.134 171.465C148.494 171.465 148.786 171.174 148.786 170.815C148.786 170.456 148.494 170.164 148.134 170.164C147.774 170.164 147.482 170.456 147.482 170.815C147.482 171.174 147.774 171.465 148.134 171.465Z" fill="#FAFAFA"/>
<path d="M148.134 174.249C148.494 174.249 148.786 173.958 148.786 173.599C148.786 173.239 148.494 172.948 148.134 172.948C147.774 172.948 147.482 173.239 147.482 173.599C147.482 173.958 147.774 174.249 148.134 174.249Z" fill="#FAFAFA"/>
<path d="M153.403 170.164H151.387V176.21H153.403V170.164Z" fill="#F5F5F5"/>
<path d="M156.315 170.164H154.299V176.21H156.315V170.164Z" fill="#F5F5F5"/>
<path d="M159.222 170.164H157.206V176.21H159.222V170.164Z" fill="#F5F5F5"/>
<path d="M162.134 170.164H160.118V176.21H162.134V170.164Z" fill="#F5F5F5"/>
<path d="M165.041 170.164H163.025V176.21H165.041V170.164Z" fill="#F5F5F5"/>
<path d="M167.953 170.164H165.937V176.21H167.953V170.164Z" fill="#F5F5F5"/>
<path d="M170.86 170.164H168.844V176.21H170.86V170.164Z" fill="#F5F5F5"/>
<path d="M173.772 170.164H171.756V176.21H173.772V170.164Z" fill="#F5F5F5"/>
<path d="M176.679 170.164H174.663V176.21H176.679V170.164Z" fill="#F5F5F5"/>
<path d="M179.591 170.164H177.575V176.21H179.591V170.164Z" fill="#F5F5F5"/>
<path d="M179.901 184.338H143.298V194.62H179.901V184.338Z" fill="#E0E0E0"/>
<path d="M146.373 185.633H144.321V193.502H146.373V185.633Z" fill="#F5F5F5"/>
<path d="M148.134 187.939C148.494 187.939 148.786 187.648 148.786 187.289C148.786 186.93 148.494 186.639 148.134 186.639C147.774 186.639 147.482 186.93 147.482 187.289C147.482 187.648 147.774 187.939 148.134 187.939Z" fill="#FAFAFA"/>
<path d="M148.786 190.068C148.786 190.196 148.748 190.322 148.676 190.429C148.604 190.536 148.503 190.619 148.384 190.669C148.264 190.718 148.133 190.731 148.007 190.706C147.881 190.681 147.764 190.619 147.673 190.528C147.582 190.437 147.52 190.321 147.495 190.195C147.47 190.069 147.483 189.938 147.532 189.819C147.581 189.7 147.665 189.599 147.772 189.527C147.879 189.456 148.005 189.418 148.134 189.418C148.307 189.418 148.473 189.486 148.595 189.608C148.717 189.73 148.786 189.895 148.786 190.068Z" fill="#FAFAFA"/>
<path d="M153.403 186.639H151.387V192.684H153.403V186.639Z" fill="#F5F5F5"/>
<path d="M156.315 186.639H154.299V192.684H156.315V186.639Z" fill="#F5F5F5"/>
<path d="M159.222 186.639H157.206V192.684H159.222V186.639Z" fill="#F5F5F5"/>
<path d="M162.134 186.639H160.118V192.684H162.134V186.639Z" fill="#F5F5F5"/>
<path d="M165.041 186.639H163.025V192.684H165.041V186.639Z" fill="#F5F5F5"/>
<path d="M167.953 186.639H165.937V192.684H167.953V186.639Z" fill="#F5F5F5"/>
<path d="M170.86 186.639H168.844V192.684H170.86V186.639Z" fill="#F5F5F5"/>
<path d="M173.772 186.639H171.756V192.684H173.772V186.639Z" fill="#F5F5F5"/>
<path d="M176.679 186.639H174.663V192.684H176.679V186.639Z" fill="#F5F5F5"/>
<path d="M179.591 186.639H177.575V192.684H179.591V186.639Z" fill="#F5F5F5"/>
<path d="M179.901 200.812H143.298V211.094H179.901V200.812Z" fill="#E0E0E0"/>
<path d="M146.373 202.102H144.321V209.971H146.373V202.102Z" fill="#F5F5F5"/>
<path d="M148.134 204.409C148.494 204.409 148.786 204.118 148.786 203.758C148.786 203.399 148.494 203.108 148.134 203.108C147.774 203.108 147.482 203.399 147.482 203.758C147.482 204.118 147.774 204.409 148.134 204.409Z" fill="#FAFAFA"/>
<path d="M148.786 206.542C148.786 206.628 148.769 206.712 148.736 206.791C148.703 206.87 148.655 206.942 148.595 207.002C148.534 207.062 148.463 207.11 148.384 207.143C148.304 207.176 148.22 207.193 148.134 207.193C148.049 207.193 147.964 207.176 147.885 207.143C147.806 207.11 147.734 207.062 147.673 207.002C147.613 206.942 147.565 206.87 147.532 206.791C147.499 206.712 147.482 206.628 147.482 206.542C147.482 206.457 147.499 206.372 147.532 206.293C147.565 206.215 147.613 206.143 147.673 206.083C147.734 206.022 147.806 205.974 147.885 205.942C147.964 205.909 148.049 205.892 148.134 205.892C148.22 205.892 148.304 205.909 148.384 205.942C148.463 205.974 148.534 206.022 148.595 206.083C148.655 206.143 148.703 206.215 148.736 206.293C148.769 206.372 148.786 206.457 148.786 206.542Z" fill="#FAFAFA"/>
<path d="M153.403 203.108H151.387V209.153H153.403V203.108Z" fill="#F5F5F5"/>
<path d="M156.315 203.108H154.299V209.153H156.315V203.108Z" fill="#F5F5F5"/>
<path d="M159.222 203.108H157.206V209.153H159.222V203.108Z" fill="#F5F5F5"/>
<path d="M162.134 203.108H160.118V209.153H162.134V203.108Z" fill="#F5F5F5"/>
<path d="M165.041 203.108H163.025V209.153H165.041V203.108Z" fill="#F5F5F5"/>
<path d="M167.953 203.108H165.937V209.153H167.953V203.108Z" fill="#F5F5F5"/>
<path d="M170.86 203.108H168.844V209.153H170.86V203.108Z" fill="#F5F5F5"/>
<path d="M173.772 203.108H171.756V209.153H173.772V203.108Z" fill="#F5F5F5"/>
<path d="M176.679 203.108H174.663V209.153H176.679V203.108Z" fill="#F5F5F5"/>
<path d="M179.591 203.108H177.575V209.153H179.591V203.108Z" fill="#F5F5F5"/>
<path d="M179.901 217.281H143.298V227.563H179.901V217.281Z" fill="#E0E0E0"/>
<path d="M146.373 218.577H144.321V226.446H146.373V218.577Z" fill="#F5F5F5"/>
<path d="M148.134 220.883C148.494 220.883 148.786 220.592 148.786 220.233C148.786 219.874 148.494 219.583 148.134 219.583C147.774 219.583 147.482 219.874 147.482 220.233C147.482 220.592 147.774 220.883 148.134 220.883Z" fill="#FAFAFA"/>
<path d="M148.786 223.012C148.786 223.14 148.748 223.266 148.676 223.373C148.604 223.48 148.503 223.563 148.384 223.612C148.264 223.662 148.133 223.675 148.007 223.649C147.881 223.624 147.764 223.562 147.673 223.471C147.582 223.381 147.52 223.265 147.495 223.139C147.47 223.012 147.483 222.882 147.532 222.763C147.581 222.644 147.665 222.542 147.772 222.471C147.879 222.4 148.005 222.361 148.134 222.361C148.307 222.361 148.473 222.43 148.595 222.552C148.717 222.674 148.786 222.839 148.786 223.012Z" fill="#FAFAFA"/>
<path d="M153.403 219.583H151.387V225.628H153.403V219.583Z" fill="#F5F5F5"/>
<path d="M156.315 219.583H154.299V225.628H156.315V219.583Z" fill="#F5F5F5"/>
<path d="M159.222 219.583H157.206V225.628H159.222V219.583Z" fill="#F5F5F5"/>
<path d="M162.134 219.583H160.118V225.628H162.134V219.583Z" fill="#F5F5F5"/>
<path d="M165.041 219.583H163.025V225.628H165.041V219.583Z" fill="#F5F5F5"/>
<path d="M167.953 219.583H165.937V225.628H167.953V219.583Z" fill="#F5F5F5"/>
<path d="M170.86 219.583H168.844V225.628H170.86V219.583Z" fill="#F5F5F5"/>
<path d="M173.772 219.583H171.756V225.628H173.772V219.583Z" fill="#F5F5F5"/>
<path d="M176.679 219.583H174.663V225.628H176.679V219.583Z" fill="#F5F5F5"/>
<path d="M179.591 219.583H177.575V225.628H179.591V219.583Z" fill="#F5F5F5"/>
<path d="M179.901 233.751H143.298V244.033H179.901V233.751Z" fill="#E0E0E0"/>
<path d="M146.373 235.046H144.321V242.915H146.373V235.046Z" fill="#F5F5F5"/>
<path d="M148.134 237.353C148.494 237.353 148.786 237.061 148.786 236.702C148.786 236.343 148.494 236.052 148.134 236.052C147.774 236.052 147.482 236.343 147.482 236.702C147.482 237.061 147.774 237.353 148.134 237.353Z" fill="#FAFAFA"/>
<path d="M148.786 239.471C148.786 239.599 148.748 239.725 148.676 239.832C148.604 239.939 148.503 240.022 148.384 240.072C148.264 240.121 148.133 240.134 148.007 240.109C147.881 240.084 147.764 240.022 147.673 239.931C147.582 239.84 147.52 239.724 147.495 239.598C147.47 239.472 147.483 239.341 147.532 239.222C147.581 239.103 147.665 239.002 147.772 238.93C147.879 238.859 148.005 238.821 148.134 238.821C148.307 238.821 148.473 238.889 148.595 239.011C148.717 239.133 148.786 239.298 148.786 239.471Z" fill="#FAFAFA"/>
<path d="M153.403 236.052H151.387V242.097H153.403V236.052Z" fill="#F5F5F5"/>
<path d="M156.315 236.052H154.299V242.097H156.315V236.052Z" fill="#F5F5F5"/>
<path d="M159.222 236.052H157.206V242.097H159.222V236.052Z" fill="#F5F5F5"/>
<path d="M162.134 236.052H160.118V242.097H162.134V236.052Z" fill="#F5F5F5"/>
<path d="M165.041 236.052H163.025V242.097H165.041V236.052Z" fill="#F5F5F5"/>
<path d="M167.953 236.052H165.937V242.097H167.953V236.052Z" fill="#F5F5F5"/>
<path d="M170.86 236.052H168.844V242.097H170.86V236.052Z" fill="#F5F5F5"/>
<path d="M173.772 236.052H171.756V242.097H173.772V236.052Z" fill="#F5F5F5"/>
<path d="M176.679 236.052H174.663V242.097H176.679V236.052Z" fill="#F5F5F5"/>
<path d="M179.591 236.052H177.575V242.097H179.591V236.052Z" fill="#F5F5F5"/>
<path d="M179.901 250.225H143.298V260.507H179.901V250.225Z" fill="#E0E0E0"/>
<path d="M146.373 251.516H144.321V259.384H146.373V251.516Z" fill="#F5F5F5"/>
<path d="M148.134 253.822C148.494 253.822 148.786 253.531 148.786 253.172C148.786 252.813 148.494 252.521 148.134 252.521C147.774 252.521 147.482 252.813 147.482 253.172C147.482 253.531 147.774 253.822 148.134 253.822Z" fill="#FAFAFA"/>
<path d="M148.786 255.955C148.786 256.128 148.717 256.293 148.595 256.415C148.473 256.537 148.307 256.606 148.134 256.606C147.961 256.606 147.796 256.537 147.673 256.415C147.551 256.293 147.482 256.128 147.482 255.955C147.482 255.783 147.551 255.618 147.673 255.496C147.796 255.374 147.961 255.305 148.134 255.305C148.307 255.305 148.473 255.374 148.595 255.496C148.717 255.618 148.786 255.783 148.786 255.955Z" fill="#FAFAFA"/>
<path d="M153.403 252.521H151.387V258.567H153.403V252.521Z" fill="#F5F5F5"/>
<path d="M156.315 252.521H154.299V258.567H156.315V252.521Z" fill="#F5F5F5"/>
<path d="M159.222 252.521H157.206V258.567H159.222V252.521Z" fill="#F5F5F5"/>
<path d="M162.134 252.521H160.118V258.567H162.134V252.521Z" fill="#F5F5F5"/>
<path d="M165.041 252.521H163.025V258.567H165.041V252.521Z" fill="#F5F5F5"/>
<path d="M167.953 252.521H165.937V258.567H167.953V252.521Z" fill="#F5F5F5"/>
<path d="M170.86 252.521H168.844V258.567H170.86V252.521Z" fill="#F5F5F5"/>
<path d="M173.772 252.521H171.756V258.567H173.772V252.521Z" fill="#F5F5F5"/>
<path d="M176.679 252.521H174.663V258.567H176.679V252.521Z" fill="#F5F5F5"/>
<path d="M179.591 252.521H177.575V258.567H179.591V252.521Z" fill="#F5F5F5"/>
<path d="M165.937 151.399C165.91 151.294 165.896 151.187 165.896 151.079C165.896 150.871 165.866 150.571 165.856 150.164C165.845 149.758 165.856 149.286 165.81 148.722C165.79 148.092 165.705 147.465 165.555 146.852C165.348 146.124 165.018 145.437 164.578 144.82C164.082 144.102 163.387 143.544 162.577 143.215C161.665 142.881 160.707 142.685 159.736 142.636L156.585 142.367C152.263 141.991 148.348 141.752 145.507 141.696C144.087 141.666 142.962 141.696 142.142 141.696H141.231C141.124 141.704 141.017 141.704 140.91 141.696C141.013 141.669 141.119 141.655 141.226 141.655L142.142 141.6C142.936 141.564 144.087 141.528 145.507 141.534C148.358 141.534 152.283 141.752 156.605 142.128L159.762 142.407C160.758 142.459 161.74 142.663 162.674 143.012C163.52 143.367 164.245 143.96 164.761 144.719C165.209 145.366 165.539 146.086 165.738 146.847C165.882 147.476 165.955 148.118 165.957 148.762C165.957 149.331 165.957 149.814 165.957 150.21C165.957 150.606 165.957 150.886 165.957 151.125C165.959 151.216 165.952 151.308 165.937 151.399Z" fill="#E0E0E0"/>
<path d="M154.834 151.399C154.812 151.301 154.803 151.2 154.808 151.099C154.808 150.871 154.808 150.591 154.808 150.236C154.808 149.88 154.808 149.408 154.763 148.884C154.732 148.296 154.58 147.719 154.314 147.193C153.918 146.604 153.338 146.161 152.665 145.933C151.901 145.635 151.07 145.551 150.262 145.689C149.828 145.76 149.408 145.903 149.02 146.111C148.621 146.316 148.287 146.629 148.058 147.015C147.948 147.21 147.89 147.431 147.89 147.655C147.89 147.879 147.948 148.1 148.058 148.295C148.173 148.497 148.329 148.673 148.516 148.813C148.702 148.953 148.915 149.053 149.142 149.108C149.368 149.158 149.603 149.151 149.825 149.087C150.048 149.023 150.25 148.905 150.415 148.742C150.745 148.43 150.947 148.007 150.983 147.555C151.019 147.103 150.885 146.653 150.608 146.294C150.359 145.937 150.027 145.646 149.641 145.445C149.263 145.27 148.856 145.165 148.44 145.135C148.027 145.074 147.625 145.018 147.233 144.973C146.454 144.886 145.706 144.836 145.059 144.81C143.73 144.754 142.646 144.775 141.898 144.775H141.037C140.938 144.787 140.837 144.787 140.737 144.775C140.835 144.751 140.936 144.739 141.037 144.739L141.898 144.693C142.646 144.663 143.725 144.617 145.069 144.648C145.736 144.648 146.474 144.703 147.258 144.78C147.65 144.82 148.058 144.871 148.47 144.927C148.679 144.963 148.888 144.988 149.107 145.029C149.332 145.07 149.55 145.145 149.753 145.252C150.175 145.469 150.538 145.785 150.812 146.172C151.129 146.579 151.283 147.09 151.243 147.605C151.204 148.119 150.974 148.601 150.598 148.955C150.401 149.151 150.158 149.294 149.891 149.37C149.624 149.447 149.342 149.454 149.071 149.392C148.807 149.33 148.56 149.213 148.343 149.051C148.127 148.888 147.947 148.683 147.813 148.447C147.683 148.215 147.614 147.952 147.614 147.685C147.614 147.419 147.683 147.156 147.813 146.923C148.064 146.489 148.435 146.136 148.882 145.907C149.297 145.69 149.744 145.543 150.206 145.471C151.064 145.326 151.945 145.423 152.752 145.75C153.465 146.002 154.074 146.485 154.483 147.122C154.755 147.674 154.903 148.279 154.915 148.894C154.938 149.35 154.938 149.806 154.915 150.261C154.915 150.606 154.89 150.891 154.88 151.12C154.871 151.214 154.855 151.307 154.834 151.399Z" fill="#E0E0E0"/>
<path d="M168.925 151.399C168.892 151.295 168.868 151.187 168.854 151.079C168.818 150.855 168.752 150.525 168.661 150.104C168.413 148.91 168.052 147.743 167.581 146.619C166.915 144.943 165.815 143.474 164.394 142.362C163.538 141.743 162.534 141.361 161.482 141.254C160.343 141.13 159.197 141.069 158.051 141.071C153.322 140.985 149.035 141 145.93 140.878C144.402 140.822 143.125 140.746 142.259 140.685L141.241 140.599C141.125 140.593 141.009 140.578 140.895 140.553C141.01 140.538 141.126 140.538 141.241 140.553L142.259 140.589C143.13 140.619 144.382 140.665 145.93 140.695C149.03 140.772 153.317 140.726 158.051 140.812C159.208 140.809 160.364 140.873 161.513 141.005C162.607 141.12 163.651 141.524 164.537 142.174C165.327 142.768 166.015 143.487 166.573 144.302C167.048 145.009 167.447 145.763 167.765 146.553C168.228 147.699 168.57 148.891 168.783 150.109C168.859 150.535 168.905 150.871 168.93 151.094C168.936 151.196 168.934 151.298 168.925 151.399Z" fill="#E0E0E0"/>
<path d="M179.397 131.927H143.802V137.083H179.397V131.927Z" fill="#E0E0E0"/>
<path d="M171.013 134.508H151.632V137.089H171.013V134.508Z" fill="#F5F5F5"/>
<path d="M319.413 130.286H276.262V262.189H319.413V130.286Z" fill="#EBEBEB"/>
<path d="M353.384 130.286H319.28V261.767H353.384V130.286Z" fill="#F5F5F5"/>
<path d="M315.182 151.399H278.578V161.681H315.182V151.399Z" fill="#E0E0E0"/>
<path d="M281.653 152.689H279.602V160.558H281.653V152.689Z" fill="#F5F5F5"/>
<path d="M283.415 154.996C283.775 154.996 284.066 154.704 284.066 154.345C284.066 153.986 283.775 153.695 283.415 153.695C283.055 153.695 282.763 153.986 282.763 154.345C282.763 154.704 283.055 154.996 283.415 154.996Z" fill="#FAFAFA"/>
<path d="M283.415 157.774C283.775 157.774 284.066 157.483 284.066 157.124C284.066 156.765 283.775 156.474 283.415 156.474C283.055 156.474 282.763 156.765 282.763 157.124C282.763 157.483 283.055 157.774 283.415 157.774Z" fill="#FAFAFA"/>
<path d="M288.684 153.695H286.668V159.74H288.684V153.695Z" fill="#F5F5F5"/>
<path d="M291.596 153.695H289.58V159.74H291.596V153.695Z" fill="#F5F5F5"/>
<path d="M294.503 153.695H292.487V159.74H294.503V153.695Z" fill="#F5F5F5"/>
<path d="M297.415 153.695H295.399V159.74H297.415V153.695Z" fill="#F5F5F5"/>
<path d="M300.322 153.695H298.306V159.74H300.322V153.695Z" fill="#F5F5F5"/>
<path d="M303.234 153.695H301.218V159.74H303.234V153.695Z" fill="#F5F5F5"/>
<path d="M306.141 153.695H304.125V159.74H306.141V153.695Z" fill="#F5F5F5"/>
<path d="M309.053 153.695H307.037V159.74H309.053V153.695Z" fill="#F5F5F5"/>
<path d="M311.96 153.695H309.944V159.74H311.96V153.695Z" fill="#F5F5F5"/>
<path d="M314.872 153.695H312.856V159.74H314.872V153.695Z" fill="#F5F5F5"/>
<path d="M315.182 167.868H278.578V178.15H315.182V167.868Z" fill="#E0E0E0"/>
<path d="M281.653 169.164H279.602V177.033H281.653V169.164Z" fill="#F5F5F5"/>
<path d="M283.415 171.465C283.775 171.465 284.066 171.174 284.066 170.815C284.066 170.456 283.775 170.164 283.415 170.164C283.055 170.164 282.763 170.456 282.763 170.815C282.763 171.174 283.055 171.465 283.415 171.465Z" fill="#FAFAFA"/>
<path d="M283.415 174.249C283.775 174.249 284.066 173.958 284.066 173.599C284.066 173.239 283.775 172.948 283.415 172.948C283.055 172.948 282.763 173.239 282.763 173.599C282.763 173.958 283.055 174.249 283.415 174.249Z" fill="#FAFAFA"/>
<path d="M288.684 170.164H286.668V176.21H288.684V170.164Z" fill="#F5F5F5"/>
<path d="M291.596 170.164H289.58V176.21H291.596V170.164Z" fill="#F5F5F5"/>
<path d="M294.503 170.164H292.487V176.21H294.503V170.164Z" fill="#F5F5F5"/>
<path d="M297.415 170.164H295.399V176.21H297.415V170.164Z" fill="#F5F5F5"/>
<path d="M300.322 170.164H298.306V176.21H300.322V170.164Z" fill="#F5F5F5"/>
<path d="M303.234 170.164H301.218V176.21H303.234V170.164Z" fill="#F5F5F5"/>
<path d="M306.141 170.164H304.125V176.21H306.141V170.164Z" fill="#F5F5F5"/>
<path d="M309.053 170.164H307.037V176.21H309.053V170.164Z" fill="#F5F5F5"/>
<path d="M311.96 170.164H309.944V176.21H311.96V170.164Z" fill="#F5F5F5"/>
<path d="M314.872 170.164H312.856V176.21H314.872V170.164Z" fill="#F5F5F5"/>
<path d="M315.182 184.338H278.578V194.62H315.182V184.338Z" fill="#E0E0E0"/>
<path d="M281.653 185.633H279.602V193.502H281.653V185.633Z" fill="#F5F5F5"/>
<path d="M283.415 187.939C283.775 187.939 284.066 187.648 284.066 187.289C284.066 186.93 283.775 186.639 283.415 186.639C283.055 186.639 282.763 186.93 282.763 187.289C282.763 187.648 283.055 187.939 283.415 187.939Z" fill="#FAFAFA"/>
<path d="M284.066 190.068C284.066 190.196 284.028 190.322 283.957 190.429C283.885 190.536 283.783 190.619 283.664 190.669C283.545 190.718 283.414 190.731 283.288 190.706C283.161 190.681 283.045 190.619 282.954 190.528C282.863 190.437 282.801 190.321 282.776 190.195C282.751 190.069 282.763 189.938 282.813 189.819C282.862 189.7 282.946 189.599 283.053 189.527C283.16 189.456 283.286 189.418 283.415 189.418C283.588 189.418 283.753 189.486 283.876 189.608C283.998 189.73 284.066 189.895 284.066 190.068Z" fill="#FAFAFA"/>
<path d="M288.684 186.639H286.668V192.684H288.684V186.639Z" fill="#F5F5F5"/>
<path d="M291.596 186.639H289.58V192.684H291.596V186.639Z" fill="#F5F5F5"/>
<path d="M294.503 186.639H292.487V192.684H294.503V186.639Z" fill="#F5F5F5"/>
<path d="M297.415 186.639H295.399V192.684H297.415V186.639Z" fill="#F5F5F5"/>
<path d="M300.322 186.639H298.306V192.684H300.322V186.639Z" fill="#F5F5F5"/>
<path d="M303.234 186.639H301.218V192.684H303.234V186.639Z" fill="#F5F5F5"/>
<path d="M306.141 186.639H304.125V192.684H306.141V186.639Z" fill="#F5F5F5"/>
<path d="M309.053 186.639H307.037V192.684H309.053V186.639Z" fill="#F5F5F5"/>
<path d="M311.96 186.639H309.944V192.684H311.96V186.639Z" fill="#F5F5F5"/>
<path d="M314.872 186.639H312.856V192.684H314.872V186.639Z" fill="#F5F5F5"/>
<path d="M315.182 200.812H278.578V211.094H315.182V200.812Z" fill="#E0E0E0"/>
<path d="M281.653 202.102H279.602V209.971H281.653V202.102Z" fill="#F5F5F5"/>
<path d="M283.415 204.409C283.775 204.409 284.066 204.118 284.066 203.758C284.066 203.399 283.775 203.108 283.415 203.108C283.055 203.108 282.763 203.399 282.763 203.758C282.763 204.118 283.055 204.409 283.415 204.409Z" fill="#FAFAFA"/>
<path d="M284.066 206.542C284.066 206.715 283.998 206.88 283.876 207.002C283.753 207.124 283.588 207.193 283.415 207.193C283.242 207.193 283.076 207.124 282.954 207.002C282.832 206.88 282.763 206.715 282.763 206.542C282.763 206.37 282.832 206.204 282.954 206.083C283.076 205.961 283.242 205.892 283.415 205.892C283.588 205.892 283.753 205.961 283.876 206.083C283.998 206.204 284.066 206.37 284.066 206.542Z" fill="#FAFAFA"/>
<path d="M288.684 203.108H286.668V209.153H288.684V203.108Z" fill="#F5F5F5"/>
<path d="M291.596 203.108H289.58V209.153H291.596V203.108Z" fill="#F5F5F5"/>
<path d="M294.503 203.108H292.487V209.153H294.503V203.108Z" fill="#F5F5F5"/>
<path d="M297.415 203.108H295.399V209.153H297.415V203.108Z" fill="#F5F5F5"/>
<path d="M300.322 203.108H298.306V209.153H300.322V203.108Z" fill="#F5F5F5"/>
<path d="M303.234 203.108H301.218V209.153H303.234V203.108Z" fill="#F5F5F5"/>
<path d="M306.141 203.108H304.125V209.153H306.141V203.108Z" fill="#F5F5F5"/>
<path d="M309.053 203.108H307.037V209.153H309.053V203.108Z" fill="#F5F5F5"/>
<path d="M311.96 203.108H309.944V209.153H311.96V203.108Z" fill="#F5F5F5"/>
<path d="M314.872 203.108H312.856V209.153H314.872V203.108Z" fill="#F5F5F5"/>
<path d="M315.182 217.281H278.578V227.563H315.182V217.281Z" fill="#E0E0E0"/>
<path d="M281.653 218.577H279.602V226.446H281.653V218.577Z" fill="#F5F5F5"/>
<path d="M283.415 220.883C283.775 220.883 284.066 220.592 284.066 220.233C284.066 219.874 283.775 219.583 283.415 219.583C283.055 219.583 282.763 219.874 282.763 220.233C282.763 220.592 283.055 220.883 283.415 220.883Z" fill="#FAFAFA"/>
<path d="M284.066 223.012C284.066 223.14 284.028 223.266 283.957 223.373C283.885 223.48 283.783 223.563 283.664 223.612C283.545 223.662 283.414 223.675 283.288 223.649C283.161 223.624 283.045 223.562 282.954 223.471C282.863 223.381 282.801 223.265 282.776 223.139C282.751 223.012 282.763 222.882 282.813 222.763C282.862 222.644 282.946 222.542 283.053 222.471C283.16 222.4 283.286 222.361 283.415 222.361C283.588 222.361 283.753 222.43 283.876 222.552C283.998 222.674 284.066 222.839 284.066 223.012Z" fill="#FAFAFA"/>
<path d="M288.684 219.583H286.668V225.628H288.684V219.583Z" fill="#F5F5F5"/>
<path d="M291.596 219.583H289.58V225.628H291.596V219.583Z" fill="#F5F5F5"/>
<path d="M294.503 219.583H292.487V225.628H294.503V219.583Z" fill="#F5F5F5"/>
<path d="M297.415 219.583H295.399V225.628H297.415V219.583Z" fill="#F5F5F5"/>
<path d="M300.322 219.583H298.306V225.628H300.322V219.583Z" fill="#F5F5F5"/>
<path d="M303.234 219.583H301.218V225.628H303.234V219.583Z" fill="#F5F5F5"/>
<path d="M306.141 219.583H304.125V225.628H306.141V219.583Z" fill="#F5F5F5"/>
<path d="M309.053 219.583H307.037V225.628H309.053V219.583Z" fill="#F5F5F5"/>
<path d="M311.96 219.583H309.944V225.628H311.96V219.583Z" fill="#F5F5F5"/>
<path d="M314.872 219.583H312.856V225.628H314.872V219.583Z" fill="#F5F5F5"/>
<path d="M315.182 233.751H278.578V244.033H315.182V233.751Z" fill="#E0E0E0"/>
<path d="M281.653 235.046H279.602V242.915H281.653V235.046Z" fill="#F5F5F5"/>
<path d="M283.415 237.353C283.775 237.353 284.066 237.061 284.066 236.702C284.066 236.343 283.775 236.052 283.415 236.052C283.055 236.052 282.763 236.343 282.763 236.702C282.763 237.061 283.055 237.353 283.415 237.353Z" fill="#FAFAFA"/>
<path d="M284.066 239.471C284.066 239.599 284.028 239.725 283.957 239.832C283.885 239.939 283.783 240.022 283.664 240.072C283.545 240.121 283.414 240.134 283.288 240.109C283.161 240.084 283.045 240.022 282.954 239.931C282.863 239.84 282.801 239.724 282.776 239.598C282.751 239.472 282.763 239.341 282.813 239.222C282.862 239.103 282.946 239.002 283.053 238.93C283.16 238.859 283.286 238.821 283.415 238.821C283.588 238.821 283.753 238.889 283.876 239.011C283.998 239.133 284.066 239.298 284.066 239.471Z" fill="#FAFAFA"/>
<path d="M288.684 236.052H286.668V242.097H288.684V236.052Z" fill="#F5F5F5"/>
<path d="M291.596 236.052H289.58V242.097H291.596V236.052Z" fill="#F5F5F5"/>
<path d="M294.503 236.052H292.487V242.097H294.503V236.052Z" fill="#F5F5F5"/>
<path d="M297.415 236.052H295.399V242.097H297.415V236.052Z" fill="#F5F5F5"/>
<path d="M300.322 236.052H298.306V242.097H300.322V236.052Z" fill="#F5F5F5"/>
<path d="M303.234 236.052H301.218V242.097H303.234V236.052Z" fill="#F5F5F5"/>
<path d="M306.141 236.052H304.125V242.097H306.141V236.052Z" fill="#F5F5F5"/>
<path d="M309.053 236.052H307.037V242.097H309.053V236.052Z" fill="#F5F5F5"/>
<path d="M311.96 236.052H309.944V242.097H311.96V236.052Z" fill="#F5F5F5"/>
<path d="M314.872 236.052H312.856V242.097H314.872V236.052Z" fill="#F5F5F5"/>
<path d="M315.182 250.225H278.578V260.507H315.182V250.225Z" fill="#E0E0E0"/>
<path d="M281.653 251.516H279.602V259.384H281.653V251.516Z" fill="#F5F5F5"/>
<path d="M283.415 253.822C283.775 253.822 284.066 253.531 284.066 253.172C284.066 252.813 283.775 252.521 283.415 252.521C283.055 252.521 282.763 252.813 282.763 253.172C282.763 253.531 283.055 253.822 283.415 253.822Z" fill="#FAFAFA"/>
<path d="M284.066 255.955C284.066 256.128 283.998 256.293 283.876 256.415C283.753 256.537 283.588 256.606 283.415 256.606C283.242 256.606 283.076 256.537 282.954 256.415C282.832 256.293 282.763 256.128 282.763 255.955C282.763 255.783 282.832 255.618 282.954 255.496C283.076 255.374 283.242 255.305 283.415 255.305C283.588 255.305 283.753 255.374 283.876 255.496C283.998 255.618 284.066 255.783 284.066 255.955Z" fill="#FAFAFA"/>
<path d="M288.684 252.521H286.668V258.567H288.684V252.521Z" fill="#F5F5F5"/>
<path d="M291.596 252.521H289.58V258.567H291.596V252.521Z" fill="#F5F5F5"/>
<path d="M294.503 252.521H292.487V258.567H294.503V252.521Z" fill="#F5F5F5"/>
<path d="M297.415 252.521H295.399V258.567H297.415V252.521Z" fill="#F5F5F5"/>
<path d="M300.322 252.521H298.306V258.567H300.322V252.521Z" fill="#F5F5F5"/>
<path d="M303.234 252.521H301.218V258.567H303.234V252.521Z" fill="#F5F5F5"/>
<path d="M306.141 252.521H304.125V258.567H306.141V252.521Z" fill="#F5F5F5"/>
<path d="M309.053 252.521H307.037V258.567H309.053V252.521Z" fill="#F5F5F5"/>
<path d="M311.96 252.521H309.944V258.567H311.96V252.521Z" fill="#F5F5F5"/>
<path d="M314.872 252.521H312.856V258.567H314.872V252.521Z" fill="#F5F5F5"/>
<path d="M301.218 151.399C301.191 151.294 301.177 151.187 301.177 151.079C301.177 150.871 301.146 150.571 301.136 150.164C301.126 149.758 301.136 149.286 301.09 148.722C301.071 148.092 300.985 147.465 300.836 146.852C300.629 146.124 300.299 145.437 299.858 144.82C299.361 144.103 298.666 143.545 297.858 143.215C296.945 142.881 295.988 142.685 295.017 142.636L291.866 142.367C287.544 141.991 283.629 141.752 280.788 141.696C279.368 141.666 278.217 141.696 277.423 141.696H276.512C276.405 141.704 276.298 141.704 276.191 141.696C276.294 141.669 276.4 141.655 276.506 141.655L277.423 141.6C278.217 141.564 279.368 141.528 280.788 141.534C283.634 141.534 287.564 141.752 291.886 142.128L295.042 142.407C296.038 142.459 297.021 142.663 297.954 143.012C298.801 143.367 299.526 143.96 300.042 144.719C300.489 145.366 300.82 146.086 301.019 146.847C301.162 147.476 301.236 148.118 301.238 148.762C301.238 149.331 301.238 149.814 301.238 150.21C301.238 150.606 301.238 150.886 301.238 151.125C301.239 151.216 301.233 151.308 301.218 151.399Z" fill="#E0E0E0"/>
<path d="M290.109 151.399C290.101 151.299 290.101 151.199 290.109 151.099C290.109 150.871 290.109 150.591 290.109 150.236C290.109 149.88 290.109 149.408 290.064 148.884C290.034 148.296 289.881 147.719 289.616 147.193C289.219 146.604 288.639 146.161 287.966 145.933C287.201 145.635 286.368 145.551 285.558 145.689C285.125 145.761 284.708 145.903 284.321 146.111C283.92 146.314 283.587 146.628 283.359 147.015C283.249 147.21 283.191 147.431 283.191 147.655C283.191 147.879 283.249 148.1 283.359 148.295C283.475 148.497 283.63 148.673 283.817 148.813C284.003 148.953 284.217 149.053 284.443 149.108C284.669 149.158 284.904 149.151 285.126 149.087C285.349 149.023 285.552 148.905 285.716 148.742C286.046 148.43 286.248 148.007 286.284 147.555C286.32 147.103 286.186 146.653 285.909 146.294C285.66 145.937 285.328 145.646 284.942 145.445C284.564 145.27 284.157 145.165 283.741 145.135C283.323 145.074 282.926 145.018 282.534 144.973C281.755 144.886 281.007 144.836 280.36 144.81C279.032 144.754 277.947 144.775 277.199 144.775H276.339C276.239 144.787 276.138 144.787 276.038 144.775C276.136 144.751 276.237 144.739 276.339 144.739L277.199 144.693C277.947 144.663 279.027 144.617 280.371 144.648C281.037 144.648 281.776 144.703 282.56 144.78C282.952 144.82 283.354 144.871 283.771 144.927C283.98 144.963 284.189 144.988 284.408 145.029C284.633 145.07 284.851 145.145 285.054 145.252C285.476 145.469 285.839 145.785 286.113 146.172C286.423 146.573 286.577 147.073 286.546 147.579C286.507 148.101 286.277 148.591 285.899 148.955C285.702 149.151 285.459 149.294 285.192 149.37C284.925 149.447 284.643 149.454 284.372 149.392C284.108 149.329 283.86 149.212 283.643 149.05C283.426 148.887 283.244 148.682 283.109 148.447C282.98 148.214 282.912 147.952 282.912 147.685C282.912 147.419 282.98 147.157 283.109 146.923C283.36 146.489 283.731 146.136 284.179 145.907C284.591 145.691 285.037 145.543 285.497 145.471C286.355 145.327 287.236 145.424 288.043 145.75C288.756 146.002 289.365 146.485 289.773 147.122C290.046 147.674 290.194 148.279 290.206 148.894C290.229 149.35 290.229 149.806 290.206 150.261C290.206 150.606 290.181 150.891 290.171 151.12C290.161 151.215 290.141 151.309 290.109 151.399Z" fill="#E0E0E0"/>
<path d="M304.206 151.399C304.168 151.288 304.141 151.174 304.125 151.059C304.084 150.835 304.023 150.505 303.931 150.083C303.682 148.89 303.319 147.723 302.847 146.598C302.19 144.926 301.101 143.457 299.69 142.341C298.834 141.723 297.83 141.341 296.778 141.234C295.639 141.11 294.493 141.049 293.347 141.051C288.618 140.965 284.326 140.98 281.226 140.858C279.699 140.802 278.421 140.726 277.555 140.665L276.537 140.579C276.421 140.573 276.305 140.558 276.191 140.533C276.306 140.517 276.422 140.517 276.537 140.533L277.555 140.568C278.426 140.599 279.678 140.645 281.226 140.675C284.326 140.751 288.613 140.706 293.347 140.792C294.504 140.789 295.66 140.853 296.809 140.985C297.903 141.1 298.947 141.503 299.833 142.153C300.623 142.748 301.311 143.467 301.869 144.282C302.344 144.989 302.743 145.743 303.061 146.532C303.524 147.679 303.866 148.871 304.079 150.088C304.155 150.515 304.201 150.85 304.226 151.074C304.228 151.183 304.221 151.291 304.206 151.399Z" fill="#E0E0E0"/>
<path d="M314.678 131.927H279.082V137.083H314.678V131.927Z" fill="#E0E0E0"/>
<path d="M306.293 134.508H286.912V137.089H306.293V134.508Z" fill="#F5F5F5"/>
<path d="M415.407 262.026C415.407 262.097 343.401 262.158 254.591 262.158C165.78 262.158 93.7586 262.097 93.7586 262.026C93.7586 261.955 165.754 261.894 254.591 261.894C343.427 261.894 415.407 261.95 415.407 262.026Z" fill="#263238"/>
<path d="M238.451 111.567H189.268V261.909H238.451V111.567Z" fill="#EBEBEB"/>
<path d="M277.259 111.567H238.385V261.427H277.259V111.567Z" fill="#E0E0E0"/>
<path d="M233.712 186.431H191.992V198.15H233.712V186.431Z" fill="#263238"/>
<path d="M233.712 135.626H191.992V147.345H233.712V135.626Z" fill="#263238"/>
<path d="M195.494 137.099H193.158V146.07H195.494V137.099Z" fill="#455A64"/>
<path d="M198.243 138.989C198.243 139.135 198.2 139.279 198.118 139.401C198.036 139.523 197.92 139.618 197.785 139.674C197.649 139.73 197.499 139.745 197.355 139.716C197.211 139.687 197.079 139.617 196.975 139.513C196.871 139.409 196.8 139.277 196.771 139.133C196.742 138.989 196.757 138.84 196.813 138.705C196.87 138.569 196.965 138.453 197.087 138.372C197.209 138.29 197.353 138.247 197.5 138.247C197.697 138.247 197.886 138.325 198.026 138.464C198.165 138.603 198.243 138.792 198.243 138.989Z" fill="white"/>
<path d="M198.243 142.158C198.243 142.305 198.2 142.448 198.118 142.57C198.036 142.692 197.92 142.787 197.785 142.844C197.649 142.9 197.499 142.914 197.355 142.886C197.211 142.857 197.079 142.787 196.975 142.683C196.871 142.579 196.8 142.447 196.771 142.303C196.742 142.159 196.757 142.01 196.813 141.875C196.87 141.739 196.965 141.623 197.087 141.542C197.209 141.46 197.353 141.417 197.5 141.417C197.598 141.417 197.694 141.436 197.785 141.473C197.875 141.51 197.957 141.565 198.026 141.634C198.095 141.703 198.149 141.785 198.187 141.875C198.224 141.965 198.243 142.061 198.243 142.158Z" fill="white"/>
<path d="M203.507 138.247H201.211V145.135H203.507V138.247Z" fill="#455A64"/>
<path d="M206.827 138.247H204.531V145.135H206.827V138.247Z" fill="#455A64"/>
<path d="M210.141 138.247H207.845V145.135H210.141V138.247Z" fill="#455A64"/>
<path d="M213.455 138.247H211.159V145.135H213.455V138.247Z" fill="#455A64"/>
<path d="M216.774 138.247H214.478V145.135H216.774V138.247Z" fill="#455A64"/>
<path d="M220.089 138.247H217.793V145.135H220.089V138.247Z" fill="#455A64"/>
<path d="M223.408 138.247H221.112V145.135H223.408V138.247Z" fill="#455A64"/>
<path d="M226.722 138.247H224.426V145.135H226.722V138.247Z" fill="#455A64"/>
<path d="M230.036 138.247H227.74V145.135H230.036V138.247Z" fill="#455A64"/>
<path d="M233.355 138.247H231.059V145.135H233.355V138.247Z" fill="#455A64"/>
<path d="M233.712 152.466H191.992V164.185H233.712V152.466Z" fill="#263238"/>
<path d="M195.494 153.939H193.158V162.91H195.494V153.939Z" fill="#455A64"/>
<path d="M198.243 155.824C198.244 155.971 198.202 156.114 198.121 156.237C198.04 156.36 197.924 156.456 197.788 156.512C197.652 156.569 197.503 156.585 197.358 156.557C197.214 156.529 197.081 156.458 196.976 156.355C196.872 156.251 196.801 156.119 196.772 155.975C196.742 155.831 196.757 155.682 196.813 155.546C196.869 155.41 196.964 155.294 197.087 155.212C197.209 155.131 197.353 155.087 197.5 155.087C197.696 155.087 197.885 155.164 198.024 155.302C198.163 155.44 198.242 155.628 198.243 155.824Z" fill="white"/>
<path d="M198.243 158.994C198.243 159.14 198.2 159.284 198.118 159.406C198.036 159.528 197.92 159.623 197.785 159.679C197.649 159.735 197.499 159.75 197.355 159.721C197.211 159.692 197.079 159.622 196.975 159.518C196.871 159.414 196.8 159.282 196.771 159.138C196.742 158.994 196.757 158.845 196.813 158.71C196.87 158.574 196.965 158.458 197.087 158.377C197.209 158.295 197.353 158.252 197.5 158.252C197.697 158.252 197.886 158.33 198.026 158.469C198.165 158.608 198.243 158.797 198.243 158.994Z" fill="white"/>
<path d="M203.507 155.087H201.211V161.975H203.507V155.087Z" fill="#455A64"/>
<path d="M206.827 155.087H204.531V161.975H206.827V155.087Z" fill="#455A64"/>
<path d="M210.141 155.087H207.845V161.975H210.141V155.087Z" fill="#455A64"/>
<path d="M213.455 155.087H211.159V161.975H213.455V155.087Z" fill="#455A64"/>
<path d="M216.774 155.087H214.478V161.975H216.774V155.087Z" fill="#455A64"/>
<path d="M220.089 155.087H217.793V161.975H220.089V155.087Z" fill="#455A64"/>
<path d="M223.408 155.087H221.112V161.975H223.408V155.087Z" fill="#455A64"/>
<path d="M226.722 155.087H224.426V161.975H226.722V155.087Z" fill="#455A64"/>
<path d="M230.036 155.087H227.74V161.975H230.036V155.087Z" fill="#455A64"/>
<path d="M233.355 155.087H231.059V161.975H233.355V155.087Z" fill="#455A64"/>
<path d="M233.712 169.438H191.992V181.158H233.712V169.438Z" fill="#263238"/>
<path d="M195.494 170.911H193.158V179.882H195.494V170.911Z" fill="#455A64"/>
<path d="M198.243 172.796C198.244 172.943 198.202 173.087 198.121 173.209C198.04 173.332 197.924 173.428 197.788 173.485C197.652 173.542 197.503 173.557 197.358 173.529C197.214 173.501 197.081 173.431 196.976 173.327C196.872 173.224 196.801 173.092 196.772 172.948C196.742 172.804 196.757 172.654 196.813 172.518C196.869 172.383 196.964 172.266 197.087 172.185C197.209 172.103 197.353 172.059 197.5 172.059C197.696 172.059 197.885 172.137 198.024 172.275C198.163 172.413 198.242 172.6 198.243 172.796Z" fill="white"/>
<path d="M198.243 175.971C198.244 176.118 198.202 176.262 198.121 176.384C198.04 176.507 197.924 176.603 197.788 176.66C197.652 176.717 197.503 176.732 197.358 176.704C197.214 176.676 197.081 176.606 196.976 176.502C196.872 176.399 196.801 176.267 196.772 176.123C196.742 175.979 196.757 175.829 196.813 175.693C196.869 175.557 196.964 175.441 197.087 175.36C197.209 175.278 197.353 175.234 197.5 175.234C197.696 175.234 197.885 175.312 198.024 175.45C198.163 175.588 198.242 175.775 198.243 175.971Z" fill="white"/>
<path d="M203.507 172.059H201.211V178.948H203.507V172.059Z" fill="#455A64"/>
<path d="M206.827 172.059H204.531V178.948H206.827V172.059Z" fill="#455A64"/>
<path d="M210.141 172.059H207.845V178.948H210.141V172.059Z" fill="#455A64"/>
<path d="M213.455 172.059H211.159V178.948H213.455V172.059Z" fill="#455A64"/>
<path d="M216.774 172.059H214.478V178.948H216.774V172.059Z" fill="#455A64"/>
<path d="M220.089 172.059H217.793V178.948H220.089V172.059Z" fill="#455A64"/>
<path d="M223.408 172.059H221.112V178.948H223.408V172.059Z" fill="#455A64"/>
<path d="M226.722 172.059H224.426V178.948H226.722V172.059Z" fill="#455A64"/>
<path d="M230.036 172.059H227.74V178.948H230.036V172.059Z" fill="#455A64"/>
<path d="M233.355 172.059H231.059V178.948H233.355V172.059Z" fill="#455A64"/>
<path d="M233.712 206.288H191.992V218.008H233.712V206.288Z" fill="#263238"/>
<path d="M195.494 207.762H193.158V216.733H195.494V207.762Z" fill="#455A64"/>
<path d="M198.243 209.651C198.243 209.798 198.2 209.941 198.118 210.063C198.036 210.185 197.92 210.28 197.785 210.337C197.649 210.393 197.499 210.407 197.355 210.379C197.211 210.35 197.079 210.279 196.975 210.176C196.871 210.072 196.8 209.94 196.771 209.796C196.742 209.652 196.757 209.503 196.813 209.367C196.87 209.232 196.965 209.116 197.087 209.035C197.209 208.953 197.353 208.91 197.5 208.91C197.598 208.909 197.695 208.928 197.785 208.965C197.876 209.002 197.958 209.056 198.027 209.125C198.096 209.194 198.151 209.276 198.188 209.367C198.225 209.457 198.244 209.554 198.243 209.651Z" fill="white"/>
<path d="M198.243 212.821C198.243 212.968 198.2 213.111 198.118 213.233C198.036 213.355 197.92 213.45 197.785 213.506C197.649 213.563 197.499 213.577 197.355 213.549C197.211 213.52 197.079 213.449 196.975 213.346C196.871 213.242 196.8 213.11 196.771 212.966C196.742 212.822 196.757 212.673 196.813 212.537C196.87 212.402 196.965 212.286 197.087 212.205C197.209 212.123 197.353 212.08 197.5 212.08C197.598 212.079 197.695 212.098 197.785 212.135C197.876 212.172 197.958 212.226 198.027 212.295C198.096 212.364 198.151 212.446 198.188 212.537C198.225 212.627 198.244 212.724 198.243 212.821Z" fill="white"/>
<path d="M203.507 208.91H201.211V215.798H203.507V208.91Z" fill="#455A64"/>
<path d="M206.827 208.91H204.531V215.798H206.827V208.91Z" fill="#455A64"/>
<path d="M210.141 208.91H207.845V215.798H210.141V208.91Z" fill="#455A64"/>
<path d="M213.455 208.91H211.159V215.798H213.455V208.91Z" fill="#455A64"/>
<path d="M216.774 208.91H214.478V215.798H216.774V208.91Z" fill="#455A64"/>
<path d="M220.089 208.91H217.793V215.798H220.089V208.91Z" fill="#455A64"/>
<path d="M223.408 208.91H221.112V215.798H223.408V208.91Z" fill="#455A64"/>
<path d="M226.722 208.91H224.426V215.798H226.722V208.91Z" fill="#455A64"/>
<path d="M230.036 208.91H227.74V215.798H230.036V208.91Z" fill="#455A64"/>
<path d="M233.355 208.91H231.059V215.798H233.355V208.91Z" fill="#455A64"/>
<path d="M233.712 243.139H191.992V254.858H233.712V243.139Z" fill="#263238"/>
<path d="M195.494 244.612H193.158V253.583H195.494V244.612Z" fill="#455A64"/>
<path d="M198.243 246.502C198.243 246.648 198.2 246.792 198.118 246.914C198.036 247.036 197.92 247.131 197.785 247.187C197.649 247.243 197.499 247.258 197.355 247.229C197.211 247.2 197.079 247.13 196.975 247.026C196.871 246.922 196.8 246.79 196.771 246.646C196.742 246.502 196.757 246.353 196.813 246.218C196.87 246.082 196.965 245.966 197.087 245.885C197.209 245.803 197.353 245.76 197.5 245.76C197.697 245.76 197.886 245.838 198.026 245.977C198.165 246.116 198.243 246.305 198.243 246.502Z" fill="white"/>
<path d="M198.243 249.672C198.243 249.818 198.2 249.962 198.118 250.084C198.036 250.206 197.92 250.301 197.785 250.357C197.649 250.413 197.499 250.428 197.355 250.399C197.211 250.37 197.079 250.3 196.975 250.196C196.871 250.092 196.8 249.96 196.771 249.816C196.742 249.672 196.757 249.523 196.813 249.388C196.87 249.252 196.965 249.136 197.087 249.055C197.209 248.973 197.353 248.93 197.5 248.93C197.697 248.93 197.886 249.008 198.026 249.147C198.165 249.286 198.243 249.475 198.243 249.672Z" fill="white"/>
<path d="M203.507 245.76H201.211V252.648H203.507V245.76Z" fill="#455A64"/>
<path d="M206.827 245.76H204.531V252.648H206.827V245.76Z" fill="#455A64"/>
<path d="M210.141 245.76H207.845V252.648H210.141V245.76Z" fill="#455A64"/>
<path d="M213.455 245.76H211.159V252.648H213.455V245.76Z" fill="#455A64"/>
<path d="M216.774 245.76H214.478V252.648H216.774V245.76Z" fill="#455A64"/>
<path d="M220.089 245.76H217.793V252.648H220.089V245.76Z" fill="#455A64"/>
<path d="M223.408 245.76H221.112V252.648H223.408V245.76Z" fill="#455A64"/>
<path d="M226.722 245.76H224.426V252.648H226.722V245.76Z" fill="#455A64"/>
<path d="M230.036 245.76H227.74V252.648H230.036V245.76Z" fill="#455A64"/>
<path d="M233.355 245.76H231.059V252.648H233.355V245.76Z" fill="#455A64"/>
<path d="M233.712 224.729H191.992V236.448H233.712V224.729Z" fill="#263238"/>
<path d="M195.494 226.202H193.158V235.173H195.494V226.202Z" fill="#455A64"/>
<path d="M198.243 228.092C198.243 228.238 198.2 228.382 198.118 228.504C198.036 228.626 197.92 228.721 197.785 228.777C197.649 228.833 197.499 228.848 197.355 228.819C197.211 228.79 197.079 228.72 196.975 228.616C196.871 228.512 196.8 228.38 196.771 228.236C196.742 228.092 196.757 227.943 196.813 227.808C196.87 227.672 196.965 227.556 197.087 227.475C197.209 227.393 197.353 227.35 197.5 227.35C197.697 227.35 197.886 227.428 198.026 227.567C198.165 227.706 198.243 227.895 198.243 228.092Z" fill="white"/>
<path d="M198.243 231.262C198.243 231.408 198.2 231.552 198.118 231.674C198.036 231.796 197.92 231.891 197.785 231.947C197.649 232.003 197.499 232.018 197.355 231.989C197.211 231.96 197.079 231.89 196.975 231.786C196.871 231.682 196.8 231.55 196.771 231.406C196.742 231.262 196.757 231.113 196.813 230.978C196.87 230.842 196.965 230.726 197.087 230.645C197.209 230.563 197.353 230.52 197.5 230.52C197.697 230.52 197.886 230.598 198.026 230.737C198.165 230.876 198.243 231.065 198.243 231.262Z" fill="white"/>
<path d="M203.507 227.35H201.211V234.238H203.507V227.35Z" fill="#455A64"/>
<path d="M206.827 227.35H204.531V234.238H206.827V227.35Z" fill="#455A64"/>
<path d="M210.141 227.35H207.845V234.238H210.141V227.35Z" fill="#455A64"/>
<path d="M213.455 227.35H211.159V234.238H213.455V227.35Z" fill="#455A64"/>
<path d="M216.774 227.35H214.478V234.238H216.774V227.35Z" fill="#455A64"/>
<path d="M220.089 227.35H217.793V234.238H220.089V227.35Z" fill="#455A64"/>
<path d="M223.408 227.35H221.112V234.238H223.408V227.35Z" fill="#455A64"/>
<path d="M226.722 227.35H224.426V234.238H226.722V227.35Z" fill="#455A64"/>
<path d="M230.036 227.35H227.74V234.238H230.036V227.35Z" fill="#455A64"/>
<path d="M233.355 227.35H231.059V234.238H233.355V227.35Z" fill="#455A64"/>
<path d="M217.793 135.626C217.768 135.507 217.755 135.386 217.752 135.265C217.752 135.026 217.721 134.676 217.711 134.223C217.701 133.771 217.711 133.207 217.66 132.578C217.639 131.857 217.544 131.14 217.375 130.439C217.14 129.6 216.763 128.808 216.26 128.097C215.69 127.279 214.897 126.641 213.974 126.258C212.932 125.879 211.839 125.658 210.731 125.603L207.137 125.293C202.214 124.866 197.745 124.592 194.512 124.536C192.893 124.5 191.579 124.51 190.678 124.536H189.635C189.513 124.55 189.39 124.55 189.268 124.536C189.387 124.509 189.508 124.495 189.63 124.495L190.673 124.434C191.579 124.399 192.893 124.358 194.512 124.368C197.755 124.368 202.235 124.622 207.158 125.049L210.757 125.364C211.889 125.425 213.005 125.658 214.066 126.055C215.027 126.458 215.851 127.13 216.438 127.99C216.95 128.727 217.329 129.547 217.558 130.413C217.718 131.129 217.802 131.86 217.808 132.593C217.808 133.238 217.808 133.792 217.808 134.244C217.808 134.696 217.808 135.021 217.808 135.285C217.813 135.399 217.808 135.513 217.793 135.626Z" fill="#263238"/>
<path d="M205.137 135.626C205.126 135.512 205.126 135.398 205.137 135.285V134.305C205.137 133.883 205.137 133.36 205.091 132.781C205.059 132.109 204.885 131.451 204.582 130.85C204.129 130.176 203.467 129.667 202.698 129.403C201.824 129.062 200.874 128.966 199.949 129.123C199.453 129.207 198.973 129.37 198.529 129.606C198.068 129.84 197.684 130.201 197.424 130.647C197.296 130.871 197.229 131.124 197.229 131.381C197.229 131.639 197.296 131.892 197.424 132.115C197.557 132.349 197.737 132.553 197.952 132.715C198.167 132.877 198.414 132.992 198.676 133.055C198.936 133.113 199.207 133.104 199.463 133.031C199.719 132.957 199.953 132.82 200.142 132.633C200.522 132.263 200.755 131.769 200.799 131.241C200.83 130.73 200.675 130.225 200.361 129.819C200.077 129.41 199.698 129.076 199.257 128.844C198.821 128.648 198.354 128.529 197.877 128.493C197.402 128.422 196.944 128.361 196.502 128.31C195.617 128.209 194.787 128.153 194.028 128.122C192.501 128.066 191.274 128.087 190.419 128.087H189.441C189.326 128.097 189.21 128.097 189.095 128.087C189.207 128.063 189.322 128.051 189.436 128.051L190.419 128C191.269 127.97 192.506 127.914 194.033 127.95C194.797 127.95 195.632 128.016 196.528 128.107C196.976 128.153 197.434 128.209 197.913 128.275C198.147 128.315 198.386 128.346 198.635 128.392C198.891 128.439 199.138 128.525 199.369 128.646C199.842 128.885 200.252 129.233 200.565 129.662C200.925 130.111 201.106 130.677 201.074 131.252C201.032 131.846 200.771 132.403 200.341 132.816C200.122 133.036 199.851 133.198 199.553 133.287C199.255 133.375 198.94 133.388 198.635 133.324C198.338 133.253 198.059 133.121 197.814 132.938C197.57 132.754 197.366 132.523 197.215 132.257C197.066 131.995 196.988 131.698 196.988 131.396C196.988 131.095 197.066 130.798 197.215 130.535C197.5 130.046 197.921 129.649 198.427 129.392C198.897 129.144 199.404 128.972 199.929 128.884C200.895 128.727 201.886 128.836 202.795 129.199C203.608 129.485 204.301 130.034 204.765 130.759C205.081 131.391 205.255 132.085 205.274 132.791C205.305 133.4 205.274 133.924 205.274 134.345C205.274 134.767 205.274 135.077 205.238 135.326C205.215 135.429 205.181 135.53 205.137 135.626Z" fill="#263238"/>
<path d="M221.198 135.626C221.159 135.5 221.132 135.37 221.117 135.239C221.071 134.985 221 134.61 220.898 134.127C220.614 132.767 220.201 131.437 219.666 130.154C218.912 128.24 217.659 126.561 216.036 125.293C215.058 124.585 213.909 124.148 212.707 124.028C211.409 123.883 210.103 123.812 208.797 123.815C203.406 123.713 198.518 123.738 194.98 123.601C193.214 123.54 191.783 123.454 190.801 123.388L189.665 123.291C189.532 123.286 189.399 123.269 189.268 123.24C189.4 123.227 189.533 123.227 189.665 123.24L190.806 123.281C191.793 123.322 193.219 123.378 194.985 123.413C198.518 123.5 203.401 123.449 208.802 123.55C210.12 123.548 211.438 123.621 212.747 123.769C213.99 123.903 215.175 124.36 216.184 125.095C217.074 125.775 217.849 126.593 218.48 127.518C219.019 128.316 219.475 129.167 219.839 130.058C220.365 131.355 220.752 132.703 220.995 134.081C221.086 134.589 221.137 134.945 221.168 135.204C221.193 135.343 221.204 135.484 221.198 135.626Z" fill="#263238"/>
<path d="M233.142 113.436H192.567V119.314H233.142V113.436Z" fill="#263238"/>
<path d="M223.581 116.372H201.491V119.309H223.581V116.372Z" fill="#455A64"/>
<path d="M249.692 235.331C249.692 235.361 249.244 235.402 248.465 235.63C247.373 235.964 246.342 236.47 245.411 237.129C244.767 237.58 244.188 238.117 243.69 238.724C243.415 239.06 243.178 239.424 242.982 239.811C242.796 240.232 242.648 240.669 242.539 241.117C242.076 242.976 242.219 245.1 242.31 247.314C242.402 249.529 242.254 251.734 241.379 253.507C240.983 254.346 240.42 255.096 239.724 255.712C239.114 256.241 238.427 256.676 237.688 257.002C237.081 257.269 236.443 257.458 235.789 257.566C235.294 257.643 234.792 257.665 234.292 257.632C233.978 257.612 233.666 257.563 233.36 257.485C233.252 257.464 233.146 257.432 233.045 257.388C233.045 257.358 233.488 257.495 234.297 257.53C234.788 257.542 235.279 257.507 235.763 257.424C236.402 257.302 237.022 257.103 237.611 256.829C238.326 256.503 238.986 256.072 239.571 255.549C240.238 254.946 240.777 254.215 241.155 253.4C241.99 251.678 242.132 249.524 242.041 247.304C241.949 245.084 241.811 242.941 242.3 241.041C242.412 240.576 242.569 240.124 242.769 239.689C242.976 239.289 243.227 238.912 243.517 238.567C244.029 237.946 244.629 237.404 245.299 236.956C246.255 236.294 247.32 235.804 248.445 235.508C248.749 235.428 249.059 235.37 249.371 235.336C249.478 235.322 249.585 235.32 249.692 235.331Z" fill="#263238"/>
<path d="M234.318 255.574H230.988V259.618H234.318V255.574Z" fill="#263238"/>
<path d="M268.371 225.12H249.692V245.541H268.371V225.12Z" fill="#455A64"/>
<path d="M264.257 237.218C265.038 233.93 263.001 230.633 259.706 229.854C256.412 229.074 253.108 231.107 252.326 234.395C251.545 237.682 253.583 240.979 256.877 241.759C260.172 242.538 263.476 240.505 264.257 237.218Z" fill="#263238"/>
<path d="M262.104 235.407C262.104 236.01 261.925 236.599 261.589 237.1C261.253 237.602 260.776 237.992 260.218 238.223C259.66 238.454 259.046 238.514 258.453 238.396C257.861 238.279 257.317 237.988 256.889 237.562C256.462 237.136 256.171 236.593 256.053 236.002C255.936 235.41 255.996 234.797 256.227 234.24C256.458 233.684 256.85 233.207 257.352 232.873C257.855 232.538 258.445 232.359 259.049 232.359C259.859 232.359 260.636 232.68 261.209 233.252C261.782 233.823 262.104 234.599 262.104 235.407Z" fill="#455A64"/>
<path d="M252.217 228.859C252.532 228.859 252.787 228.604 252.787 228.29C252.787 227.976 252.532 227.721 252.217 227.721C251.902 227.721 251.647 227.976 251.647 228.29C251.647 228.604 251.902 228.859 252.217 228.859Z" fill="#263238"/>
<path d="M265.515 228.859C265.83 228.859 266.085 228.604 266.085 228.29C266.085 227.976 265.83 227.721 265.515 227.721C265.2 227.721 264.945 227.976 264.945 228.29C264.945 228.604 265.2 228.859 265.515 228.859Z" fill="#263238"/>
<path d="M265.637 243.936C265.952 243.936 266.207 243.681 266.207 243.367C266.207 243.053 265.952 242.798 265.637 242.798C265.322 242.798 265.067 243.053 265.067 243.367C265.067 243.681 265.322 243.936 265.637 243.936Z" fill="#263238"/>
<path d="M252.217 244.17C252.532 244.17 252.787 243.915 252.787 243.601C252.787 243.287 252.532 243.032 252.217 243.032C251.902 243.032 251.647 243.287 251.647 243.601C251.647 243.915 251.902 244.17 252.217 244.17Z" fill="#263238"/>
<path d="M269.878 225.12H268.371V245.541H269.878V225.12Z" fill="#263238"/>
<path d="M322.793 243.997C322.841 244.059 322.885 244.123 322.925 244.19C323.017 244.332 323.139 244.531 323.302 244.78C323.497 245.105 323.667 245.444 323.811 245.796C324.035 246.261 324.222 246.743 324.371 247.238C324.786 248.598 324.985 250.013 324.961 251.434C324.922 253.32 324.508 255.18 323.745 256.905C323.633 257.144 323.526 257.383 323.414 257.627L323.011 258.333C322.728 258.815 322.415 259.28 322.075 259.725C321.341 260.665 320.471 261.49 319.494 262.173L319.117 262.448L318.71 262.676C318.435 262.824 318.165 263.001 317.875 263.128L316.984 263.509C316.689 263.642 316.368 263.708 316.057 263.814C314.755 264.193 313.401 264.364 312.046 264.322C310.624 264.286 309.215 264.048 307.861 263.616C306.449 263.148 305.12 262.462 303.921 261.584C302.67 260.679 301.61 259.538 300.8 258.226C300.033 256.856 299.353 255.44 298.763 253.984C298.186 252.543 297.341 251.223 296.274 250.093C295.73 249.572 295.095 249.155 294.401 248.864C293.713 248.587 292.983 248.427 292.242 248.391C289.299 248.224 286.387 249.915 285.395 252.455C285.16 253.076 285.061 253.739 285.105 254.401C285.134 255.038 285.38 255.645 285.802 256.123C286.017 256.344 286.278 256.514 286.567 256.621C286.856 256.728 287.165 256.77 287.472 256.743C288.073 256.697 288.644 256.464 289.106 256.077C289.524 255.681 289.849 255.197 290.056 254.66C290.263 254.123 290.347 253.547 290.302 252.974C290.263 251.897 289.978 250.844 289.467 249.895C288.983 248.978 288.318 248.168 287.513 247.513C286.708 246.857 285.779 246.371 284.781 246.082C283.783 245.792 282.738 245.707 281.706 245.829C280.674 245.952 279.678 246.281 278.777 246.796C278.267 247.101 277.998 247.304 277.987 247.304C278.225 247.1 278.48 246.918 278.751 246.761C279.522 246.296 280.371 245.973 281.256 245.806C282.662 245.525 284.119 245.636 285.466 246.126C287.251 246.818 288.726 248.129 289.62 249.819C290.147 250.792 290.445 251.873 290.491 252.979C290.515 253.569 290.432 254.16 290.246 254.721C290.054 255.313 289.702 255.84 289.228 256.245C288.732 256.665 288.115 256.918 287.467 256.966C287.128 256.993 286.788 256.945 286.471 256.825C286.153 256.706 285.866 256.518 285.629 256.276C285.167 255.758 284.896 255.098 284.86 254.406C284.815 253.715 284.917 253.023 285.161 252.374C286.179 249.717 289.208 247.985 292.247 248.148C293.021 248.188 293.782 248.359 294.497 248.656C295.224 248.956 295.887 249.39 296.452 249.936C297.543 251.089 298.407 252.436 298.998 253.908C299.588 255.353 300.268 256.759 301.034 258.12C301.826 259.404 302.864 260.521 304.089 261.406C305.263 262.269 306.565 262.944 307.947 263.408C309.28 263.836 310.667 264.072 312.066 264.109C313.396 264.149 314.725 263.977 316.001 263.601C316.31 263.517 316.614 263.417 316.913 263.301L317.788 262.935C318.073 262.808 318.333 262.636 318.608 262.493L319.01 262.27L319.382 262.006C320.341 261.334 321.198 260.529 321.927 259.613C322.262 259.174 322.571 258.716 322.854 258.242L323.256 257.551C323.363 257.312 323.475 257.073 323.582 256.839C324.347 255.138 324.767 253.303 324.819 251.439C324.855 250.033 324.675 248.63 324.284 247.279C324.14 246.786 323.962 246.304 323.75 245.836C323.605 245.486 323.435 245.146 323.241 244.82C323.088 244.566 322.976 244.363 322.889 244.221L322.793 243.997Z" fill="#263238"/>
<path d="M328.448 237.972H318.771V247.629H328.448V237.972Z" fill="#263238"/>
<path d="M314.79 160.213H281.826V184.399H314.79V160.213Z" fill="white"/>
<path d="M314.79 184.399C314.79 184.399 314.79 184.241 314.79 183.952C314.79 183.662 314.79 183.22 314.79 182.661C314.79 181.523 314.79 179.872 314.759 177.769C314.759 173.553 314.729 167.523 314.703 160.213L314.815 160.319L281.851 160.345L281.984 160.213C281.984 168.894 281.984 177.124 281.984 184.399L281.867 184.282L305.626 184.338L312.397 184.373H314.199H314.667H314.83C314.78 184.379 314.728 184.379 314.678 184.373H314.225H312.448L305.707 184.404L281.867 184.465H281.745V184.343C281.745 177.068 281.745 168.839 281.745 160.157V160.025H281.877L314.841 160.05H314.947V160.223C314.922 167.563 314.902 173.619 314.891 177.851C314.891 179.943 314.891 181.584 314.861 182.712C314.861 183.261 314.861 183.687 314.861 183.982C314.861 184.277 314.79 184.399 314.79 184.399Z" fill="#263238"/>
<path d="M290.358 167.843C290.328 167.934 291.117 178.582 291.117 178.46C291.117 178.338 306.074 178.46 306.074 178.46L306.257 169.027H295.108L294.599 167.716L290.358 167.843Z" fill="#3F6FD8"/>
<path d="M314.489 167.843C314.489 167.843 314.52 167.843 314.581 167.843H314.856H315.935L319.982 167.807L326.193 167.782H328.036C328.662 167.782 329.319 167.782 329.961 167.741C330.613 167.687 331.224 167.396 331.676 166.923C332.108 166.397 332.327 165.728 332.292 165.049C332.292 161.371 332.292 157.332 332.292 153.101C332.292 144.394 332.318 136.515 332.328 130.789C332.328 127.95 332.358 125.643 332.369 124.033C332.369 123.246 332.369 122.631 332.394 122.194C332.394 121.996 332.394 121.838 332.394 121.716C332.387 121.662 332.387 121.608 332.394 121.554C332.394 121.554 332.394 121.61 332.394 121.716C332.394 121.823 332.394 121.996 332.394 122.194C332.394 122.636 332.394 123.251 332.394 124.033C332.394 125.648 332.394 127.955 332.435 130.794C332.435 136.52 332.435 144.399 332.475 153.101C332.475 157.332 332.475 161.371 332.475 165.044C332.509 165.782 332.266 166.506 331.793 167.076C331.3 167.591 330.636 167.909 329.925 167.97C329.243 168.026 328.606 167.97 327.975 167.97H326.132L319.921 167.944L315.874 167.909H314.795H314.52L314.489 167.843Z" fill="#263238"/>
<path d="M281.826 175.123H281.704H281.353H280.009H275.05H267.704H263.361C262.563 175.173 261.771 174.96 261.106 174.518C260.787 174.257 260.53 173.928 260.354 173.555C260.178 173.183 260.087 172.776 260.088 172.364C260.083 172.285 260.083 172.205 260.088 172.125C260.088 168.966 260.088 165.958 260.088 163.225C260.088 161.859 260.088 160.558 260.088 159.344C260.088 158.734 260.088 158.145 260.088 157.586C260.089 157.061 259.976 156.541 259.757 156.062C259.635 155.863 259.469 155.694 259.271 155.569C259.073 155.444 258.849 155.366 258.617 155.341C258.175 155.307 257.737 155.236 257.308 155.128C256.943 154.958 256.659 154.651 256.519 154.274C256.401 153.97 256.327 153.65 256.3 153.324C256.253 152.88 256.253 152.432 256.3 151.988C256.3 151.836 256.341 151.724 256.351 151.648C256.355 151.607 256.367 151.567 256.387 151.531C256.387 151.531 256.387 151.694 256.356 151.993C256.314 152.433 256.314 152.875 256.356 153.314C256.393 153.626 256.471 153.932 256.59 154.223C256.655 154.393 256.753 154.548 256.878 154.679C257.003 154.811 257.152 154.917 257.318 154.99C257.74 155.089 258.169 155.152 258.601 155.178C258.846 155.221 259.083 155.3 259.304 155.412C259.543 155.541 259.741 155.735 259.874 155.971C260.111 156.473 260.238 157.021 260.246 157.576C260.297 158.145 260.281 158.729 260.286 159.339C260.286 160.558 260.286 161.879 260.286 163.225C260.286 165.963 260.286 168.971 260.286 172.135V172.415C260.286 172.789 260.37 173.159 260.532 173.497C260.694 173.834 260.93 174.131 261.223 174.366C261.841 174.778 262.579 174.974 263.321 174.924H267.663L275.009 174.99L279.968 175.062L281.317 175.092H281.663L281.826 175.123Z" fill="#263238"/>
<path d="M257.512 151.079C257.513 151.293 257.45 151.503 257.332 151.681C257.213 151.86 257.044 152 256.846 152.082C256.648 152.165 256.43 152.187 256.219 152.146C256.008 152.105 255.815 152.002 255.662 151.851C255.51 151.7 255.407 151.507 255.364 151.297C255.322 151.087 255.343 150.869 255.425 150.671C255.507 150.473 255.646 150.304 255.824 150.185C256.003 150.066 256.213 150.002 256.427 150.002C256.57 150.001 256.71 150.029 256.842 150.082C256.974 150.136 257.093 150.215 257.194 150.316C257.295 150.416 257.375 150.535 257.429 150.666C257.484 150.797 257.512 150.937 257.512 151.079Z" fill="#263238"/>
<path d="M281.826 171.978C281.696 171.997 281.565 172.006 281.434 172.003L280.304 172.029L276.129 172.069L269.893 172.095H268.081C267.444 172.119 266.806 172.1 266.171 172.039C265.481 171.957 264.846 171.622 264.39 171.099C263.949 170.532 263.729 169.825 263.769 169.108V167.492C263.769 164.566 263.769 161.772 263.769 159.232C263.769 157.962 263.769 156.758 263.769 155.631C263.781 155.089 263.754 154.548 263.687 154.01C263.671 153.525 263.475 153.064 263.137 152.715C262.784 152.452 262.36 152.3 261.921 152.278C261.498 152.295 261.079 152.191 260.714 151.978C260.417 151.754 260.204 151.438 260.108 151.079C260.019 150.788 259.964 150.488 259.945 150.185C259.918 149.771 259.932 149.356 259.986 148.945C259.995 148.8 260.022 148.657 260.067 148.519C260.067 148.519 260.067 148.666 260.067 148.95C260.032 149.358 260.032 149.767 260.067 150.175C260.089 150.469 260.147 150.759 260.241 151.038C260.338 151.366 260.54 151.653 260.816 151.856C261.162 152.047 261.556 152.135 261.951 152.11C262.43 152.129 262.893 152.29 263.28 152.572C263.653 152.95 263.875 153.45 263.906 153.98C263.98 154.523 264.012 155.072 264.003 155.62C264.003 156.755 264.003 157.957 264.003 159.227C264.003 161.767 264.003 164.561 264.003 167.492V169.133C263.966 169.78 264.165 170.419 264.563 170.932C264.978 171.407 265.555 171.711 266.182 171.785C266.802 171.848 267.426 171.87 268.05 171.851H269.862L276.099 171.876L280.273 171.917L281.403 171.942C281.545 171.942 281.686 171.954 281.826 171.978Z" fill="#263238"/>
<path d="M260.134 149.077C260.73 149.077 261.213 148.595 261.213 148C261.213 147.406 260.73 146.923 260.134 146.923C259.538 146.923 259.054 147.406 259.054 148C259.054 148.595 259.538 149.077 260.134 149.077Z" fill="#263238"/>
<path d="M281.826 160.213V163.835L314.79 163.418V160.213H281.826Z" fill="#455A64"/>
<path d="M127.266 180.964C127.424 181.086 148.108 183.545 146.367 187.467C144.626 191.389 126.38 189.9 126.38 189.9L127.266 180.964Z" fill="#3F6FD8"/>
<path opacity="0.3" d="M127.266 180.964C127.424 181.086 148.108 183.545 146.367 187.467C144.626 191.389 126.38 189.9 126.38 189.9L127.266 180.964Z" fill="black"/>
<path d="M169.022 185.491H127.302V197.21H169.022V185.491Z" fill="#455A64"/>
<path d="M130.804 186.964H128.468V195.935H130.804V186.964Z" fill="#263238"/>
<path d="M133.559 188.849C133.56 188.995 133.517 189.139 133.436 189.262C133.355 189.385 133.239 189.48 133.103 189.537C132.968 189.594 132.818 189.61 132.673 189.582C132.529 189.554 132.396 189.483 132.292 189.38C132.187 189.276 132.116 189.144 132.087 189C132.058 188.856 132.072 188.707 132.128 188.571C132.184 188.435 132.28 188.319 132.402 188.237C132.524 188.156 132.668 188.112 132.815 188.112C133.012 188.112 133.2 188.189 133.339 188.327C133.478 188.465 133.557 188.653 133.559 188.849Z" fill="white"/>
<path d="M133.559 192.018C133.56 192.165 133.517 192.309 133.436 192.432C133.355 192.555 133.239 192.65 133.103 192.707C132.968 192.764 132.818 192.78 132.673 192.752C132.529 192.724 132.396 192.653 132.292 192.55C132.187 192.446 132.116 192.314 132.087 192.17C132.058 192.026 132.072 191.877 132.128 191.741C132.184 191.605 132.28 191.489 132.402 191.407C132.524 191.325 132.668 191.282 132.815 191.282C133.012 191.282 133.2 191.359 133.339 191.497C133.478 191.635 133.557 191.823 133.559 192.018Z" fill="white"/>
<path d="M138.823 188.112H136.527V195H138.823V188.112Z" fill="#263238"/>
<path d="M142.137 188.112H139.841V195H142.137V188.112Z" fill="#263238"/>
<path d="M145.451 188.112H143.155V195H145.451V188.112Z" fill="#263238"/>
<path d="M148.77 188.112H146.474V195H148.77V188.112Z" fill="#263238"/>
<path d="M152.084 188.112H149.788V195H152.084V188.112Z" fill="#263238"/>
<path d="M155.404 188.112H153.108V195H155.404V188.112Z" fill="#263238"/>
<path d="M158.718 188.112H156.422V195H158.718V188.112Z" fill="#263238"/>
<path d="M162.032 188.112H159.736V195H162.032V188.112Z" fill="#263238"/>
<path d="M165.351 188.112H163.055V195H165.351V188.112Z" fill="#263238"/>
<path d="M168.665 188.112H166.369V195H168.665V188.112Z" fill="#263238"/>
<path d="M175.808 185.491H169.027V197.21H175.808V185.491Z" fill="#263238"/>
<path d="M174.932 192.735C178.812 194.767 177.748 199.456 179.85 202.631C180.463 203.526 181.283 204.261 182.241 204.773C183.199 205.285 184.267 205.559 185.353 205.572C186.561 205.566 187.749 205.275 188.822 204.722C189.894 204.169 190.82 203.371 191.524 202.392C193.453 199.791 194.97 192.364 199.888 194.884C200.031 194.96 200.163 194.741 200.015 194.665C194.476 191.825 192.7 201.538 189.772 203.779C188.72 204.63 187.438 205.15 186.089 205.272C184.74 205.394 183.386 205.113 182.197 204.464C179.988 203.215 179.26 201.015 178.7 198.709C178.099 196.225 177.488 193.781 175.06 192.516C174.912 192.44 174.785 192.664 174.932 192.735Z" fill="#263238"/>
<path d="M127.918 181.483C128.116 181.64 127.266 210.306 115.033 210.296C102.672 210.296 99.704 184.195 100.829 182.031C102.55 178.729 117.054 172.516 127.918 181.483Z" fill="#3F6FD8"/>
<path d="M100.259 181.691C100.357 181.706 100.453 181.733 100.544 181.772L101.328 182.052C101.664 182.184 102.081 182.336 102.57 182.483C103.059 182.631 103.588 182.834 104.24 182.991C104.892 183.149 105.548 183.352 106.276 183.499C107.004 183.647 107.804 183.799 108.659 183.946C110.492 184.215 112.34 184.359 114.193 184.378C116.044 184.373 117.893 184.244 119.727 183.992C120.572 183.855 121.376 183.738 122.114 183.565C122.852 183.393 123.545 183.24 124.151 183.057C124.756 182.874 125.332 182.712 125.82 182.549C126.309 182.387 126.732 182.255 127.073 182.133L127.857 181.853C127.948 181.817 128.044 181.791 128.142 181.777C128.057 181.827 127.969 181.87 127.877 181.904L127.108 182.229C126.772 182.366 126.36 182.534 125.871 182.692C125.383 182.849 124.853 183.057 124.201 183.2C123.55 183.342 122.888 183.576 122.165 183.708C121.442 183.84 120.638 184.017 119.767 184.16C117.923 184.431 116.062 184.569 114.198 184.571C112.333 184.552 110.472 184.399 108.628 184.114C107.778 183.962 106.974 183.83 106.231 183.642C105.487 183.454 104.8 183.281 104.194 183.098C103.588 182.915 103.018 182.717 102.529 182.549C102.041 182.382 101.628 182.224 101.292 182.077L100.529 181.752C100.437 181.738 100.347 181.717 100.259 181.691Z" fill="white"/>
<g opacity="0.3">
<path d="M103.634 179.628C106.134 182.813 110.008 183.819 114.06 183.845C118.113 183.87 121.951 182.534 124.492 179.379C124.492 179.379 121.437 176.438 113.908 176.448C110.236 176.42 106.646 177.531 103.634 179.628Z" fill="black"/>
</g>
<path d="M114.707 209.834C114.62 209.805 114.538 209.764 114.463 209.712C114.244 209.573 114.039 209.413 113.852 209.235C113.165 208.561 112.659 207.726 112.38 206.806C112.007 205.441 111.87 204.022 111.973 202.61C112.039 201.025 112.111 199.293 112.192 197.469C112.355 193.822 112.513 190.525 112.645 188.137C112.716 186.974 112.772 186.014 112.813 185.308C112.813 185.003 112.859 184.749 112.874 184.541C112.874 184.451 112.888 184.362 112.915 184.277C112.923 184.366 112.923 184.456 112.915 184.546C112.915 184.749 112.915 185.003 112.915 185.313C112.915 186.024 112.864 186.979 112.828 188.148C112.747 190.535 112.615 193.837 112.452 197.479C112.365 199.303 112.284 201.035 112.212 202.615C112.096 204.003 112.211 205.4 112.553 206.75C112.812 207.65 113.28 208.477 113.918 209.163C114.167 209.403 114.43 209.627 114.707 209.834Z" fill="white"/>
<path d="M113.18 203.25C113.18 203.25 113.312 203.083 113.602 203.154C113.687 203.176 113.765 203.217 113.832 203.273C113.899 203.329 113.953 203.4 113.989 203.479C114.033 203.584 114.043 203.7 114.018 203.81C113.994 203.921 113.935 204.022 113.852 204.099C113.775 204.186 113.67 204.244 113.555 204.263C113.44 204.283 113.322 204.262 113.22 204.205C113.142 204.158 113.078 204.091 113.035 204.01C112.992 203.93 112.972 203.839 112.976 203.748C112.974 203.691 112.985 203.633 113.007 203.58C113.029 203.526 113.062 203.478 113.103 203.438C113.164 203.388 113.215 203.388 113.22 203.398C113.225 203.408 113.119 203.535 113.159 203.738C113.168 203.79 113.188 203.84 113.218 203.884C113.248 203.928 113.287 203.965 113.332 203.992C113.39 204.013 113.453 204.016 113.513 204.001C113.572 203.987 113.626 203.955 113.668 203.911C113.712 203.869 113.744 203.818 113.761 203.76C113.779 203.703 113.781 203.642 113.767 203.584C113.754 203.525 113.726 203.471 113.685 203.427C113.645 203.383 113.593 203.35 113.536 203.332C113.363 203.235 113.195 203.291 113.18 203.25Z" fill="white"/>
<path d="M113.928 199.019C113.928 199.019 113.928 198.968 114.02 198.953C114.072 198.944 114.125 198.948 114.176 198.964C114.226 198.98 114.272 199.008 114.31 199.044C114.372 199.097 114.419 199.167 114.445 199.245C114.471 199.323 114.475 199.406 114.457 199.486C114.426 199.586 114.361 199.672 114.275 199.731C114.188 199.79 114.084 199.818 113.979 199.811C113.878 199.814 113.778 199.786 113.693 199.732C113.608 199.677 113.541 199.599 113.5 199.506C113.47 199.436 113.454 199.36 113.454 199.283C113.454 199.206 113.47 199.13 113.5 199.059C113.612 198.831 113.785 198.795 113.796 198.826C113.806 198.856 113.714 198.948 113.673 199.125C113.656 199.173 113.651 199.224 113.658 199.274C113.664 199.324 113.683 199.371 113.712 199.412C113.741 199.454 113.779 199.488 113.824 199.511C113.869 199.534 113.918 199.547 113.969 199.547C114.017 199.551 114.066 199.541 114.109 199.518C114.151 199.494 114.186 199.458 114.208 199.415C114.22 199.373 114.221 199.329 114.213 199.287C114.204 199.244 114.185 199.205 114.157 199.171C114.076 199.029 113.943 199.054 113.928 199.019Z" fill="white"/>
<path opacity="0.2" d="M112.385 196.748C112.385 196.748 119.396 200.705 125.057 199.679L125.479 198.424C125.479 198.424 117.156 197.601 112.385 196.24V196.748Z" fill="black"/>
<path d="M114.508 190.103C114.508 190.103 136.852 191.79 134.037 195.879C131.222 199.969 121.376 197.728 121.376 197.728C121.376 197.728 115.053 193.161 114.508 190.103Z" fill="#3F6FD8"/>
<path d="M125.795 198.424C125.626 198.447 125.455 198.447 125.286 198.424C124.94 198.424 124.441 198.379 123.83 198.328C122.598 198.226 120.908 198.033 119.049 197.733C117.191 197.434 115.527 197.073 114.33 196.778C113.729 196.636 113.251 196.509 112.92 196.413C112.743 196.377 112.572 196.317 112.411 196.235C112.583 196.24 112.754 196.266 112.92 196.311L114.351 196.601C115.557 196.844 117.222 197.17 119.07 197.474C120.918 197.779 122.633 197.982 123.825 198.14L125.271 198.323C125.449 198.337 125.624 198.371 125.795 198.424Z" fill="white"/>
<path d="M129.46 192.349C129.236 192.338 129.014 192.302 128.799 192.242L127.012 191.871C125.484 191.556 123.448 191.135 121.116 190.733C118.785 190.332 116.703 190.037 115.175 189.87C114.412 189.783 113.796 189.717 113.368 189.682C113.143 189.676 112.919 189.645 112.701 189.59C112.925 189.569 113.15 189.569 113.373 189.59C113.806 189.59 114.427 189.631 115.196 189.692C116.723 189.814 118.846 190.078 121.162 190.484C123.479 190.891 125.561 191.338 127.057 191.698C127.806 191.876 128.407 192.034 128.819 192.151C129.038 192.197 129.253 192.263 129.46 192.349Z" fill="white"/>
<g opacity="0.4">
<path d="M127.108 183.692C127.175 183.835 125.866 184.627 123.545 185.425C122.964 185.623 122.323 185.831 121.62 185.999C120.918 186.166 120.159 186.334 119.36 186.507C117.614 186.799 115.847 186.952 114.076 186.964C112.301 186.944 110.531 186.784 108.781 186.486C107.977 186.329 107.218 186.192 106.521 185.978C105.823 185.765 105.172 185.602 104.591 185.404C102.26 184.607 100.956 183.814 101.028 183.667C101.099 183.52 102.555 183.956 104.851 184.505C105.436 184.642 106.073 184.79 106.765 184.906C107.457 185.023 108.191 185.145 108.969 185.262C110.658 185.477 112.358 185.591 114.06 185.602C115.763 185.593 117.463 185.481 119.151 185.267C119.93 185.15 120.679 185.054 121.361 184.912C122.043 184.769 122.689 184.647 123.27 184.51C125.581 183.982 127.012 183.504 127.108 183.692Z" fill="white"/>
</g>
<path d="M114.432 181.483C121.88 181.483 127.918 175.458 127.918 168.026C127.918 160.594 121.88 154.569 114.432 154.569C106.984 154.569 100.946 160.594 100.946 168.026C100.946 175.458 106.984 181.483 114.432 181.483Z" fill="#3F6FD8"/>
<path d="M127.796 166.212C122.978 166.988 118.086 167.194 113.22 166.827C112.791 166.793 112.359 166.846 111.951 166.982C111.542 167.118 111.165 167.334 110.842 167.619C110.519 167.903 110.257 168.249 110.071 168.637C109.885 169.024 109.778 169.445 109.759 169.875C109.723 170.712 110.017 171.53 110.577 172.154C111.137 172.778 111.919 173.16 112.757 173.217C118.047 173.588 122.898 173.578 127.108 172.654C127.108 172.633 128.437 170.459 127.796 166.212Z" fill="#263238"/>
<path d="M115.435 170.002C115.385 169.997 115.337 169.983 115.293 169.96C115.249 169.938 115.21 169.906 115.178 169.868C115.146 169.83 115.122 169.786 115.107 169.739C115.092 169.692 115.087 169.642 115.091 169.593C115.096 169.543 115.11 169.495 115.133 169.451C115.156 169.407 115.187 169.368 115.225 169.337C115.263 169.305 115.307 169.281 115.354 169.266C115.402 169.251 115.452 169.246 115.501 169.25C115.552 169.252 115.602 169.264 115.648 169.286C115.694 169.307 115.735 169.338 115.769 169.376C115.803 169.414 115.828 169.458 115.844 169.507C115.861 169.555 115.867 169.606 115.863 169.656C115.851 169.758 115.8 169.852 115.72 169.916C115.64 169.981 115.537 170.012 115.435 170.002Z" fill="white"/>
<path d="M125.072 169.733C125.023 169.728 124.974 169.714 124.93 169.691C124.886 169.668 124.847 169.637 124.815 169.599C124.783 169.561 124.759 169.517 124.744 169.47C124.729 169.423 124.724 169.373 124.728 169.324C124.733 169.274 124.747 169.226 124.77 169.182C124.793 169.138 124.824 169.099 124.862 169.067C124.9 169.036 124.944 169.012 124.992 168.997C125.039 168.982 125.089 168.976 125.138 168.981C125.189 168.983 125.239 168.995 125.285 169.016C125.331 169.038 125.372 169.069 125.406 169.107C125.44 169.145 125.465 169.189 125.482 169.237C125.498 169.286 125.504 169.336 125.5 169.387C125.488 169.489 125.437 169.583 125.357 169.647C125.277 169.712 125.174 169.742 125.072 169.733Z" fill="white"/>
<path d="M122.73 169.819C122.761 169.819 122.679 170.134 122.379 170.54C122.181 170.809 121.93 171.035 121.643 171.204C121.355 171.373 121.035 171.483 120.704 171.526C120.369 171.546 120.034 171.493 119.723 171.369C119.411 171.245 119.131 171.054 118.902 170.809C118.556 170.444 118.444 170.149 118.469 170.134C118.495 170.119 118.673 170.368 119.029 170.672C119.481 171.078 120.076 171.29 120.684 171.262C121.278 171.174 121.821 170.874 122.211 170.418C122.552 170.068 122.695 169.799 122.73 169.819Z" fill="white"/>
<path d="M114.89 154.579C114.89 154.579 114.946 154.579 115.043 154.579C115.189 154.6 115.333 154.631 115.476 154.67C115.998 154.811 116.496 155.03 116.952 155.321C117.633 155.752 118.228 156.305 118.708 156.951C119.269 157.754 119.725 158.625 120.068 159.542C120.707 161.201 121.023 162.967 120.999 164.744C120.997 165.279 120.958 165.814 120.882 166.344C120.866 166.54 120.824 166.734 120.755 166.918C120.709 166.918 120.847 166.085 120.816 164.744C120.77 163.005 120.426 161.287 119.798 159.664C119.463 158.769 119.024 157.916 118.489 157.124C118.038 156.489 117.476 155.94 116.83 155.503C116.226 155.113 115.574 154.803 114.89 154.579Z" fill="white"/>
<path d="M105.436 168.31C105.436 168.31 105.436 168.244 105.436 168.117C105.437 167.93 105.447 167.744 105.467 167.558C105.527 166.871 105.652 166.191 105.839 165.526C106.461 163.342 107.616 161.346 109.199 159.715C110.768 158.048 112.784 156.867 115.007 156.311C115.675 156.157 116.359 156.084 117.044 156.093C117.229 156.093 117.415 156.105 117.599 156.128C117.726 156.128 117.792 156.154 117.792 156.164C116.865 156.177 115.942 156.287 115.038 156.494C112.872 157.089 110.912 158.267 109.372 159.898C107.813 161.511 106.655 163.467 105.991 165.608C105.749 166.496 105.564 167.398 105.436 168.31Z" fill="white"/>
<path d="M118.138 158.861C118.138 158.831 118.265 158.744 118.449 158.861C118.504 158.901 118.547 158.955 118.573 159.018C118.599 159.081 118.607 159.15 118.596 159.217C118.582 159.301 118.543 159.379 118.484 159.442C118.425 159.504 118.349 159.548 118.265 159.567C118.181 159.581 118.094 159.57 118.016 159.535C117.939 159.499 117.873 159.442 117.828 159.369C117.793 159.311 117.774 159.244 117.774 159.176C117.774 159.108 117.793 159.042 117.828 158.983C117.95 158.795 118.113 158.816 118.113 158.851C118.113 158.887 118.031 158.937 118.001 159.059C117.992 159.089 117.991 159.12 117.997 159.15C118.003 159.18 118.017 159.208 118.036 159.232C118.059 159.258 118.087 159.279 118.119 159.292C118.151 159.305 118.185 159.311 118.22 159.308C118.253 159.298 118.284 159.279 118.308 159.255C118.333 159.23 118.352 159.199 118.362 159.166C118.37 159.137 118.371 159.107 118.365 159.078C118.359 159.049 118.346 159.021 118.327 158.998C118.25 158.907 118.143 158.897 118.138 158.861Z" fill="white"/>
<path d="M108.516 168.132C108.516 168.102 108.644 168.021 108.827 168.132C108.882 168.172 108.925 168.227 108.951 168.289C108.977 168.352 108.985 168.421 108.975 168.488C108.961 168.573 108.922 168.651 108.863 168.713C108.804 168.776 108.727 168.819 108.644 168.838C108.559 168.854 108.472 168.843 108.394 168.808C108.316 168.772 108.25 168.714 108.206 168.64C108.171 168.582 108.152 168.515 108.152 168.447C108.152 168.379 108.171 168.313 108.206 168.254C108.328 168.066 108.491 168.092 108.491 168.122C108.491 168.153 108.409 168.208 108.379 168.335C108.371 168.364 108.37 168.395 108.376 168.424C108.382 168.453 108.395 168.48 108.415 168.503C108.437 168.529 108.465 168.55 108.497 168.563C108.529 168.576 108.563 168.582 108.598 168.579C108.632 168.57 108.663 168.551 108.687 168.527C108.712 168.502 108.731 168.471 108.74 168.437C108.748 168.408 108.749 168.378 108.743 168.349C108.737 168.32 108.724 168.293 108.705 168.269C108.628 168.183 108.521 168.168 108.516 168.132Z" fill="white"/>
<path d="M119.065 162.194C119.065 162.163 119.187 162.082 119.375 162.194C119.43 162.234 119.473 162.288 119.498 162.351C119.523 162.414 119.53 162.483 119.518 162.549C119.506 162.634 119.468 162.713 119.41 162.775C119.351 162.837 119.274 162.88 119.19 162.896C119.106 162.913 119.019 162.903 118.941 162.868C118.863 162.834 118.798 162.775 118.754 162.702C118.719 162.643 118.701 162.577 118.701 162.509C118.701 162.441 118.719 162.374 118.754 162.316C118.876 162.128 119.039 162.153 119.034 162.184C119.029 162.214 118.953 162.275 118.927 162.397C118.918 162.426 118.916 162.456 118.922 162.486C118.928 162.515 118.942 162.542 118.963 162.565C118.985 162.592 119.013 162.613 119.045 162.626C119.077 162.639 119.112 162.644 119.146 162.641C119.179 162.632 119.209 162.614 119.233 162.59C119.257 162.566 119.274 162.536 119.284 162.504C119.293 162.475 119.294 162.444 119.289 162.414C119.284 162.384 119.272 162.355 119.253 162.331C119.172 162.255 119.07 162.255 119.065 162.194Z" fill="white"/>
<path d="M102.387 167.777C102.387 167.751 102.509 167.665 102.697 167.777C102.753 167.817 102.795 167.873 102.821 167.937C102.846 168 102.853 168.07 102.84 168.137C102.828 168.222 102.79 168.301 102.732 168.363C102.673 168.425 102.596 168.467 102.512 168.484C102.429 168.501 102.341 168.491 102.263 168.456C102.185 168.422 102.12 168.363 102.076 168.29C102.04 168.232 102.021 168.165 102.021 168.097C102.021 168.029 102.04 167.962 102.076 167.904C102.199 167.716 102.361 167.736 102.356 167.772C102.351 167.807 102.275 167.858 102.244 167.98C102.237 168.01 102.237 168.04 102.243 168.07C102.249 168.1 102.262 168.128 102.28 168.153C102.302 168.179 102.33 168.2 102.362 168.212C102.394 168.225 102.429 168.229 102.463 168.224C102.497 168.216 102.528 168.199 102.554 168.175C102.579 168.151 102.597 168.12 102.606 168.087C102.615 168.057 102.617 168.027 102.611 167.997C102.606 167.967 102.594 167.938 102.575 167.914C102.494 167.843 102.392 167.843 102.387 167.777Z" fill="white"/>
<path d="M109.825 169.768C108.337 169.769 106.851 169.678 105.375 169.494C103.891 169.402 102.414 169.224 100.951 168.96C102.439 168.959 103.925 169.051 105.401 169.235C106.885 169.327 108.362 169.505 109.825 169.768Z" fill="white"/>
<path d="M104.26 169.245C104.259 169.478 104.328 169.707 104.457 169.901C104.587 170.096 104.771 170.248 104.987 170.338C105.203 170.428 105.441 170.451 105.671 170.406C105.9 170.361 106.111 170.248 106.277 170.083C106.442 169.918 106.555 169.708 106.6 169.479C106.646 169.249 106.622 169.012 106.532 168.797C106.442 168.581 106.289 168.397 106.094 168.268C105.899 168.139 105.67 168.07 105.436 168.071C105.125 168.071 104.825 168.195 104.605 168.415C104.384 168.635 104.26 168.934 104.26 169.245Z" fill="#263238"/>
<g opacity="0.4">
<path d="M106.785 177.032C106.755 177.104 106.332 177.032 105.696 176.641C104.822 176.032 104.112 175.217 103.629 174.269C102.907 172.899 102.438 171.41 102.244 169.875C102.016 167.976 102.179 166.05 102.723 164.216C103.731 160.863 106.023 158.043 109.102 156.367C110.009 155.864 110.982 155.491 111.993 155.26C112.706 155.107 113.119 155.117 113.134 155.199C113.195 155.407 111.647 155.798 109.57 157.165C108.379 157.962 107.31 158.929 106.399 160.035C105.298 161.385 104.474 162.939 103.975 164.607C103.488 166.278 103.315 168.024 103.466 169.758C103.591 171.179 103.934 172.572 104.484 173.888C104.84 174.77 105.358 175.578 106.012 176.27C106.495 176.728 106.831 176.941 106.785 177.032Z" fill="white"/>
</g>
</g>
<defs>
<filter id="filter0_d_15_4" x="0" y="41" width="432" height="392" filterUnits="userSpaceOnUse" color-interpolation-filters="sRGB">
<feFlood flood-opacity="0" result="BackgroundImageFix"/>
<feColorMatrix in="SourceAlpha" type="matrix" values="0 0 0 0 0 0 0 0 0 0 0 0 0 0 0 0 0 0 127 0" result="hardAlpha"/>
<feOffset dy="4"/>
<feGaussianBlur stdDeviation="16"/>
<feComposite in2="hardAlpha" operator="out"/>
<feColorMatrix type="matrix" values="0 0 0 0 0 0 0 0 0 0 0 0 0 0 0 0 0 0 0.1 0"/>
<feBlend mode="normal" in2="BackgroundImageFix" result="effect1_dropShadow_15_4"/>
<feBlend mode="normal" in="SourceGraphic" in2="effect1_dropShadow_15_4" result="shape"/>
</filter>
<filter id="filter1_d_15_4" x="33" y="0" width="432" height="392" filterUnits="userSpaceOnUse" color-interpolation-filters="sRGB">
<feFlood flood-opacity="0" result="BackgroundImageFix"/>
<feColorMatrix in="SourceAlpha" type="matrix" values="0 0 0 0 0 0 0 0 0 0 0 0 0 0 0 0 0 0 127 0" result="hardAlpha"/>
<feOffset dy="4"/>
<feGaussianBlur stdDeviation="16"/>
<feComposite in2="hardAlpha" operator="out"/>
<feColorMatrix type="matrix" values="0 0 0 0 0 0 0 0 0 0 0 0 0 0 0 0 0 0 0.1 0"/>
<feBlend mode="normal" in2="BackgroundImageFix" result="effect1_dropShadow_15_4"/>
<feBlend mode="normal" in="SourceGraphic" in2="effect1_dropShadow_15_4" result="shape"/>
</filter>
<clipPath id="clip0_15_4">
<rect width="350" height="254" fill="white" transform="translate(65 65)"/>
</clipPath>
</defs>
</svg>
