<svg width="57" height="38" viewBox="0 0 57 38" fill="none" xmlns="http://www.w3.org/2000/svg">
<path fill-rule="evenodd" clip-rule="evenodd" d="M45.7852 13.5C43.7852 5.1 33.2852 0 27.7852 0C19.2852 0 13.9519 6.33333 12.2852 9.5C7.2852 10 -1.7148 17.5 0.285197 26C1.8852 32.8 8.95186 36.5 12.2852 37.5H44.7852C48.9519 37.1667 57.0852 34.4 56.2852 26C55.4852 17.6 48.9519 14.1667 45.7852 13.5ZM29.3185 15.1857C29.4667 14.4941 30.0779 14 30.7852 14H39.2852C40.1136 14 40.7852 14.6716 40.7852 15.5C40.7852 16.3284 40.1136 17 39.2852 17H31.9978L29.6406 28H35.7852C36.6136 28 37.2852 28.6716 37.2852 29.5C37.2852 30.3284 36.6136 31 35.7852 31H27.7852C27.3322 31 26.9034 30.7953 26.6187 30.443C26.3339 30.0907 26.2235 29.6286 26.3185 29.1857L29.3185 15.1857ZM17.2852 14C16.4567 14 15.7852 14.6716 15.7852 15.5C15.7852 16.3284 16.4567 17 17.2852 17H23.943L21.3163 29.6961C21.1484 30.5073 21.67 31.301 22.4812 31.4689C23.2925 31.6367 24.0862 31.1152 24.254 30.3039L27.254 15.8039C27.3454 15.3621 27.2332 14.9027 26.9483 14.5529C26.6635 14.203 26.2363 14 25.7852 14H17.2852Z" fill="white"/>
</svg>
