<svg width="18" height="18" viewBox="0 0 18 18" fill="none" xmlns="http://www.w3.org/2000/svg">
<path d="M13.4532 17.4987H5.11987V6.66536L10.9532 0.832031L11.9949 1.8737C12.0921 1.97092 12.1721 2.10286 12.2349 2.26953C12.2971 2.4362 12.3282 2.59592 12.3282 2.7487V3.04036L11.4115 6.66536H15.9532C16.3976 6.66536 16.7865 6.83203 17.1199 7.16536C17.4532 7.4987 17.6199 7.88759 17.6199 8.33203V9.9987C17.6199 10.0959 17.6093 10.2001 17.5882 10.3112C17.5676 10.4223 17.5365 10.5265 17.4949 10.6237L14.9949 16.4987C14.8699 16.7765 14.6615 17.0126 14.3699 17.207C14.0782 17.4015 13.7727 17.4987 13.4532 17.4987ZM3.45321 6.66536V17.4987H0.119873V6.66536H3.45321Z" fill="#181059"/>
</svg>
