<svg width="19" height="14" viewBox="0 0 19 14" fill="none" xmlns="http://www.w3.org/2000/svg">
<path d="M9.45304 0.75C5.28638 0.75 1.72804 3.34167 0.286377 7C1.72804 10.6583 5.28638 13.25 9.45304 13.25C13.6197 13.25 17.178 10.6583 18.6197 7C17.178 3.34167 13.6197 0.75 9.45304 0.75ZM9.45304 11.1667C7.15304 11.1667 5.28638 9.3 5.28638 7C5.28638 4.7 7.15304 2.83333 9.45304 2.83333C11.753 2.83333 13.6197 4.7 13.6197 7C13.6197 9.3 11.753 11.1667 9.45304 11.1667ZM9.45304 4.5C8.06971 4.5 6.95304 5.61667 6.95304 7C6.95304 8.38333 8.06971 9.5 9.45304 9.5C10.8364 9.5 11.953 8.38333 11.953 7C11.953 5.61667 10.8364 4.5 9.45304 4.5Z" fill="#181059"/>
</svg>
