<svg width="18" height="18" viewBox="0 0 18 18" fill="none" xmlns="http://www.w3.org/2000/svg">
<path d="M11.3333 10.668C12.4384 10.668 13.4982 11.107 14.2796 11.8884C15.061 12.6698 15.5 13.7296 15.5 14.8346V15.668C15.5 16.11 15.3244 16.5339 15.0118 16.8465C14.6993 17.159 14.2754 17.3346 13.8333 17.3346H2.16667C1.72464 17.3346 1.30072 17.159 0.988155 16.8465C0.675595 16.5339 0.5 16.11 0.5 15.668V14.8346C0.5 13.7296 0.938987 12.6698 1.72039 11.8884C2.50179 11.107 3.5616 10.668 4.66667 10.668H11.3333ZM15.845 6.5688C15.9946 6.41776 16.1963 6.32961 16.4088 6.3224C16.6213 6.31519 16.8285 6.38947 16.988 6.53002C17.1475 6.67058 17.2473 6.86679 17.2668 7.07849C17.2864 7.29019 17.2244 7.50137 17.0933 7.6688L17.0233 7.74797L14.6667 10.1046C14.5232 10.2481 14.3323 10.3343 14.1297 10.347C13.9272 10.3598 13.727 10.2982 13.5667 10.1738L13.4883 10.1046L12.31 8.9263C12.159 8.77668 12.0708 8.57499 12.0636 8.36251C12.0564 8.15003 12.1307 7.94283 12.2712 7.78332C12.4118 7.62381 12.608 7.52405 12.8197 7.50447C13.0314 7.48488 13.2426 7.54695 13.41 7.67797L13.4883 7.74797L14.0775 8.33714L15.845 6.5688ZM8 0.667969C9.10507 0.667969 10.1649 1.10696 10.9463 1.88836C11.7277 2.66976 12.1667 3.72957 12.1667 4.83464C12.1667 5.9397 11.7277 6.99951 10.9463 7.78091C10.1649 8.56231 9.10507 9.0013 8 9.0013C6.89493 9.0013 5.83512 8.56231 5.05372 7.78091C4.27232 6.99951 3.83333 5.9397 3.83333 4.83464C3.83333 3.72957 4.27232 2.66976 5.05372 1.88836C5.83512 1.10696 6.89493 0.667969 8 0.667969Z" fill="#D39331"/>
</svg>
