<svg width="64" height="64" viewBox="0 0 64 64" fill="none" xmlns="http://www.w3.org/2000/svg">
<g clip-path="url(#clip0_15_8)">
<path d="M32 0C14.327 0 0 14.327 0 32C0 49.674 14.327 64 32 64C49.674 64 64 49.674 64 32C64 14.327 49.674 0 32 0ZM32 60.063C16.561 60.063 4 47.439 4 31.9999C4 16.5609 16.561 3.99988 32 3.99988C47.439 3.99988 60 16.5609 60 31.9999C60 47.4388 47.439 60.063 32 60.063ZM44.771 20.291L25.9959 39.184L17.5409 30.729C16.7599 29.948 15.4939 29.948 14.7119 30.729C13.9309 31.51 13.9309 32.776 14.7119 33.557L24.6109 43.457C25.3919 44.237 26.6579 44.237 27.4399 43.457C27.5299 43.367 27.607 43.2689 27.677 43.167L47.601 23.1199C48.381 22.3389 48.381 21.0729 47.601 20.291C46.819 19.51 45.553 19.51 44.771 20.291Z" fill="#3367D6"/>
</g>
<defs>
<clipPath id="clip0_15_8">
<rect width="64" height="64" fill="white"/>
</clipPath>
</defs>
</svg>
