<svg width="20" height="14" viewBox="0 0 20 14" fill="none" xmlns="http://www.w3.org/2000/svg">
<path d="M11.6666 5.24967V3.83301C12.1249 3.63856 12.5938 3.49273 13.0733 3.39551C13.5521 3.29829 14.0555 3.24967 14.5833 3.24967C14.9444 3.24967 15.2985 3.27745 15.6458 3.33301C15.993 3.38856 16.3333 3.45801 16.6666 3.54134V4.87467C16.3333 4.74967 15.9966 4.65606 15.6566 4.59384C15.316 4.53106 14.9583 4.49967 14.5833 4.49967C14.0555 4.49967 13.5485 4.56579 13.0624 4.69801C12.5763 4.82967 12.111 5.01356 11.6666 5.24967ZM11.6666 9.83301V8.41634C12.1249 8.2219 12.5938 8.07606 13.0733 7.97884C13.5521 7.88162 14.0555 7.83301 14.5833 7.83301C14.9444 7.83301 15.2985 7.86079 15.6458 7.91634C15.993 7.9719 16.3333 8.04134 16.6666 8.12467V9.45801C16.3333 9.33301 15.9966 9.2394 15.6566 9.17717C15.316 9.1144 14.9583 9.08301 14.5833 9.08301C14.0555 9.08301 13.5485 9.14551 13.0624 9.27051C12.5763 9.39551 12.111 9.58301 11.6666 9.83301ZM11.6666 7.54134V6.12467C12.1249 5.93023 12.5938 5.7844 13.0733 5.68717C13.5521 5.58995 14.0555 5.54134 14.5833 5.54134C14.9444 5.54134 15.2985 5.56912 15.6458 5.62467C15.993 5.68023 16.3333 5.74967 16.6666 5.83301V7.16634C16.3333 7.04134 15.9966 6.94773 15.6566 6.88551C15.316 6.82273 14.9583 6.79134 14.5833 6.79134C14.0555 6.79134 13.5485 6.85745 13.0624 6.98967C12.5763 7.12134 12.111 7.30523 11.6666 7.54134ZM10.8333 11.208C11.4444 10.9163 12.0591 10.6975 12.6774 10.5513C13.2952 10.4058 13.9305 10.333 14.5833 10.333C15.0833 10.333 15.573 10.3747 16.0524 10.458C16.5313 10.5413 17.0138 10.6663 17.4999 10.833V2.58301C17.0416 2.38856 16.566 2.24273 16.0733 2.14551C15.5799 2.04829 15.0833 1.99967 14.5833 1.99967C13.9305 1.99967 13.2846 2.08301 12.6458 2.24967C12.0069 2.41634 11.4027 2.66634 10.8333 2.99967V11.208ZM9.99992 13.6663C9.33325 13.1386 8.61103 12.7288 7.83325 12.4372C7.05547 12.1455 6.24992 11.9997 5.41659 11.9997C4.83325 11.9997 4.26047 12.0761 3.69825 12.2288C3.13547 12.3816 2.59714 12.5969 2.08325 12.8747C1.79159 13.0275 1.51047 13.0205 1.23992 12.8538C0.968808 12.6872 0.833252 12.4441 0.833252 12.1247V2.08301C0.833252 1.93023 0.871585 1.7844 0.948252 1.64551C1.02436 1.50662 1.13881 1.40245 1.29159 1.33301C1.94436 1.01356 2.61464 0.766897 3.30242 0.593008C3.98964 0.419674 4.69436 0.333008 5.41659 0.333008C6.22214 0.333008 7.01047 0.437174 7.78159 0.645508C8.55214 0.853841 9.29159 1.16634 9.99992 1.58301C10.7083 1.16634 11.448 0.853841 12.2191 0.645508C12.9896 0.437174 13.7777 0.333008 14.5833 0.333008C15.3055 0.333008 16.0105 0.419674 16.6983 0.593008C17.3855 0.766897 18.0555 1.01356 18.7083 1.33301C18.861 1.40245 18.9758 1.50662 19.0524 1.64551C19.1285 1.7844 19.1666 1.93023 19.1666 2.08301V12.1247C19.1666 12.4441 19.0313 12.6872 18.7608 12.8538C18.4896 13.0205 18.2083 13.0275 17.9166 12.8747C17.4027 12.5969 16.8644 12.3816 16.3016 12.2288C15.7394 12.0761 15.1666 11.9997 14.5833 11.9997C13.7499 11.9997 12.9444 12.1455 12.1666 12.4372C11.3888 12.7288 10.6666 13.1386 9.99992 13.6663Z" fill="#181059"/>
</svg>
