<svg width="24" height="24" viewBox="0 0 24 24" fill="none" xmlns="http://www.w3.org/2000/svg">
<path d="M10.2109 18.0001C9.7546 18.0001 9.3224 17.8261 9.04546 17.5261L5.29732 13.4791C5.18144 13.3541 5.09684 13.2117 5.04836 13.06C4.99987 12.9083 4.98846 12.7503 5.01476 12.5949C5.04107 12.4396 5.10458 12.2901 5.20166 12.1548C5.29874 12.0195 5.4275 11.9013 5.58056 11.8067C5.73357 11.7117 5.908 11.6424 6.09387 11.6026C6.27974 11.5628 6.47339 11.5534 6.66371 11.5749C6.85403 11.5964 7.03729 11.6484 7.20299 11.7279C7.36868 11.8074 7.51355 11.9128 7.62929 12.0381L10.0955 14.699L16.2963 6.5622C16.5019 6.29354 16.8296 6.10251 17.2073 6.031C17.5851 5.95949 17.9822 6.01333 18.3114 6.18073C18.9964 6.52877 19.2073 7.26598 18.7793 7.8266L11.453 17.4361C11.3279 17.6008 11.1555 17.7382 10.9508 17.8362C10.746 17.9342 10.5151 17.9899 10.2781 17.9984C10.255 18.0001 10.234 18.0001 10.2109 18.0001Z" fill="#25AD84"/>
</svg>
