<svg width="18" height="18" viewBox="0 0 18 18" fill="none" xmlns="http://www.w3.org/2000/svg">
<path d="M9.00008 0.666992C7.90573 0.666992 6.8221 0.88254 5.81105 1.30133C4.80001 1.72012 3.88135 2.33395 3.10752 3.10777C1.54472 4.67057 0.666748 6.79019 0.666748 9.00033C0.666748 11.2105 1.54472 13.3301 3.10752 14.8929C3.88135 15.6667 4.80001 16.2805 5.81105 16.6993C6.8221 17.1181 7.90573 17.3337 9.00008 17.3337C11.2102 17.3337 13.3298 16.4557 14.8926 14.8929C16.4554 13.3301 17.3334 11.2105 17.3334 9.00033C17.3334 7.90598 17.1179 6.82234 16.6991 5.8113C16.2803 4.80025 15.6665 3.88159 14.8926 3.10777C14.1188 2.33395 13.2002 1.72012 12.1891 1.30133C11.1781 0.88254 10.0944 0.666992 9.00008 0.666992ZM12.5001 12.5003L8.16675 9.83366V4.83366H9.41675V9.16699L13.1667 11.417L12.5001 12.5003Z" fill="#181059"/>
</svg>
