<svg width="15" height="18" viewBox="0 0 15 18" fill="none" xmlns="http://www.w3.org/2000/svg">
<path d="M2.16667 17.3346C1.70833 17.3346 1.31583 17.1716 0.989167 16.8455C0.663055 16.5188 0.5 16.1263 0.5 15.668V4.0013H2.16667V15.668H11.3333V17.3346H2.16667ZM5.5 14.0013C5.04167 14.0013 4.64944 13.8382 4.32333 13.5121C3.99667 13.1855 3.83333 12.793 3.83333 12.3346V2.33464C3.83333 1.8763 3.99667 1.4838 4.32333 1.15714C4.64944 0.831024 5.04167 0.667969 5.5 0.667969H13C13.4583 0.667969 13.8508 0.831024 14.1775 1.15714C14.5036 1.4838 14.6667 1.8763 14.6667 2.33464V12.3346C14.6667 12.793 14.5036 13.1855 14.1775 13.5121C13.8508 13.8382 13.4583 14.0013 13 14.0013H5.5Z" fill="#3F6FD8"/>
</svg>
