<svg width="18" height="18" viewBox="0 0 18 18" fill="none" xmlns="http://www.w3.org/2000/svg">
<path d="M13.9998 0.666504C13.2498 0.666504 12.3332 1.49984 12.3332 2.33317H5.6665C5.6665 1.49984 4.74984 0.666504 3.99984 0.666504H0.666504V8.1665C0.666504 8.99984 1.49984 9.83317 2.33317 9.83317H4.1665C4.49984 11.4998 5.58317 12.9165 8.1665 13.1665V14.8998C5.6665 15.2832 5.6665 17.3332 5.6665 17.3332H12.3332C12.3332 17.3332 12.3332 15.2832 9.83317 14.8998V13.1665C12.4165 12.9165 13.4998 11.4998 13.8332 9.83317H15.6665C16.4998 9.83317 17.3332 8.99984 17.3332 8.1665V0.666504H13.9998ZM3.99984 8.1665H2.33317V2.33317H3.99984V8.1665ZM15.6665 8.1665H13.9998V2.33317H15.6665V8.1665Z" fill="#181059"/>
</svg>
