<svg width="43" height="40" viewBox="0 0 43 40" fill="none" xmlns="http://www.w3.org/2000/svg">
<path d="M41.041 16.5467C41.8331 16.3039 42.2783 15.465 42.0355 14.6729L38.0785 1.76589C37.8356 0.973849 36.9967 0.528619 36.2047 0.771441C35.4126 1.01426 34.9674 1.85318 35.2102 2.64523L38.7276 14.1182L27.2546 17.6355C26.4626 17.8783 26.0174 18.7172 26.2602 19.5093C26.503 20.3013 27.3419 20.7466 28.134 20.5037L41.041 16.5467ZM8.2485 27.737C7.39854 24.8045 6.88518 21.4672 7.09685 18.4216C7.30937 15.3638 8.23555 12.7808 10.0723 11.092C11.8765 9.43306 14.8313 8.38976 19.6583 8.97015C24.5086 9.55335 31.0954 11.7658 39.8982 16.4376L41.3045 13.7876C32.3456 9.033 25.3854 6.63716 20.0164 5.99161C14.6241 5.34324 10.6876 6.45073 8.04174 8.88359C5.42839 11.2865 4.34575 14.7363 4.10407 18.2136C3.86155 21.7031 4.44862 25.4033 5.36709 28.5721L8.2485 27.737Z" fill="#3F6FD8"/>
</svg>
