<svg width="15" height="14" viewBox="0 0 15 14" fill="none" xmlns="http://www.w3.org/2000/svg">
<path d="M10.9997 -0.000325182L3.66634 -0.000324541L3.66634 8.66634L8.33301 13.333L9.16634 12.4997C9.24412 12.4219 9.30812 12.3163 9.35834 12.183C9.40812 12.0497 9.43301 11.9219 9.43301 11.7997L9.43301 11.5663L8.69967 8.66634L12.9997 8.66634C13.3552 8.66634 13.6663 8.53301 13.933 8.26634C14.1997 7.99967 14.333 7.68856 14.333 7.33301L14.333 5.99967C14.333 5.9219 14.3219 5.83856 14.2997 5.74967C14.2775 5.66078 14.2552 5.57745 14.233 5.49967L12.233 0.799675C12.133 0.577453 11.9663 0.388563 11.733 0.233007C11.4997 0.0774526 11.2552 -0.000326158 10.9997 -0.000325182ZM4.99967 1.33301L10.9997 1.33301L12.9997 5.99967L12.9997 7.33301L6.99967 7.33301L7.89967 10.9997L4.99967 8.09967L4.99967 1.33301ZM4.99967 8.09967L4.99967 1.33301L4.99967 8.09967ZM3.66634 8.66634L3.66634 7.33301L1.66634 7.33301L1.66634 1.33301L3.66634 1.33301L3.66634 -0.000324541L0.333007 -0.000324249L0.333007 8.66634L3.66634 8.66634Z" fill="black"/>
</svg>
