<svg width="18" height="18" viewBox="0 0 18 18" fill="none" xmlns="http://www.w3.org/2000/svg">
<path d="M9.00022 0.111328C7.24217 0.111328 5.52359 0.632652 4.06182 1.60938C2.60005 2.5861 1.46074 3.97435 0.787959 5.59859C0.11518 7.22282 -0.0608501 9.01008 0.28213 10.7344C0.625109 12.4586 1.47169 14.0425 2.71483 15.2856C3.95796 16.5287 5.54181 17.3753 7.26609 17.7183C8.99036 18.0613 10.7776 17.8853 12.4019 17.2125C14.0261 16.5397 15.4143 15.4004 16.3911 13.9386C17.3678 12.4768 17.8891 10.7583 17.8891 9.00022C17.8891 6.64274 16.9526 4.38181 15.2856 2.71482C13.6186 1.04783 11.3577 0.111328 9.00022 0.111328ZM3.93911 6.71688C3.93911 6.49713 4.00428 6.2823 4.12637 6.09958C4.24846 5.91686 4.42199 5.77445 4.62502 5.69035C4.82805 5.60625 5.05145 5.58425 5.26699 5.62712C5.48252 5.67 5.6805 5.77582 5.8359 5.93121C5.99129 6.0866 6.09711 6.28458 6.13998 6.50012C6.18286 6.71565 6.16085 6.93906 6.07675 7.14209C5.99266 7.34512 5.85024 7.51865 5.66752 7.64074C5.4848 7.76283 5.26998 7.828 5.05022 7.828C4.75554 7.828 4.47292 7.71093 4.26455 7.50256C4.05617 7.29418 3.93911 7.01157 3.93911 6.71688ZM9.07244 14.6724C8.05327 14.6738 7.05994 14.3518 6.23535 13.7528C5.41076 13.1538 4.79742 12.3087 4.48355 11.3391H13.6558C13.3422 12.3078 12.7297 13.1523 11.9062 13.7512C11.0828 14.3501 10.0907 14.6726 9.07244 14.6724ZM12.9224 7.828C12.7027 7.828 12.4879 7.76283 12.3051 7.64074C12.1224 7.51865 11.98 7.34512 11.8959 7.14209C11.8118 6.93906 11.7898 6.71565 11.8327 6.50012C11.8756 6.28458 11.9814 6.0866 12.1368 5.93121C12.2922 5.77582 12.4901 5.67 12.7057 5.62712C12.9212 5.58425 13.1446 5.60625 13.3476 5.69035C13.5507 5.77445 13.7242 5.91686 13.8463 6.09958C13.9684 6.2823 14.0336 6.49713 14.0336 6.71688C14.0336 6.86327 14.0046 7.00821 13.9484 7.14337C13.8923 7.27854 13.8099 7.40128 13.7062 7.50453C13.6024 7.60778 13.4792 7.68951 13.3438 7.74502C13.2084 7.80053 13.0633 7.82873 12.9169 7.828H12.9224Z" fill="#D39331"/>
</svg>
