<svg width="22" height="16" viewBox="0 0 22 16" fill="none" xmlns="http://www.w3.org/2000/svg">
<path d="M12.8327 6.07484V4.5165C13.3369 4.30261 13.8526 4.1422 14.38 4.03525C14.9068 3.92831 15.4605 3.87484 16.041 3.87484C16.4382 3.87484 16.8278 3.90539 17.2098 3.9665C17.5917 4.02761 17.966 4.104 18.3327 4.19567V5.66234C17.966 5.52484 17.5957 5.42186 17.2217 5.35342C16.8471 5.28436 16.4535 5.24984 16.041 5.24984C15.4605 5.24984 14.9028 5.32256 14.3681 5.468C13.8334 5.61284 13.3216 5.81511 12.8327 6.07484ZM12.8327 11.1165V9.55817C13.3369 9.34428 13.8526 9.18386 14.38 9.07692C14.9068 8.96998 15.4605 8.9165 16.041 8.9165C16.4382 8.9165 16.8278 8.94706 17.2098 9.00817C17.5917 9.06928 17.966 9.14567 18.3327 9.23734V10.704C17.966 10.5665 17.5957 10.4635 17.2217 10.3951C16.8471 10.326 16.4535 10.2915 16.041 10.2915C15.4605 10.2915 14.9028 10.3603 14.3681 10.4978C13.8334 10.6353 13.3216 10.8415 12.8327 11.1165ZM12.8327 8.59567V7.03734C13.3369 6.82345 13.8526 6.66303 14.38 6.55609C14.9068 6.44914 15.4605 6.39567 16.041 6.39567C16.4382 6.39567 16.8278 6.42623 17.2098 6.48734C17.5917 6.54845 17.966 6.62484 18.3327 6.7165V8.18317C17.966 8.04567 17.5957 7.9427 17.2217 7.87425C16.8471 7.8052 16.4535 7.77067 16.041 7.77067C15.4605 7.77067 14.9028 7.84339 14.3681 7.98884C13.8334 8.13367 13.3216 8.33595 12.8327 8.59567ZM11.916 12.629C12.5882 12.3082 13.2644 12.0674 13.9446 11.9067C14.6242 11.7466 15.323 11.6665 16.041 11.6665C16.591 11.6665 17.1297 11.7123 17.6571 11.804C18.1839 11.8957 18.7146 12.0332 19.2494 12.2165V3.1415C18.7452 2.92761 18.2221 2.7672 17.68 2.66025C17.1374 2.55331 16.591 2.49984 16.041 2.49984C15.323 2.49984 14.6125 2.5915 13.9098 2.77484C13.207 2.95817 12.5424 3.23317 11.916 3.59984V12.629ZM10.9993 15.3332C10.266 14.7526 9.47157 14.3019 8.61602 13.9811C7.76046 13.6603 6.87435 13.4998 5.95768 13.4998C5.31602 13.4998 4.68596 13.5839 4.06752 13.7519C3.44846 13.92 2.85629 14.1568 2.29102 14.4623C1.97018 14.6304 1.66096 14.6228 1.36335 14.4394C1.06513 14.2561 0.916016 13.9887 0.916016 13.6373V2.5915C0.916016 2.42345 0.958182 2.26303 1.04252 2.11025C1.12624 1.95748 1.25213 1.84289 1.42018 1.7665C2.13824 1.41511 2.87554 1.14378 3.6321 0.952504C4.38804 0.761837 5.16324 0.666504 5.95768 0.666504C6.84379 0.666504 7.71096 0.781087 8.55918 1.01025C9.40679 1.23942 10.2202 1.58317 10.9993 2.0415C11.7785 1.58317 12.5922 1.23942 13.4404 1.01025C14.288 0.781087 15.1549 0.666504 16.041 0.666504C16.8355 0.666504 17.611 0.761837 18.3675 0.952504C19.1235 1.14378 19.8605 1.41511 20.5785 1.7665C20.7466 1.84289 20.8728 1.95748 20.9571 2.11025C21.0408 2.26303 21.0827 2.42345 21.0827 2.5915V13.6373C21.0827 13.9887 20.9339 14.2561 20.6363 14.4394C20.338 14.6228 20.0285 14.6304 19.7077 14.4623C19.1424 14.1568 18.5502 13.92 17.9312 13.7519C17.3127 13.5839 16.6827 13.4998 16.041 13.4998C15.1243 13.4998 14.2382 13.6603 13.3827 13.9811C12.5271 14.3019 11.7327 14.7526 10.9993 15.3332Z" fill="white"/>
</svg>
