<svg width="64" height="64" viewBox="0 0 64 64" fill="none" xmlns="http://www.w3.org/2000/svg">
<path d="M50.6667 37.3333H13.3333C10.3878 37.3333 8 39.7211 8 42.6666V50.6666C8 53.6122 10.3878 56 13.3333 56H50.6667C53.6122 56 56 53.6122 56 50.6666V42.6666C56 39.7211 53.6122 37.3333 50.6667 37.3333Z" stroke="#3367D6" stroke-width="4"/>
<path d="M26.6667 9.33331H13.3333C11.9188 9.33331 10.5623 9.89522 9.5621 10.8954C8.5619 11.8956 8 13.2522 8 14.6666V22.6666C8 24.0811 8.5619 25.4377 9.5621 26.4379C10.5623 27.4381 11.9188 28 13.3333 28H26.6667" stroke="#3367D6" stroke-width="4" stroke-linecap="round"/>
<path d="M45.3333 29.3333C51.2244 29.3333 56 24.5577 56 18.6667C56 12.7756 51.2244 8 45.3333 8C39.4423 8 34.6667 12.7756 34.6667 18.6667C34.6667 24.5577 39.4423 29.3333 45.3333 29.3333Z" stroke="#3367D6" stroke-width="4"/>
<path d="M45.3333 22.6667C47.5425 22.6667 49.3333 20.8758 49.3333 18.6667C49.3333 16.4575 47.5425 14.6667 45.3333 14.6667C43.1242 14.6667 41.3333 16.4575 41.3333 18.6667C41.3333 20.8758 43.1242 22.6667 45.3333 22.6667Z" fill="#3367D6"/>
</svg>
