<svg width="48" height="47" viewBox="0 0 48 47" fill="none" xmlns="http://www.w3.org/2000/svg">
<path d="M25.8379 29.5195C24.8288 29.5195 24.2451 30.478 24.2451 31.7565C24.2451 33.0468 24.8522 33.9545 25.8458 33.9545C26.8549 33.9545 27.4308 32.998 27.4308 31.7175C27.4308 30.5385 26.8627 29.5195 25.8379 29.5195Z" fill="#3F6FD8"/>
<path d="M28.1352 3.90234H12.5192C11.4838 3.90234 10.4908 4.31366 9.75869 5.0458C9.02655 5.77794 8.61523 6.77094 8.61523 7.80634V39.0383C8.61523 40.0737 9.02655 41.0667 9.75869 41.7989C10.4908 42.531 11.4838 42.9423 12.5192 42.9423H35.9432C36.9786 42.9423 37.9716 42.531 38.7038 41.7989C39.4359 41.0667 39.8472 40.0737 39.8472 39.0383V15.6143L28.1352 3.90234ZM16.4662 32.6046C16.4662 34.4804 15.5663 35.1343 14.1238 35.1343C13.7802 35.1343 13.3313 35.0777 13.0365 34.9782L13.2044 33.7777C13.4074 33.846 13.6709 33.8948 13.9676 33.8948C14.5903 33.8948 14.9827 33.6118 14.9827 32.587V28.4448H16.4681L16.4662 32.6046ZM19.3141 35.1246C18.5626 35.1246 17.8189 34.9294 17.45 34.7244L17.7525 33.4927C18.1508 33.6977 18.7695 33.9046 19.4039 33.9046C20.0871 33.9046 20.4463 33.6196 20.4463 33.1921C20.4463 32.7802 20.1359 32.546 19.3454 32.2629C18.2484 31.8823 17.5359 31.2752 17.5359 30.3188C17.5359 29.1944 18.4748 28.3336 20.0286 28.3336C20.7703 28.3336 21.3149 28.4897 21.7093 28.6674L21.3735 29.8678C21.11 29.741 20.6415 29.5555 19.9973 29.5555C19.3532 29.5555 19.0389 29.8483 19.0389 30.1899C19.0389 30.6096 19.4098 30.797 20.2628 31.1191C21.4262 31.5485 21.9728 32.1536 21.9728 33.0828C21.9747 34.1876 21.1217 35.1246 19.3141 35.1246ZM25.7675 35.1343C23.8135 35.1343 22.6716 33.6606 22.6716 31.7847C22.6716 29.8093 23.9326 28.3336 25.8768 28.3336C27.8971 28.3336 29.0019 29.8483 29.0019 31.6656C29 33.8265 27.6921 35.1343 25.7675 35.1343ZM35.424 35.027H33.8585L32.4511 32.4855C32.0301 31.7317 31.6489 30.9563 31.3092 30.1626L31.278 30.1724C31.3189 31.041 31.3385 31.9702 31.3385 33.0457V35.0289H29.9701V28.4448H31.7093L33.0777 30.8575C33.4681 31.5485 33.8585 32.3703 34.1552 33.1121H34.1825C34.0849 32.2434 34.0557 31.3553 34.0557 30.3676V28.4448H35.426V35.027H35.424ZM28.1352 17.5663H26.1832V7.80634L35.9432 17.5663H28.1352Z" fill="#3F6FD8"/>
</svg>
