<svg width="64" height="64" viewBox="0 0 64 64" fill="none" xmlns="http://www.w3.org/2000/svg">
<path d="M27.5 28.25C27.5 29.1364 27.3254 30.0142 26.9862 30.8331C26.647 31.6521 26.1498 32.3962 25.523 33.023C24.8962 33.6498 24.1521 34.147 23.3331 34.4862C22.5142 34.8254 21.6364 35 20.75 35C19.8636 35 18.9858 34.8254 18.1669 34.4862C17.3479 34.147 16.6038 33.6498 15.977 33.023C15.3502 32.3962 14.853 31.6521 14.5138 30.8331C14.1746 30.0142 14 29.1364 14 28.25C14 26.4598 14.7112 24.7429 15.977 23.477C17.2429 22.2112 18.9598 21.5 20.75 21.5C22.5402 21.5 24.2571 22.2112 25.523 23.477C26.7888 24.7429 27.5 26.4598 27.5 28.25ZM23.75 28.25C23.75 27.4544 23.4339 26.6913 22.8713 26.1287C22.3087 25.5661 21.5456 25.25 20.75 25.25C19.9544 25.25 19.1913 25.5661 18.6287 26.1287C18.0661 26.6913 17.75 27.4544 17.75 28.25C17.75 29.0456 18.0661 29.8087 18.6287 30.3713C19.1913 30.9339 19.9544 31.25 20.75 31.25C21.5456 31.25 22.3087 30.9339 22.8713 30.3713C23.4339 29.8087 23.75 29.0456 23.75 28.25ZM20.75 51.5C22.5402 51.5 24.2571 50.7888 25.523 49.523C26.7888 48.2571 27.5 46.5402 27.5 44.75C27.5 42.9598 26.7888 41.2429 25.523 39.977C24.2571 38.7112 22.5402 38 20.75 38C18.9598 38 17.2429 38.7112 15.977 39.977C14.7112 41.2429 14 42.9598 14 44.75C14 46.5402 14.7112 48.2571 15.977 49.523C17.2429 50.7888 18.9598 51.5 20.75 51.5ZM20.75 47.75C19.9544 47.75 19.1913 47.4339 18.6287 46.8713C18.0661 46.3087 17.75 45.5457 17.75 44.75C17.75 43.9543 18.0661 43.1913 18.6287 42.6287C19.1913 42.0661 19.9544 41.75 20.75 41.75C21.5456 41.75 22.3087 42.0661 22.8713 42.6287C23.4339 43.1913 23.75 43.9543 23.75 44.75C23.75 45.5457 23.4339 46.3087 22.8713 46.8713C22.3087 47.4339 21.5456 47.75 20.75 47.75ZM15.875 14C15.3777 14 14.9008 14.1975 14.5492 14.5492C14.1975 14.9008 14 15.3777 14 15.875C14 16.3723 14.1975 16.8492 14.5492 17.2008C14.9008 17.5525 15.3777 17.75 15.875 17.75H48.125C48.6223 17.75 49.0992 17.5525 49.4508 17.2008C49.8025 16.8492 50 16.3723 50 15.875C50 15.3777 49.8025 14.9008 49.4508 14.5492C49.0992 14.1975 48.6223 14 48.125 14H15.875ZM30.5 28.625C30.5 27.59 31.34 26.75 32.375 26.75H48.125C48.6223 26.75 49.0992 26.9475 49.4508 27.2992C49.8025 27.6508 50 28.1277 50 28.625C50 29.1223 49.8025 29.5992 49.4508 29.9508C49.0992 30.3025 48.6223 30.5 48.125 30.5H32.375C31.34 30.5 30.5 29.66 30.5 28.625ZM32.375 42.5C31.8777 42.5 31.4008 42.6975 31.0492 43.0492C30.6975 43.4008 30.5 43.8777 30.5 44.375C30.5 44.8723 30.6975 45.3492 31.0492 45.7008C31.4008 46.0525 31.8777 46.25 32.375 46.25H48.125C48.6223 46.25 49.0992 46.0525 49.4508 45.7008C49.8025 45.3492 50 44.8723 50 44.375C50 43.8777 49.8025 43.4008 49.4508 43.0492C49.0992 42.6975 48.6223 42.5 48.125 42.5H32.375ZM14.375 5C11.8886 5 9.50403 5.98772 7.74587 7.74587C5.98772 9.50403 5 11.8886 5 14.375V49.625C5 52.1114 5.98772 54.496 7.74587 56.2541C9.50403 58.0123 11.8886 59 14.375 59H49.625C52.1114 59 54.496 58.0123 56.2541 56.2541C58.0123 54.496 59 52.1114 59 49.625V14.375C59 11.8886 58.0123 9.50403 56.2541 7.74587C54.496 5.98772 52.1114 5 49.625 5H14.375ZM8.75 14.375C8.75 12.8832 9.34263 11.4524 10.3975 10.3975C11.4524 9.34263 12.8832 8.75 14.375 8.75H49.625C51.1168 8.75 52.5476 9.34263 53.6025 10.3975C54.6574 11.4524 55.25 12.8832 55.25 14.375V49.625C55.25 51.1168 54.6574 52.5476 53.6025 53.6025C52.5476 54.6574 51.1168 55.25 49.625 55.25H14.375C12.8832 55.25 11.4524 54.6574 10.3975 53.6025C9.34263 52.5476 8.75 51.1168 8.75 49.625V14.375Z" fill="#3367D6"/>
</svg>
