<svg width="38" height="24" viewBox="0 0 38 24" fill="none" xmlns="http://www.w3.org/2000/svg">
<path d="M19.059 0.800781C20.4946 0.800781 21.8714 1.36849 22.8865 2.37901C23.9017 3.38954 24.472 4.7601 24.472 6.1892C24.472 7.6183 23.9017 8.98886 22.8865 9.99939C21.8714 11.0099 20.4946 11.5776 19.059 11.5776C17.6233 11.5776 16.2465 11.0099 15.2314 9.99939C14.2162 8.98886 13.6459 7.6183 13.6459 6.1892C13.6459 4.7601 14.2162 3.38954 15.2314 2.37901C16.2465 1.36849 17.6233 0.800781 19.059 0.800781ZM8.2329 4.64965C9.09898 4.64965 9.90321 4.88058 10.5992 5.29626C10.3672 7.49782 11.0167 9.68397 12.3468 11.3929C11.5735 12.8708 10.0269 13.8869 8.2329 13.8869C7.00236 13.8869 5.82223 13.4003 4.95211 12.5342C4.08199 11.668 3.59316 10.4932 3.59316 9.2683C3.59316 8.04335 4.08199 6.86858 4.95211 6.00242C5.82223 5.13626 7.00236 4.64965 8.2329 4.64965ZM29.885 4.64965C31.1156 4.64965 32.2957 5.13626 33.1658 6.00242C34.0359 6.86858 34.5248 8.04335 34.5248 9.2683C34.5248 10.4932 34.0359 11.668 33.1658 12.5342C32.2957 13.4003 31.1156 13.8869 29.885 13.8869C28.091 13.8869 26.5444 12.8708 25.7711 11.3929C27.1195 9.65999 27.7454 7.47656 27.5187 5.29626C28.2147 4.88058 29.0189 4.64965 29.885 4.64965ZM9.00619 20.43C9.00619 17.2432 13.5067 14.6567 19.059 14.6567C24.6112 14.6567 29.1117 17.2432 29.1117 20.43V23.1242H9.00619V20.43ZM0.5 23.1242V20.8149C0.5 18.6749 3.42304 16.8737 7.38228 16.3502C6.4698 17.3971 5.91303 18.8443 5.91303 20.43V23.1242H0.5ZM37.6179 23.1242H32.2049V20.43C32.2049 18.8443 31.6481 17.3971 30.7356 16.3502C34.6949 16.8737 37.6179 18.6749 37.6179 20.8149V23.1242Z" fill="#3367D6"/>
</svg>
