<svg width="20" height="20" viewBox="0 0 20 20" fill="none" xmlns="http://www.w3.org/2000/svg">
<path d="M5.00033 10.8335H12.5003V9.16683H5.00033V10.8335ZM5.00033 8.3335H12.5003V6.66683H5.00033V8.3335ZM3.33366 16.6668C2.87533 16.6668 2.4831 16.5038 2.15699 16.1777C1.83033 15.851 1.66699 15.4585 1.66699 15.0002V5.00016C1.66699 4.54183 1.83033 4.14961 2.15699 3.8235C2.4831 3.49683 2.87533 3.3335 3.33366 3.3335H16.667C17.1253 3.3335 17.5178 3.49683 17.8445 3.8235C18.1706 4.14961 18.3337 4.54183 18.3337 5.00016V15.0002C18.3337 15.4585 18.1706 15.851 17.8445 16.1777C17.5178 16.5038 17.1253 16.6668 16.667 16.6668H3.33366Z" fill="#3F6FD8"/>
</svg>
