<svg width="20" height="20" viewBox="0 0 20 20" fill="none" xmlns="http://www.w3.org/2000/svg">
<path d="M11.6663 8.25016V6.8335C12.1247 6.63905 12.5936 6.49322 13.073 6.396C13.5519 6.29877 14.0552 6.25016 14.583 6.25016C14.9441 6.25016 15.2983 6.27794 15.6455 6.3335C15.9927 6.38905 16.333 6.4585 16.6663 6.54183V7.87516C16.333 7.75016 15.9963 7.65655 15.6563 7.59433C15.3158 7.53155 14.958 7.50016 14.583 7.50016C14.0552 7.50016 13.5483 7.56627 13.0622 7.6985C12.5761 7.83016 12.1108 8.01405 11.6663 8.25016ZM11.6663 12.8335V11.4168C12.1247 11.2224 12.5936 11.0766 13.073 10.9793C13.5519 10.8821 14.0552 10.8335 14.583 10.8335C14.9441 10.8335 15.2983 10.8613 15.6455 10.9168C15.9927 10.9724 16.333 11.0418 16.6663 11.1252V12.4585C16.333 12.3335 15.9963 12.2399 15.6563 12.1777C15.3158 12.1149 14.958 12.0835 14.583 12.0835C14.0552 12.0835 13.5483 12.146 13.0622 12.271C12.5761 12.396 12.1108 12.5835 11.6663 12.8335ZM11.6663 10.5418V9.12516C12.1247 8.93072 12.5936 8.78488 13.073 8.68766C13.5519 8.59044 14.0552 8.54183 14.583 8.54183C14.9441 8.54183 15.2983 8.56961 15.6455 8.62516C15.9927 8.68072 16.333 8.75016 16.6663 8.8335V10.1668C16.333 10.0418 15.9963 9.94822 15.6563 9.886C15.3158 9.82322 14.958 9.79183 14.583 9.79183C14.0552 9.79183 13.5483 9.85794 13.0622 9.99016C12.5761 10.1218 12.1108 10.3057 11.6663 10.5418ZM10.833 14.2085C11.4441 13.9168 12.0588 13.6979 12.6772 13.5518C13.295 13.4063 13.9302 13.3335 14.583 13.3335C15.083 13.3335 15.5727 13.3752 16.0522 13.4585C16.5311 13.5418 17.0136 13.6668 17.4997 13.8335V5.5835C17.0413 5.38905 16.5658 5.24322 16.073 5.146C15.5797 5.04877 15.083 5.00016 14.583 5.00016C13.9302 5.00016 13.2844 5.0835 12.6455 5.25016C12.0066 5.41683 11.4025 5.66683 10.833 6.00016V14.2085ZM9.99967 16.6668C9.33301 16.1391 8.61079 15.7293 7.83301 15.4377C7.05523 15.146 6.24967 15.0002 5.41634 15.0002C4.83301 15.0002 4.26023 15.0766 3.69801 15.2293C3.13523 15.3821 2.5969 15.5974 2.08301 15.8752C1.79134 16.0279 1.51023 16.021 1.23967 15.8543C0.968563 15.6877 0.833008 15.4446 0.833008 15.1252V5.0835C0.833008 4.93072 0.871341 4.78488 0.948008 4.646C1.02412 4.50711 1.13856 4.40294 1.29134 4.3335C1.94412 4.01405 2.6144 3.76738 3.30217 3.5935C3.9894 3.42016 4.69412 3.3335 5.41634 3.3335C6.2219 3.3335 7.01023 3.43766 7.78134 3.646C8.5519 3.85433 9.29134 4.16683 9.99967 4.5835C10.708 4.16683 11.4477 3.85433 12.2188 3.646C12.9894 3.43766 13.7775 3.3335 14.583 3.3335C15.3052 3.3335 16.0102 3.42016 16.698 3.5935C17.3852 3.76738 18.0552 4.01405 18.708 4.3335C18.8608 4.40294 18.9755 4.50711 19.0522 4.646C19.1283 4.78488 19.1663 4.93072 19.1663 5.0835V15.1252C19.1663 15.4446 19.0311 15.6877 18.7605 15.8543C18.4894 16.021 18.208 16.0279 17.9163 15.8752C17.4025 15.5974 16.8641 15.3821 16.3013 15.2293C15.7391 15.0766 15.1663 15.0002 14.583 15.0002C13.7497 15.0002 12.9441 15.146 12.1663 15.4377C11.3886 15.7293 10.6663 16.1391 9.99967 16.6668Z" fill="#3F6FD8"/>
</svg>
