<svg width="12" height="20" viewBox="0 0 12 20" fill="none" xmlns="http://www.w3.org/2000/svg">
<path d="M10.8799 0.87993C10.7638 0.763522 10.6259 0.671164 10.474 0.608148C10.3221 0.545132 10.1593 0.512695 9.99492 0.512695C9.8305 0.512695 9.66769 0.545132 9.51583 0.608148C9.36397 0.671164 9.22603 0.763522 9.10991 0.87993L0.699914 9.28993C0.607211 9.38244 0.533663 9.49233 0.483482 9.61331C0.4333 9.73428 0.407471 9.86396 0.407471 9.99493C0.407471 10.1259 0.4333 10.2556 0.483482 10.3766C0.533663 10.4975 0.607211 10.6074 0.699914 10.6999L9.10991 19.1099C9.59991 19.5999 10.3899 19.5999 10.8799 19.1099C11.3699 18.6199 11.3699 17.8299 10.8799 17.3399L3.53991 9.99993L10.8899 2.64993C11.3699 2.15993 11.3699 1.36993 10.8799 0.87993Z" fill="#D39331"/>
</svg>
