<svg width="15" height="14" viewBox="0 0 15 14" fill="none" xmlns="http://www.w3.org/2000/svg">
<path d="M10.9997 14.0003H4.33301V5.33366L8.99967 0.666992L9.83301 1.50033C9.91079 1.5781 9.97479 1.68366 10.025 1.81699C10.0748 1.95033 10.0997 2.0781 10.0997 2.20033V2.43366L9.36634 5.33366H12.9997C13.3552 5.33366 13.6663 5.46699 13.933 5.73366C14.1997 6.00033 14.333 6.31144 14.333 6.66699V8.00033C14.333 8.0781 14.3246 8.16144 14.3077 8.25033C14.2912 8.33921 14.2663 8.42255 14.233 8.50033L12.233 13.2003C12.133 13.4225 11.9663 13.6114 11.733 13.767C11.4997 13.9225 11.2552 14.0003 10.9997 14.0003ZM2.99967 5.33366V14.0003H0.333008V5.33366H2.99967Z" fill="#D39331"/>
</svg>
