<svg width="36" height="40" viewBox="0 0 36 40" fill="none" xmlns="http://www.w3.org/2000/svg">
<path d="M4 40C2.9 40 1.958 39.608 1.174 38.824C0.390003 38.04 -0.00132994 37.0987 3.39559e-06 36V8C3.39559e-06 6.9 0.392003 5.958 1.176 5.174C1.96 4.39 2.90134 3.99867 4 4H12.4C12.8333 2.8 13.5587 1.83333 14.576 1.1C15.5933 0.366667 16.7347 0 18 0C19.2667 0 20.4087 0.366667 21.426 1.1C22.4433 1.83333 23.168 2.8 23.6 4H32C33.1 4 34.042 4.392 34.826 5.176C35.61 5.96 36.0013 6.90133 36 8V36C36 37.1 35.608 38.042 34.824 38.826C34.04 39.61 33.0987 40.0013 32 40H4ZM8 32H22V28H8V32ZM8 24H28V20H8V24ZM8 16H28V12H8V16ZM18 6.5C18.4333 6.5 18.7913 6.358 19.074 6.074C19.3567 5.79 19.4987 5.432 19.5 5C19.5 4.56667 19.358 4.20867 19.074 3.926C18.79 3.64333 18.432 3.50133 18 3.5C17.5667 3.5 17.2087 3.642 16.926 3.926C16.6433 4.21 16.5013 4.568 16.5 5C16.5 5.43333 16.642 5.79133 16.926 6.074C17.21 6.35667 17.568 6.49867 18 6.5Z" fill="white"/>
</svg>
