<svg width="32" height="32" viewBox="0 0 32 32" fill="none" xmlns="http://www.w3.org/2000/svg">
<path d="M8.00016 29.333C7.26683 29.333 6.63927 29.0721 6.1175 28.5503C5.59483 28.0277 5.3335 27.3997 5.3335 26.6663V13.333C5.3335 12.5997 5.59483 11.9717 6.1175 11.449C6.63927 10.9272 7.26683 10.6663 8.00016 10.6663H9.3335V7.99967C9.3335 6.15523 9.98372 4.58279 11.2842 3.28234C12.5837 1.98279 14.1557 1.33301 16.0002 1.33301C17.8446 1.33301 19.4171 1.98279 20.7175 3.28234C22.0171 4.58279 22.6668 6.15523 22.6668 7.99967V10.6663H24.0002C24.7335 10.6663 25.3615 10.9272 25.8842 11.449C26.4059 11.9717 26.6668 12.5997 26.6668 13.333V26.6663C26.6668 27.3997 26.4059 28.0277 25.8842 28.5503C25.3615 29.0721 24.7335 29.333 24.0002 29.333H8.00016ZM16.0002 22.6663C16.7335 22.6663 17.3615 22.4055 17.8842 21.8837C18.4059 21.361 18.6668 20.733 18.6668 19.9997C18.6668 19.2663 18.4059 18.6383 17.8842 18.1157C17.3615 17.5939 16.7335 17.333 16.0002 17.333C15.2668 17.333 14.6393 17.5939 14.1175 18.1157C13.5948 18.6383 13.3335 19.2663 13.3335 19.9997C13.3335 20.733 13.5948 21.361 14.1175 21.8837C14.6393 22.4055 15.2668 22.6663 16.0002 22.6663ZM12.0002 10.6663H20.0002V7.99967C20.0002 6.88856 19.6113 5.94412 18.8335 5.16634C18.0557 4.38856 17.1113 3.99967 16.0002 3.99967C14.8891 3.99967 13.9446 4.38856 13.1668 5.16634C12.3891 5.94412 12.0002 6.88856 12.0002 7.99967V10.6663Z" fill="#313131"/>
</svg>
