<svg width="28" height="28" viewBox="0 0 28 28" fill="none" xmlns="http://www.w3.org/2000/svg">
<path d="M10.667 10.4337V17.567C10.667 18.0781 10.9003 18.467 11.367 18.7337C11.8337 19.0003 12.2892 18.9781 12.7337 18.667L18.267 15.1337C18.6892 14.867 18.9003 14.4892 18.9003 14.0003C18.9003 13.5114 18.6892 13.1337 18.267 12.867L12.7337 9.33366C12.2892 9.02255 11.8337 9.00033 11.367 9.26699C10.9003 9.53366 10.667 9.92255 10.667 10.4337ZM14.0003 27.3337C12.1559 27.3337 10.4225 26.9834 8.80033 26.283C7.1781 25.5834 5.76699 24.6337 4.56699 23.4337C3.36699 22.2337 2.41721 20.8225 1.71766 19.2003C1.01721 17.5781 0.666992 15.8448 0.666992 14.0003C0.666992 12.1559 1.01721 10.4225 1.71766 8.80033C2.41721 7.1781 3.36699 5.76699 4.56699 4.56699C5.76699 3.36699 7.1781 2.41677 8.80033 1.71633C10.4225 1.01677 12.1559 0.666992 14.0003 0.666992C15.8448 0.666992 17.5781 1.01677 19.2003 1.71633C20.8225 2.41677 22.2337 3.36699 23.4337 4.56699C24.6337 5.76699 25.5834 7.1781 26.283 8.80033C26.9834 10.4225 27.3337 12.1559 27.3337 14.0003C27.3337 15.8448 26.9834 17.5781 26.283 19.2003C25.5834 20.8225 24.6337 22.2337 23.4337 23.4337C22.2337 24.6337 20.8225 25.5834 19.2003 26.283C17.5781 26.9834 15.8448 27.3337 14.0003 27.3337Z" fill="white"/>
</svg>
