<svg width="18" height="18" viewBox="0 0 18 18" fill="none" xmlns="http://www.w3.org/2000/svg">
<path d="M6.91675 6.77116V11.2295C6.91675 11.5489 7.06258 11.792 7.35425 11.9587C7.64591 12.1253 7.93064 12.1114 8.20841 11.917L11.6667 9.70866C11.9306 9.54199 12.0626 9.30588 12.0626 9.00033C12.0626 8.69477 11.9306 8.45866 11.6667 8.29199L8.20841 6.08366C7.93064 5.88921 7.64591 5.87533 7.35425 6.04199C7.06258 6.20866 6.91675 6.45171 6.91675 6.77116ZM9.00008 17.3337C7.8473 17.3337 6.76397 17.1148 5.75008 16.677C4.73619 16.2398 3.85425 15.6462 3.10425 14.8962C2.35425 14.1462 1.76064 13.2642 1.32341 12.2503C0.885637 11.2364 0.666748 10.1531 0.666748 9.00033C0.666748 7.84755 0.885637 6.76421 1.32341 5.75033C1.76064 4.73644 2.35425 3.85449 3.10425 3.10449C3.85425 2.35449 4.73619 1.7606 5.75008 1.32283C6.76397 0.885603 7.8473 0.666992 9.00008 0.666992C10.1529 0.666992 11.2362 0.885603 12.2501 1.32283C13.264 1.7606 14.1459 2.35449 14.8959 3.10449C15.6459 3.85449 16.2395 4.73644 16.6767 5.75033C17.1145 6.76421 17.3334 7.84755 17.3334 9.00033C17.3334 10.1531 17.1145 11.2364 16.6767 12.2503C16.2395 13.2642 15.6459 14.1462 14.8959 14.8962C14.1459 15.6462 13.264 16.2398 12.2501 16.677C11.2362 17.1148 10.1529 17.3337 9.00008 17.3337Z" fill="#181059"/>
</svg>
