<svg width="24" height="24" viewBox="0 0 24 24" fill="none" xmlns="http://www.w3.org/2000/svg">
<path d="M6.992 14.502C6.72678 14.502 6.47243 14.6073 6.28489 14.7949C6.09736 14.9824 5.992 15.2368 5.992 15.502V17.284C4.70308 15.8264 3.99173 13.9477 3.992 12.002C3.99156 11.7079 4.00893 11.414 4.044 11.122C4.06308 10.9901 4.0556 10.8557 4.02199 10.7267C3.98838 10.5977 3.92933 10.4767 3.84831 10.3709C3.76729 10.2651 3.66592 10.1765 3.55018 10.1104C3.43444 10.0443 3.30665 10.002 3.17433 9.98605C3.04201 9.97005 2.90783 9.98067 2.77967 10.0173C2.65151 10.0539 2.53196 10.1157 2.42805 10.1992C2.32414 10.2827 2.23796 10.3861 2.17458 10.5033C2.1112 10.6206 2.07191 10.7493 2.059 10.882C2.01383 11.2536 1.99146 11.6276 1.992 12.002C1.99336 14.3882 2.85101 16.6946 4.409 18.502H2.992C2.72678 18.502 2.47243 18.6073 2.28489 18.7949C2.09736 18.9824 1.992 19.2368 1.992 19.502C1.992 19.7672 2.09736 20.0215 2.28489 20.2091C2.47243 20.3966 2.72678 20.502 2.992 20.502H6.992C7.14839 20.4999 7.30203 20.4606 7.44014 20.3872C7.57824 20.3138 7.69682 20.2085 7.786 20.08C7.797 20.065 7.812 20.053 7.823 20.037C7.83 20.027 7.83 20.015 7.836 20.005C7.88363 19.9246 7.91933 19.8376 7.942 19.747C7.957 19.696 7.96771 19.6438 7.974 19.591C7.977 19.561 7.992 19.534 7.992 19.502V15.502C7.992 15.2368 7.88664 14.9824 7.69911 14.7949C7.51157 14.6073 7.25722 14.502 6.992 14.502ZM8.492 6.00197H6.709C8.16695 4.71298 10.0459 4.00165 11.992 4.00197C12.2861 4.00133 12.5801 4.01903 12.872 4.05497C13.1355 4.0868 13.4008 4.01265 13.6097 3.84883C13.8185 3.68502 13.9537 3.44496 13.9855 3.18147C14.0173 2.91798 13.9432 2.65263 13.7794 2.44381C13.6156 2.23499 13.3755 2.0998 13.112 2.06797C12.7404 2.02327 12.3663 2.00123 11.992 2.00197C9.60582 2.00334 7.29936 2.86098 5.492 4.41897V3.00197C5.492 2.73675 5.38664 2.4824 5.19911 2.29486C5.01157 2.10733 4.75722 2.00197 4.492 2.00197C4.22678 2.00197 3.97243 2.10733 3.78489 2.29486C3.59736 2.4824 3.492 2.73675 3.492 3.00197V7.00197C3.49817 7.06815 3.51124 7.13351 3.531 7.19697C3.55511 7.32036 3.603 7.43788 3.672 7.54297L3.684 7.55997C3.74996 7.65591 3.8326 7.73923 3.928 7.80597C3.939 7.81397 3.945 7.82597 3.956 7.83397C3.97 7.84397 3.986 7.84697 4.001 7.85497C4.05793 7.88913 4.11825 7.91728 4.181 7.93897C4.26521 7.96834 4.35301 7.98617 4.442 7.99197C4.46 7.99197 4.474 8.00197 4.492 8.00197H8.492C8.75721 8.00197 9.01157 7.89661 9.19911 7.70908C9.38664 7.52154 9.492 7.26719 9.492 7.00197C9.492 6.73675 9.38664 6.4824 9.19911 6.29486C9.01157 6.10733 8.75721 6.00197 8.492 6.00197ZM20.452 16.806C20.4278 16.6829 20.3799 16.5657 20.311 16.461L20.3 16.444C20.2337 16.3479 20.1508 16.2646 20.055 16.198C20.044 16.19 20.039 16.178 20.027 16.17C20.017 16.163 20.004 16.163 19.993 16.156C19.8661 16.0852 19.727 16.0391 19.583 16.02C19.551 16.017 19.524 16.002 19.492 16.002H15.492C15.2268 16.002 14.9724 16.1073 14.7849 16.2949C14.5974 16.4824 14.492 16.7368 14.492 17.002C14.492 17.2672 14.5974 17.5215 14.7849 17.7091C14.9724 17.8966 15.2268 18.002 15.492 18.002H17.274C15.8164 19.2908 13.9377 20.0021 11.992 20.002C11.6978 20.0023 11.4039 19.9843 11.112 19.948C10.8485 19.9161 10.5832 19.9903 10.3743 20.1541C10.1655 20.3179 10.0303 20.558 9.9985 20.8215C9.96667 21.085 10.0408 21.3503 10.2046 21.5591C10.3684 21.768 10.6085 21.9031 10.872 21.935C11.2437 21.9797 11.6177 22.002 11.992 22.002C14.3782 22.0006 16.6846 21.143 18.492 19.585V21.002C18.492 21.2672 18.5974 21.5215 18.7849 21.7091C18.9724 21.8966 19.2268 22.002 19.492 22.002C19.7572 22.002 20.0116 21.8966 20.1991 21.7091C20.3866 21.5215 20.492 21.2672 20.492 21.002V17.002C20.4855 16.9358 20.4721 16.8694 20.452 16.806ZM20.992 5.50197C21.2572 5.50197 21.5116 5.39661 21.6991 5.20908C21.8866 5.02154 21.992 4.76719 21.992 4.50197C21.992 4.23675 21.8866 3.9824 21.6991 3.79486C21.5116 3.60733 21.2572 3.50197 20.992 3.50197H16.992C16.9268 3.50833 16.8625 3.5214 16.8 3.54097L16.793 3.54197C16.6718 3.56649 16.5563 3.61401 16.453 3.68197L16.433 3.69497C16.3374 3.76104 16.2545 3.84368 16.188 3.93897C16.18 3.94897 16.168 3.95497 16.16 3.96597C16.153 3.97597 16.153 3.98897 16.146 3.99997C16.0747 4.1277 16.0286 4.26789 16.01 4.41297C16.007 4.44297 15.992 4.46997 15.992 4.50197V8.50197C15.992 8.76719 16.0974 9.02154 16.2849 9.20908C16.4724 9.39661 16.7268 9.50197 16.992 9.50197C17.2572 9.50197 17.5116 9.39661 17.6991 9.20908C17.8866 9.02154 17.992 8.76719 17.992 8.50197V6.71897C19.2809 8.17697 19.9922 10.0559 19.992 12.002C19.9921 12.2961 19.9744 12.59 19.939 12.882C19.9074 13.1451 19.9814 13.4101 20.1449 13.6188C20.3084 13.8274 20.5479 13.9627 20.811 13.995C20.8515 13.9997 20.8922 14.0021 20.933 14.002C21.1771 14.0015 21.4127 13.9118 21.5952 13.7497C21.7778 13.5876 21.8947 13.3643 21.924 13.122C21.9695 12.7504 21.9922 12.3763 21.992 12.002C21.9906 9.61579 21.133 7.30933 19.575 5.50197H20.992Z" fill="#3F6FD8"/>
</svg>
