<svg width="12" height="20" viewBox="0 0 12 20" fill="none" xmlns="http://www.w3.org/2000/svg">
<path d="M1.12009 19.1201C1.2362 19.2365 1.37414 19.3288 1.526 19.3919C1.67786 19.4549 1.84067 19.4873 2.00508 19.4873C2.1695 19.4873 2.33231 19.4549 2.48417 19.3919C2.63603 19.3288 2.77397 19.2365 2.89009 19.1201L11.3001 10.7101C11.3928 10.6176 11.4663 10.5077 11.5165 10.3867C11.5667 10.2657 11.5925 10.136 11.5925 10.0051C11.5925 9.8741 11.5667 9.74442 11.5165 9.62345C11.4663 9.50247 11.3928 9.39258 11.3001 9.30007L2.89009 0.890069C2.40009 0.400069 1.61009 0.400069 1.12009 0.890069C0.630088 1.38007 0.630088 2.17007 1.12009 2.66007L8.46009 10.0001L1.11009 17.3501C0.630087 17.8401 0.630087 18.6301 1.12009 19.1201Z" fill="#D39331"/>
</svg>
