<svg width="32" height="32" viewBox="0 0 32 32" fill="none" xmlns="http://www.w3.org/2000/svg">
<path d="M31.5967 29.7075L22.4154 20.5197C24.2254 18.349 25.3141 15.5749 25.3141 12.5451C25.3141 5.63294 19.6414 0.0126953 12.6636 0.0126953C5.68583 0.0126953 0 5.6395 0 12.5517C0 19.4639 5.67271 25.0841 12.6505 25.0841C15.6147 25.0841 18.3429 24.0676 20.507 22.3691L29.7211 31.5831C30.2588 32.1209 31.0589 32.1209 31.5967 31.5831C32.1344 31.0454 32.1344 30.2453 31.5967 29.7075ZM2.6888 12.5517C2.6888 7.12162 7.16139 2.70805 12.6505 2.70805C18.1396 2.70805 22.6122 7.12162 22.6122 12.5517C22.6122 17.9817 18.1396 22.3953 12.6505 22.3953C7.16139 22.3953 2.6888 17.9752 2.6888 12.5517Z" fill="white"/>
</svg>
