<svg width="32" height="29" viewBox="0 0 32 29" fill="none" xmlns="http://www.w3.org/2000/svg">
<path d="M25.9535 19.0575C26.4948 17.7489 26.7887 16.3479 26.7887 14.8084C26.7887 13.6999 26.6186 12.6376 26.3247 11.6523C25.3194 11.8832 24.2678 12.0064 23.1697 12.0064C20.9209 12.0088 18.7045 11.473 16.7074 10.4441C14.7102 9.41523 12.9908 7.92346 11.6941 6.09455C10.3069 9.43563 7.69017 12.1231 4.37875 13.6075C4.31689 13.9924 4.31689 14.4081 4.31689 14.8084C4.31689 16.2782 4.60772 17.7336 5.17276 19.0916C5.73781 20.4495 6.56601 21.6834 7.61007 22.7227C9.71867 24.8217 12.5785 26.0009 15.5605 26.0009C17.1844 26.0009 18.7465 25.6468 20.1539 25.0156C21.0354 26.6937 21.4375 27.5251 21.4066 27.5251C18.8702 28.3718 16.9061 28.7875 15.5605 28.7875C11.8178 28.7875 8.2452 27.3249 5.61602 24.6923C4.01685 23.1053 2.82811 21.156 2.15168 19.0114H0.0947266V12.0064H1.7805C2.29124 9.53161 3.46549 7.2406 5.17863 5.37649C6.89177 3.51237 9.0799 2.14469 11.5109 1.41857C13.9418 0.69244 16.5249 0.634956 18.986 1.25221C21.4471 1.86947 23.6945 3.13845 25.4896 4.92449C27.4386 6.85701 28.768 9.32159 29.3096 12.0064H31.0263V19.0114H30.9335L25.4277 24.0457L17.2308 23.1219V20.5509H24.7008L25.9535 19.0575ZM11.3384 14.4543C11.8023 14.4543 12.2508 14.639 12.5756 14.9777C12.902 15.3053 13.0852 15.748 13.0852 16.2094C13.0852 16.6708 12.902 17.1134 12.5756 17.441C12.2508 17.7643 11.8023 17.9491 11.3384 17.9491C10.364 17.9491 9.57526 17.1793 9.57526 16.2094C9.57526 15.2395 10.364 14.4543 11.3384 14.4543ZM19.7672 14.4543C20.7416 14.4543 21.5149 15.2395 21.5149 16.2094C21.5149 17.1793 20.7416 17.9491 19.7672 17.9491C18.7929 17.9491 18.0041 17.1793 18.0041 16.2094C18.0041 15.7439 18.1899 15.2975 18.5205 14.9683C18.8512 14.6392 19.2996 14.4543 19.7672 14.4543Z" fill="#3F6FD8"/>
</svg>
