<svg width="32" height="32" viewBox="0 0 32 32" fill="none" xmlns="http://www.w3.org/2000/svg">
<g clip-path="url(#clip0_393_1540)">
<path d="M16.1108 14.2529C14.6766 14.2529 13.8498 15.6587 13.8498 17.3965C13.8357 19.1607 14.6906 20.512 16.0968 20.512C17.5163 20.512 18.3444 19.1743 18.3444 17.3551C18.3444 15.6587 17.5443 14.2529 16.1108 14.2529Z" fill="#3F6FD8"/>
<path d="M28.376 11.446H27.6077V7.73837C27.6077 7.71509 27.604 7.69197 27.6009 7.66834C27.5997 7.52126 27.5528 7.3767 27.452 7.26213L21.2823 0.214601C21.2805 0.212792 21.2786 0.212033 21.2773 0.210224C21.2406 0.169136 21.1977 0.134936 21.1524 0.105404C21.1389 0.096416 21.1254 0.0888871 21.1113 0.0809497C21.0721 0.0596472 21.0304 0.0417297 20.9875 0.0288314C20.9759 0.0257965 20.9655 0.0210107 20.9539 0.0179759C20.9072 0.00688685 20.8588 0 20.8099 0H5.64685C4.95443 0 4.39199 0.563146 4.39199 1.25492V11.4459H3.62375C2.63351 11.4459 1.83008 12.2487 1.83008 13.2396V22.5667C1.83008 23.5566 2.63351 24.3603 3.62375 24.3603H4.39199V30.7451C4.39199 31.437 4.95443 32 5.64685 32H26.3528C27.0445 32 27.6077 31.437 27.6077 30.7451V24.3603H28.376C29.3668 24.3603 30.1694 23.5566 30.1694 22.5668V13.2396C30.1695 12.2488 29.3668 11.446 28.376 11.446ZM5.64685 1.25492H20.1824V7.67522C20.1824 8.02208 20.4636 8.30269 20.8098 8.30269H26.3528V11.4462H5.64685V1.25492ZM20.6039 22.0006L19.9973 23.628C18.6744 23.2417 17.5714 22.8413 16.3305 22.318C16.1246 22.2353 15.9034 22.1936 15.683 22.1802C13.5872 22.0429 11.6297 20.4982 11.6297 17.4657C11.6297 14.6811 13.3944 12.5852 16.1651 12.5852C19.006 12.5852 20.5628 14.7361 20.5628 17.2728C20.5628 19.3821 19.5843 20.8701 18.3576 21.4219V21.477C19.0745 21.6836 19.8736 21.8492 20.6039 22.0006ZM4.25518 21.6011L4.68287 19.864C5.24841 20.1535 6.11592 20.4427 7.01255 20.4427C7.977 20.4427 8.48745 20.0435 8.48745 19.4372C8.48745 18.8578 8.04622 18.5269 6.92968 18.1274C5.38556 17.5895 4.37944 16.735 4.37944 15.3835C4.37944 13.7982 5.70312 12.5851 7.89471 12.5851C8.94256 12.5851 9.71471 12.8064 10.2656 13.0538L9.79747 14.7499C9.4254 14.5704 8.7638 14.3084 7.85397 14.3084C6.94357 14.3084 6.50211 14.7216 6.50211 15.2047C6.50211 15.7971 7.02603 16.0595 8.22575 16.5148C9.86622 17.1214 10.638 17.9752 10.638 19.2849C10.638 20.8432 9.43824 22.166 6.88801 22.166C5.82702 22.1655 4.77969 21.8897 4.25518 21.6011ZM26.3528 30.405H5.64685V24.3603H26.3528V30.405ZM27.7449 22.0279H21.9404V12.7367H24.0507V20.2638H27.7449V22.0279Z" fill="#3F6FD8"/>
</g>
<defs>
<clipPath id="clip0_393_1540">
<rect width="32" height="32" fill="white"/>
</clipPath>
</defs>
</svg>
