<svg width="30" height="32" viewBox="0 0 30 32" fill="none" xmlns="http://www.w3.org/2000/svg">
<path d="M27.376 11.4464H26.6076V7.73837C26.6076 7.71526 26.604 7.69197 26.6009 7.66857C26.5996 7.52132 26.5527 7.37675 26.4519 7.26219L20.2823 0.214601C20.2804 0.212792 20.2786 0.21215 20.2773 0.210224C20.2406 0.169136 20.1977 0.134936 20.1523 0.105404C20.1389 0.096416 20.1254 0.0888871 20.1113 0.0810081C20.0721 0.0596472 20.0303 0.0418464 19.9875 0.0289481C19.9758 0.0257382 19.9654 0.0211275 19.9538 0.0179759C19.9072 0.00688685 19.8588 0 19.8098 0H4.6468C3.95443 0 3.39193 0.563146 3.39193 1.25493V11.4461H2.62352C1.63321 11.4461 0.830078 12.2487 0.830078 13.2396V22.5667C0.830078 23.5566 1.63321 24.3603 2.62352 24.3603H3.39193V30.7451C3.39193 31.437 3.95443 32 4.6468 32H25.3526C26.0444 32 26.6075 31.437 26.6075 30.7451V24.3603H27.3759C28.3661 24.3603 29.1694 23.557 29.1694 22.5668V13.2399C29.1694 12.2488 28.3662 11.4464 27.376 11.4464ZM4.6468 1.25493H19.1824V7.67522C19.1824 8.02208 19.4635 8.30269 19.8098 8.30269H25.3527V11.4464H4.6468V1.25493ZM10.8366 13.1342H13.2692L14.09 14.8442C14.3675 15.4136 14.5765 15.8727 14.7989 16.4011H14.8269C15.0486 15.8033 15.2296 15.386 15.466 14.8442L16.259 13.1342H18.6781L16.0365 17.7077L18.8168 22.5043H16.3698L15.5221 20.8082C15.1745 20.1547 14.9518 19.6685 14.6875 19.1259H14.6596C14.4651 19.6685 14.2289 20.1547 13.937 20.8082L13.1587 22.5043H10.7393L13.4505 17.7638L10.8366 13.1342ZM2.85639 14.9137V13.1342H10.0574V14.9137H7.49941V22.5037H5.37301V14.9137H2.85639ZM25.3527 30.405H4.6468V24.3603H25.3526V30.405H25.3527ZM26.5334 14.9137H23.9753V22.5037H21.8484V14.9137H19.3318V13.1342H26.5335V14.9137H26.5334Z" fill="#3F6FD8"/>
</svg>
