<svg width="38" height="38" viewBox="0 0 38 38" fill="none" xmlns="http://www.w3.org/2000/svg">
<path d="M14.4165 14.0957V23.904C14.4165 24.6068 14.7373 25.1415 15.379 25.5082C16.0207 25.8748 16.6471 25.8443 17.2582 25.4165L24.8665 20.5582C25.4471 20.1915 25.7373 19.6721 25.7373 18.9998C25.7373 18.3276 25.4471 17.8082 24.8665 17.4415L17.2582 12.5832C16.6471 12.1554 16.0207 12.1248 15.379 12.4915C14.7373 12.8582 14.4165 13.3929 14.4165 14.0957ZM18.9998 37.3332C16.4637 37.3332 14.0804 36.8516 11.8498 35.8885C9.61928 34.9266 7.679 33.6207 6.029 31.9707C4.379 30.3207 3.07306 28.3804 2.11117 26.1498C1.14806 23.9193 0.666504 21.5359 0.666504 18.9998C0.666504 16.4637 1.14806 14.0804 2.11117 11.8498C3.07306 9.61928 4.379 7.679 6.029 6.029C7.679 4.379 9.61928 3.07245 11.8498 2.10934C14.0804 1.14745 16.4637 0.666504 18.9998 0.666504C21.5359 0.666504 23.9193 1.14745 26.1498 2.10934C28.3804 3.07245 30.3207 4.379 31.9707 6.029C33.6207 7.679 34.9266 9.61928 35.8885 11.8498C36.8516 14.0804 37.3332 16.4637 37.3332 18.9998C37.3332 21.5359 36.8516 23.9193 35.8885 26.1498C34.9266 28.3804 33.6207 30.3207 31.9707 31.9707C30.3207 33.6207 28.3804 34.9266 26.1498 35.8885C23.9193 36.8516 21.5359 37.3332 18.9998 37.3332Z" fill="#181059"/>
</svg>
