<svg width="70" height="70" viewBox="0 0 70 70" fill="none" xmlns="http://www.w3.org/2000/svg">
<path d="M26.25 13.125C26.25 16.606 24.8672 19.9444 22.4058 22.4058C19.9444 24.8672 16.606 26.25 13.125 26.25C9.64403 26.25 6.30564 24.8672 3.84422 22.4058C1.38281 19.9444 0 16.606 0 13.125C0 9.64403 1.38281 6.30564 3.84422 3.84422C6.30564 1.38281 9.64403 0 13.125 0C16.606 0 19.9444 1.38281 22.4058 3.84422C24.8672 6.30564 26.25 9.64403 26.25 13.125Z" fill="#3F6FD8"/>
<path d="M39.375 26.25C35.894 26.25 32.5556 24.8672 30.0942 22.4058C27.6328 19.9444 26.25 16.606 26.25 13.125C26.25 9.64403 27.6328 6.30564 30.0942 3.84422C32.5556 1.38281 35.894 0 39.375 0C42.856 0 46.1944 1.38281 48.6558 3.84422C51.1172 6.30564 52.5 9.64403 52.5 13.125C52.5 16.606 51.1172 19.9444 48.6558 22.4058C46.1944 24.8672 42.856 26.25 39.375 26.25Z" fill="#3F6FD8"/>
<path d="M39.375 26.25H41.5625C43.6848 26.2498 45.7348 27.0208 47.3308 28.4197C48.9269 29.8185 49.9601 31.7498 50.2381 33.8537L63.8444 27.8075C64.5104 27.5108 65.24 27.3852 65.9669 27.4421C66.6937 27.4991 67.3949 27.7368 68.0065 28.1337C68.6181 28.5306 69.1208 29.074 69.469 29.7147C69.8172 30.3553 69.9997 31.0728 70 31.8019V64.4481C69.9994 65.1767 69.8168 65.8935 69.4689 66.5336C69.121 67.1737 68.6187 67.7168 68.0077 68.1136C67.3967 68.5103 66.6962 68.7482 65.9699 68.8057C65.2437 68.8631 64.5145 68.7383 63.8488 68.4425L50.2381 62.3963C49.9601 64.5002 48.9269 66.4315 47.3308 67.8303C45.7348 69.2292 43.6848 70.0002 41.5625 70H8.75C6.42936 70 4.20376 69.0781 2.56282 67.4372C0.921872 65.7962 0 63.5706 0 61.25V35C0 32.6794 0.921872 30.4538 2.56282 28.8128C4.20376 27.1719 6.42936 26.25 8.75 26.25H39.375Z" fill="#3F6FD8"/>
</svg>
